<?xml version="1.0" encoding="UTF-8"?>
<svg width="451px" height="300px" viewBox="0 0 451 300" version="1.1" xmlns="http://www.w3.org/2000/svg" xmlns:xlink="http://www.w3.org/1999/xlink">
    <!-- Generator: Sketch 49.2 (51160) - http://www.bohemiancoding.com/sketch -->
    <title>插图3</title>
    <desc>Created with Sketch.</desc>
    <defs>
        <linearGradient x1="50.01507%" y1="100%" x2="50.01507%" y2="0.00796355692%" id="linearGradient-1">
            <stop stop-color="#808080" stop-opacity="0.25" offset="0%"></stop>
            <stop stop-color="#808080" stop-opacity="0.12" offset="54%"></stop>
            <stop stop-color="#808080" stop-opacity="0.1" offset="100%"></stop>
        </linearGradient>
        <linearGradient x1="21111%" y1="63930%" x2="29183%" y2="63930%" id="linearGradient-2">
            <stop stop-color="#808080" stop-opacity="0.25" offset="0%"></stop>
            <stop stop-color="#808080" stop-opacity="0.12" offset="54%"></stop>
            <stop stop-color="#808080" stop-opacity="0.1" offset="100%"></stop>
        </linearGradient>
        <linearGradient x1="74356%" y1="70881%" x2="74356%" y2="64780%" id="linearGradient-3">
            <stop stop-color="#808080" stop-opacity="0.25" offset="0%"></stop>
            <stop stop-color="#808080" stop-opacity="0.12" offset="54%"></stop>
            <stop stop-color="#808080" stop-opacity="0.1" offset="100%"></stop>
        </linearGradient>
        <linearGradient x1="32280%" y1="54316%" x2="32280%" y2="38506%" id="linearGradient-4">
            <stop stop-color="#808080" stop-opacity="0.25" offset="0%"></stop>
            <stop stop-color="#808080" stop-opacity="0.12" offset="54%"></stop>
            <stop stop-color="#808080" stop-opacity="0.1" offset="100%"></stop>
        </linearGradient>
        <linearGradient x1="51912%" y1="12368%" x2="51912%" y2="2932%" id="linearGradient-5">
            <stop stop-color="#808080" stop-opacity="0.25" offset="0%"></stop>
            <stop stop-color="#808080" stop-opacity="0.12" offset="54%"></stop>
            <stop stop-color="#808080" stop-opacity="0.1" offset="100%"></stop>
        </linearGradient>
        <linearGradient x1="53456%" y1="14548%" x2="53456%" y2="5112%" id="linearGradient-6">
            <stop stop-color="#808080" stop-opacity="0.25" offset="0%"></stop>
            <stop stop-color="#808080" stop-opacity="0.12" offset="54%"></stop>
            <stop stop-color="#808080" stop-opacity="0.1" offset="100%"></stop>
        </linearGradient>
        <linearGradient x1="65613%" y1="11952%" x2="65613%" y2="6540%" id="linearGradient-7">
            <stop stop-color="#808080" stop-opacity="0.25" offset="0%"></stop>
            <stop stop-color="#808080" stop-opacity="0.12" offset="54%"></stop>
            <stop stop-color="#808080" stop-opacity="0.1" offset="100%"></stop>
        </linearGradient>
        <linearGradient x1="82471%" y1="25181%" x2="82471%" y2="23613%" id="linearGradient-8">
            <stop stop-color="#808080" stop-opacity="0.25" offset="0%"></stop>
            <stop stop-color="#808080" stop-opacity="0.12" offset="54%"></stop>
            <stop stop-color="#808080" stop-opacity="0.1" offset="100%"></stop>
        </linearGradient>
        <linearGradient x1="77151%" y1="16236%" x2="77151%" y2="1804%" id="linearGradient-9">
            <stop stop-color="#808080" stop-opacity="0.25" offset="0%"></stop>
            <stop stop-color="#808080" stop-opacity="0.12" offset="54%"></stop>
            <stop stop-color="#808080" stop-opacity="0.1" offset="100%"></stop>
        </linearGradient>
        <linearGradient x1="94067%" y1="22257%" x2="94067%" y2="20195%" id="linearGradient-10">
            <stop stop-color="#808080" stop-opacity="0.25" offset="0%"></stop>
            <stop stop-color="#808080" stop-opacity="0.12" offset="54%"></stop>
            <stop stop-color="#808080" stop-opacity="0.1" offset="100%"></stop>
        </linearGradient>
        <linearGradient x1="67492%" y1="26290%" x2="67492%" y2="20296%" id="linearGradient-11">
            <stop stop-color="#808080" stop-opacity="0.25" offset="0%"></stop>
            <stop stop-color="#808080" stop-opacity="0.12" offset="54%"></stop>
            <stop stop-color="#808080" stop-opacity="0.1" offset="100%"></stop>
        </linearGradient>
        <linearGradient x1="63796%" y1="25527%" x2="63796%" y2="18097%" id="linearGradient-12">
            <stop stop-color="#808080" stop-opacity="0.25" offset="0%"></stop>
            <stop stop-color="#808080" stop-opacity="0.12" offset="54%"></stop>
            <stop stop-color="#808080" stop-opacity="0.1" offset="100%"></stop>
        </linearGradient>
    </defs>
    <g id="切图" stroke="none" stroke-width="1" fill="none" fill-rule="evenodd">
        <g id="插图3">
            <path d="M221.915694,207.179909 C218.396211,194.482493 198.860452,185.122654 183.616362,182.704347 L183.616362,176.603737 L184.456835,176.279903 C184.377326,175.061642 184.131692,173.859774 183.726674,172.707286 C190.241306,170.069303 195.864601,165.63934 199.937309,159.936746 C208.617099,150.896176 212.730836,138.443973 211.133321,126.046629 C209.535806,113.649286 202.397621,102.630575 191.70592,96.0579299 C194.686483,94.195542 196.134215,90.6457703 195.300076,87.245225 C194.465937,83.8446798 191.537075,81.3563071 188.028848,81.0675617 C190.898491,74.3357299 188.772223,66.5256609 182.879254,62.1524013 C176.986284,57.7791417 168.851263,57.9741572 163.177094,62.6247082 C168.124185,60.007479 174.089373,60.1620476 178.892654,63.0319264 C183.695936,65.9018051 186.633409,71.0664242 186.631561,76.6383519 C186.631561,76.7793763 186.631561,76.9151775 186.631561,77.0509788 C186.448101,70.7669051 182.551965,65.1826453 176.696435,62.8111473 C170.840904,60.4396494 164.129523,61.7278496 159.58245,66.0960508 C155.035376,70.4642519 153.509559,77.0892158 155.691625,82.9896717 C153.210208,83.5191823 151.130116,85.1908539 150.088989,87.4922446 C149.047862,89.7936354 149.169886,92.4502382 150.417653,94.6476862 C138.707372,100.764449 130.611606,112.044284 128.601473,125.044181 C126.59134,138.044077 130.905423,151.221072 140.226911,160.553075 C144.104022,165.746975 149.289549,169.832921 155.260883,172.399122 L155.260883,182.568546 C139.85395,184.757035 119.567018,194.289238 116.026523,207.300041 C112.937783,218.639445 109.638924,231.091375 108,238.403749 C122.062174,248.228447 151.568052,254 170.063724,254 C187.634876,254 216.352809,248.776875 230,239.845332 C228.539677,231.812166 225.141012,218.811808 221.915694,207.179909 Z M193.749322,89.8789732 C193.749322,90.0252207 193.749322,90.1662451 193.749322,90.3072695 C193.535529,86.6152876 190.786393,83.5590288 187.120086,82.9374404 C187.274173,82.6762842 187.421256,82.4116459 187.561335,82.1435255 C191.183562,82.9752233 193.74926,86.1825383 193.749322,89.8789732 Z" id="Shape" fill="url(#linearGradient-1)" fill-rule="nonzero"></path>
            <path d="M170.027656,251 C187.024509,251 214.799982,245.928598 228,237.219813 C226.572264,229.400748 223.293179,216.745794 220.155298,205.420187 C216.18588,190.996262 191.124673,181 176.172672,181 L161.77503,181 C146.78119,181 121.683375,191.059065 117.761025,205.540561 C114.774808,216.578318 111.56894,228.704673 110,235.82243 C123.597483,245.363364 152.141736,251 170.027656,251 Z" id="Shape" fill="#3B84D1" fill-rule="nonzero"></path>
            <circle id="Oval" fill="#F55F44" fill-rule="nonzero" cx="170.5" cy="132.5" r="40.5"></circle>
            <path d="M159.132227,160 L179.908987,160 C181.616106,160 183,161.417371 183,163.165787 L183,184.925299 C183,192.146257 177.284519,198 170.234116,198 L168.765884,198 C161.715481,198 156,192.146257 156,184.925299 L156,163.186893 C156,161.438476 157.383894,160.021105 159.091013,160.021105 L159.132227,160 Z" id="Shape" fill="#FDA57D" fill-rule="nonzero"></path>
            <path d="M170.880537,177.999992 C175.374871,178.00299 179.828201,177.12685 184,175.418894 C183.555944,168.445036 177.897471,163.015876 171.056568,163 L169.943432,163 C163.217672,163.004959 157.605103,168.24788 157,175.090967 C161.386044,177.011647 166.108521,178.001364 170.880537,177.999992 Z" id="Shape" fill="#000000" fill-rule="nonzero" opacity="0.05"></path>
            <circle id="Oval" fill="#FDA57D" fill-rule="nonzero" cx="169.5" cy="139.5" r="35.5"></circle>
            <circle id="Oval" fill="#F55F44" fill-rule="nonzero" cx="157.5" cy="92.5" r="7.5"></circle>
            <circle id="Oval" fill="#F55F44" fill-rule="nonzero" cx="185.5" cy="92.5" r="7.5"></circle>
            <circle id="Oval" fill="#F55F44" fill-rule="nonzero" cx="170.5" cy="79.5" r="15.5"></circle>
            <path d="M187.299691,83.0000774 C185.767785,82.9971947 184.270157,83.45492 183,84.3142067 C186.651617,83.0263144 190.688621,84.6577122 192.431252,88.1254795 C194.173882,91.5932467 193.080726,95.81999 189.877418,98 C193.414331,96.7402189 195.529912,93.1044948 194.884662,89.3948145 C194.239413,85.6851343 191.021505,82.9833331 187.268382,83.0000774 L187.299691,83.0000774 Z" id="Shape" fill="#F55F44" fill-rule="nonzero"></path>
            <path d="M172.740362,62.0000687 C169.185794,61.9893526 165.739674,63.2333386 163,65.5161604 C169.928075,61.8004805 178.522231,63.9797312 182.881236,70.5575159 C187.240241,77.1353006 185.946246,85.97207 179.88778,91 C186.084238,87.6821636 189.242145,80.5366696 187.544723,73.6743972 C185.847302,66.8121249 179.730956,61.9973519 172.714485,62.0000687 L172.740362,62.0000687 Z" id="Shape" fill="#F55F44" fill-rule="nonzero"></path>
            <path d="M144,107.381739 C144,107.381739 148.263941,135.922293 202,120.352321 L175.558365,97 L144,107.381739 Z" id="Shape" fill="#F55F44" fill-rule="nonzero"></path>
            <g id="Group" opacity="0.7" transform="translate(22.000000, 211.000000)" fill="url(#linearGradient-2)" fill-rule="nonzero">
                <path d="M42.0860794,28.0478537 C42.9029349,24.7459165 41.6166054,21.2782569 38.8502919,19.3248872 C38.1032587,18.8935746 37.3796856,18.4222868 36.6826791,17.9130473 C35.6384981,16.9115782 34.8869702,15.6408523 34.5098556,14.2391143 C33.4208386,10.9535686 33.0821491,7.26389024 31.1750666,4.29325305 C29.4399342,1.59028811 26.0634603,0.797768293 23.0673608,0.530096037 C21.9806728,0.351040202 20.8665483,0.455853144 19.8315734,0.834507622 C18.1641789,1.59553659 17.3669559,3.57946037 17.2887967,5.42692378 C17.2106376,7.2743872 17.6900136,9.10085671 17.8098575,10.9325747 C17.9297015,12.7642927 17.6014332,14.8007012 16.2466752,16.0498384 C14.8919172,17.2989756 12.9639923,17.4459329 11.1767538,17.6978598 C8.83549818,18.026698 6.53527849,18.603733 4.31438328,19.4193598 C2.44898568,20.1016616 0.369953155,21.3403018 0.281372822,23.339971 C0.208424313,24.972247 1.51628688,26.2791174 2.50109175,27.5754909 C4.40691569,30.0148715 5.18285252,33.1602846 4.63223035,36.2144817 C3.9965362,39.2585976 1.87581882,41.8670899 1.50586566,44.9531936 C1.36122037,45.7246741 1.45770769,46.5223536 1.78202787,47.2362805 C2.081221,47.7248237 2.47668669,48.1463851 2.94399342,48.4749207 C4.09553775,49.3724101 5.38255788,50.0914512 6.47678552,51.0676677 C8.75382114,53.0988277 9.98352458,56.0432226 10.9318552,58.9403811 C11.0256461,59.2185503 11.1038053,59.501968 11.1923856,59.7853857 L8.95703484,59.7853857 C4.39193848,59.7969247 0.694045378,63.521692 0.682589624,68.1199649 C0.694045378,72.7182379 4.39193848,76.4430052 8.95703484,76.4545442 L31.2897,76.4545442 C35.8547963,76.4430052 39.5526894,72.7182379 39.5641452,68.1199649 C39.5271086,63.5462626 35.8461427,59.852581 31.3053318,59.832622 L25.1828676,59.832622 C26.6314166,57.880189 28.1424928,56.0432226 30.3934754,55.2926905 C32.644458,54.5421585 35.3331316,54.9830305 37.0838959,53.4137363 C37.9058969,52.5994827 38.4387767,51.5352004 38.6001827,50.3853659 C38.9708314,48.3334502 38.6246927,46.215561 37.6205885,44.3916067 C36.9171564,43.1267241 35.8854561,41.9773079 35.6613999,40.5444741 C35.5484764,39.2988867 35.845064,38.0504361 36.5055184,36.9912561 C38.1833341,33.8631646 41.174223,31.4646113 42.0860794,28.0478537 Z" id="Shape"></path>
            </g>
            <path d="M44.6654589,213.081057 C43.6317374,212.910649 42.5718735,213.009935 41.5871417,213.369429 C39.9985009,214.09298 39.2432454,215.990991 39.1703242,217.736952 C39.097403,219.482913 39.5505563,221.223631 39.6911901,222.980078 C39.8318238,224.736525 39.493261,226.650266 38.2119311,227.845698 C36.9306011,229.041131 35.086736,229.172209 33.3835047,229.418636 C31.1516166,229.730219 28.958727,230.278554 26.8414296,231.054491 C25.0652771,231.704639 23.0859869,232.879099 23.0026483,234.782353 C22.9349358,236.355291 24.1798051,237.576939 25.1173637,238.814317 C26.9285651,241.131443 27.6679503,244.118097 27.1487405,247.019808 C26.5445361,249.914013 24.5444112,252.399255 24.1589705,255.335405 C24.0247614,256.080362 24.1268081,256.848943 24.4506554,257.532275 C24.7352603,257.996966 25.1109893,258.398373 25.554891,258.711978 C26.6539179,259.566608 27.8779526,260.253457 28.9144757,261.176247 C31.0812776,263.105717 32.2532258,265.89506 33.1595323,268.67916 C34.0479904,271.399872 34.7442145,274.18042 35.2429957,277 C37.1076955,275.794081 39.5193043,275.809811 41.4933859,274.824103 C45.7332339,272.726853 47.1604063,266.671043 51.6346439,265.161023 C53.7545679,264.447957 56.3224366,264.867408 58.0048333,263.373117 C58.7895356,262.598418 59.298495,261.584821 59.4528403,260.489398 C59.8043835,258.533669 59.471194,256.515744 58.5100731,254.779634 C57.8381562,253.573715 56.8589284,252.483145 56.6453734,251.109446 C56.5370552,249.924127 56.8189056,248.735838 57.4475068,247.72763 C59.0569823,244.780994 61.9009098,242.484505 62.7707558,239.249496 C63.5448227,236.108836 62.3193922,232.812452 59.6872299,230.954872 C58.9692914,230.545461 58.2737949,230.097397 57.6037665,229.612631 C56.6047924,228.662611 55.8841112,227.454736 55.5203032,226.12071 C54.4785715,222.974835 54.1608433,219.488156 52.3430215,216.683084 C50.733546,214.087737 47.5198037,213.358942 44.6654589,213.081057 Z" id="Shape" fill="#4DB6AC" fill-rule="nonzero"></path>
            <path d="M45.2597984,213 C45.2597984,213 49.174114,265.936131 39,275" id="Shape" stroke="#535461" opacity="0.6"></path>
            <rect id="Rectangle-path" fill="#3B84D1" fill-rule="nonzero" x="24" y="269" width="37" height="16" rx="8"></rect>
            <path d="M23,234.063551 C23,234.063551 32.9082013,232.95476 45,240" id="Shape" stroke="#535461" opacity="0.6"></path>
            <path d="M46,246 C50.1734955,240.054157 56.6942271,236.069266 64,235" id="Shape" stroke="#535461" opacity="0.6"></path>
            <path d="M24,254.622299 C24,254.622299 37.7033248,252.537378 44,256" id="Shape" stroke="#535461" opacity="0.6"></path>
            <path d="M44,262 C44,262 51.5167785,258.043816 60,261.259771" id="Shape" stroke="#535461" opacity="0.6"></path>
            <g id="Group" opacity="0.7" transform="translate(283.000000, 253.000000)" fill="url(#linearGradient-3)" fill-rule="nonzero">
                <path d="M28.4799578,6.19231912 L28.4799578,0.423406436 L0.340953604,0.423406436 L0.340953604,27.0927193 C0.340953604,30.1969575 2.79723293,32.7134397 5.82720704,32.7134397 L22.9937044,32.7134397 C26.0236785,32.7134397 28.4799578,30.1969575 28.4799578,27.0927193 L28.4799578,21.1703218 C32.5213498,21.1703218 35.7975454,17.8138273 35.7975454,13.6733816 C35.7975454,9.53293584 32.5213498,6.17644138 28.4799578,6.17644138 L28.4799578,6.19231912 Z M28.4799578,18.3017432 L28.4799578,9.07148289 C30.1247866,9.01439218 31.6690903,9.88082673 32.5080132,11.331431 C33.3469361,12.7820353 33.3469361,14.5858982 32.5080132,16.0365025 C31.6690903,17.4871068 30.1247866,18.3535413 28.4799578,18.2964506 L28.4799578,18.3017432 Z" id="Shape"></path>
            </g>
            <path d="M311.000102,260 C308.168908,260 305.616491,261.70547 304.53304,264.321153 C303.449589,266.936835 304.04847,269.947616 306.050427,271.949573 C308.052384,273.95153 311.063165,274.550411 313.678847,273.46696 C316.29453,272.383509 318,269.831092 318,266.999898 C318,263.133961 314.866039,260 311.000102,260 Z M311.000102,271.309193 C308.608185,271.309193 306.669152,269.370161 306.669152,266.978243 C306.669152,264.586325 308.608185,262.647293 311.000102,262.647293 C313.39202,262.647293 315.331052,264.586325 315.331052,266.978243 C315.331052,269.370161 313.39202,271.309193 311.000102,271.309193 Z" id="Shape" fill="#3B84D1" fill-rule="nonzero"></path>
            <path d="M311.000102,260 C308.168908,260 305.616491,261.70547 304.53304,264.321153 C303.449589,266.936835 304.04847,269.947616 306.050427,271.949573 C308.052384,273.95153 311.063165,274.550411 313.678847,273.46696 C316.29453,272.383509 318,269.831092 318,266.999898 C318,263.133961 314.866039,260 311.000102,260 Z M311.000102,271.309193 C308.608185,271.309193 306.669152,269.370161 306.669152,266.978243 C306.669152,264.586325 308.608185,262.647293 311.000102,262.647293 C313.39202,262.647293 315.331052,264.586325 315.331052,266.978243 C315.331052,269.370161 313.39202,271.309193 311.000102,271.309193 Z" id="Shape" fill="#000000" fill-rule="nonzero" opacity="0.1"></path>
            <path d="M284,255 L310,255 L310,278.928251 C310,281.729301 307.718218,284 304.903498,284 L289.096502,284 C286.281782,284 284,281.729301 284,278.928251 L284,255 Z" id="Shape" fill="#3B84D1" fill-rule="nonzero"></path>
            <rect id="Rectangle-path" fill="#E0E0E0" fill-rule="nonzero" x="0" y="284" width="338" height="11"></rect>
            <g id="Group" opacity="0.7" transform="translate(97.000000, 201.000000)" fill="url(#linearGradient-4)" fill-rule="nonzero">
                <rect id="Rectangle-path" x="0.27228696" y="0.0312135047" width="143.767515" height="82.247585" rx="14.5"></rect>
            </g>
            <rect id="Rectangle-path" fill="#535461" fill-rule="nonzero" x="100" y="203" width="138" height="81" rx="26.84"></rect>
            <circle id="Oval" fill="#FFFFFF" fill-rule="nonzero" cx="168.5" cy="243.5" r="4.5"></circle>
            <rect id="Rectangle-path" fill="#E0E0E0" fill-rule="nonzero" x="14" y="295" width="309" height="5"></rect>
            <rect id="Rectangle-path" fill="#000000" fill-rule="nonzero" opacity="0.1" x="14" y="295" width="309" height="2"></rect>
            <path d="M306.278912,255 L306.278912,278.949731 C306.278912,281.738917 303.915462,284 301,284 L303.721088,284 C306.636551,284 309,281.738917 309,278.949731 L309,255 L306.278912,255 Z" id="Shape" fill="#000000" fill-rule="nonzero" opacity="0.1"></path>
            <path d="M289.24348,235.684222 C288.793403,235.698308 288.373033,235.912694 288.096864,236.26899 C287.758091,236.885085 288.373094,237.584719 288.935979,238.007632 C289.978357,238.790804 291.067642,239.573975 291.776459,240.654752 C292.485277,241.73553 292.704176,243.265325 291.932816,244.309554 C290.926921,245.677494 288.519027,245.9751 288.284492,247.656308 C288.133347,248.737085 289.066276,249.661228 290.01484,250.204227 C292.349768,251.546062 295.362241,251.9011 297.050894,254 C297.749287,252.558964 299.318067,251.723581 300.876422,251.389427 C302.434778,251.055274 304.055676,251.060495 305.640091,250.820322 C306.169671,250.810652 306.66229,250.546419 306.963911,250.110247 C307.406922,249.21221 306.145644,248.131433 306.583443,247.233396 C306.917004,246.544204 307.886416,246.601637 308.595233,246.324916 C309.752273,245.875898 310.226556,244.387871 309.898206,243.192229 C309.569857,241.996587 308.642141,241.056781 307.667517,240.289272 C305.061571,238.200814 301.882317,237.005172 298.687428,236.112356 C297.202039,235.705107 295.456055,235.068127 293.913335,235.005473 C292.370615,234.942819 290.734081,235.433607 289.24348,235.684222 Z" id="Shape" fill="#EEEEEE" fill-rule="nonzero"></path>
            <rect id="Rectangle-path" fill="#EDEDEF" fill-rule="nonzero" x="224" y="0" width="227" height="156"></rect>
            <g id="Group" opacity="0.5" transform="translate(244.000000, 15.000000)" fill="url(#linearGradient-5)" fill-rule="nonzero">
                <rect id="Rectangle-path" x="0.515639709" y="0.167783436" width="53.8159484" height="49.4751407" rx="4.5"></rect>
            </g>
            <rect id="Rectangle-path" fill="#F5F5F5" fill-rule="nonzero" x="246" y="16" width="52" height="48" rx="4.5"></rect>
            <rect id="Rectangle-path" fill="#3B84D1" fill-rule="nonzero" x="250" y="24" width="9" height="8" rx="4"></rect>
            <rect id="Rectangle-path" fill="#E0E0E0" fill-rule="nonzero" x="261" y="24" width="35" height="1" rx="0.5"></rect>
            <rect id="Rectangle-path" fill="#E0E0E0" fill-rule="nonzero" x="261" y="26" width="35" height="1" rx="0.5"></rect>
            <rect id="Rectangle-path" fill="#E0E0E0" fill-rule="nonzero" x="249" y="36" width="47" height="1" rx="0.5"></rect>
            <rect id="Rectangle-path" fill="#E0E0E0" fill-rule="nonzero" x="249" y="39" width="47" height="1" rx="0.5"></rect>
            <rect id="Rectangle-path" fill="#E0E0E0" fill-rule="nonzero" x="249" y="42" width="47" height="1" rx="0.5"></rect>
            <rect id="Rectangle-path" fill="#E0E0E0" fill-rule="nonzero" x="249" y="45" width="27" height="1" rx="0.5"></rect>
            <rect id="Rectangle-path" fill="#E0E0E0" fill-rule="nonzero" x="249" y="48" width="47" height="1" rx="0.5"></rect>
            <rect id="Rectangle-path" fill="#E0E0E0" fill-rule="nonzero" x="249" y="51" width="47" height="1" rx="0.5"></rect>
            <rect id="Rectangle-path" fill="#E0E0E0" fill-rule="nonzero" x="249" y="54" width="47" height="1" rx="0.5"></rect>
            <rect id="Rectangle-path" fill="#E0E0E0" fill-rule="nonzero" x="249" y="57" width="27" height="1" rx="0.5"></rect>
            <g id="Group" opacity="0.5" transform="translate(253.000000, 27.000000)" fill="url(#linearGradient-6)" fill-rule="nonzero">
                <rect id="Rectangle-path" x="0.220988447" y="0.0629187885" width="53.8159484" height="49.4751407" rx="4.5"></rect>
            </g>
            <rect id="Rectangle-path" fill="#FFFFFF" fill-rule="nonzero" x="254" y="27" width="52" height="48" rx="4.5"></rect>
            <rect id="Rectangle-path" fill="#3B84D1" fill-rule="nonzero" x="258" y="35" width="9" height="8" rx="4"></rect>
            <rect id="Rectangle-path" fill="#E0E0E0" fill-rule="nonzero" x="269" y="35" width="35" height="1" rx="0.5"></rect>
            <rect id="Rectangle-path" fill="#E0E0E0" fill-rule="nonzero" x="269" y="38" width="35" height="1" rx="0.5"></rect>
            <rect id="Rectangle-path" fill="#E0E0E0" fill-rule="nonzero" x="257" y="47" width="47" height="1" rx="0.5"></rect>
            <rect id="Rectangle-path" fill="#E0E0E0" fill-rule="nonzero" x="257" y="50" width="47" height="1" rx="0.5"></rect>
            <rect id="Rectangle-path" fill="#E0E0E0" fill-rule="nonzero" x="257" y="53" width="47" height="1" rx="0.5"></rect>
            <rect id="Rectangle-path" fill="#E0E0E0" fill-rule="nonzero" x="257" y="56" width="27" height="1" rx="0.5"></rect>
            <rect id="Rectangle-path" fill="#E0E0E0" fill-rule="nonzero" x="257" y="60" width="47" height="1" rx="0.5"></rect>
            <rect id="Rectangle-path" fill="#E0E0E0" fill-rule="nonzero" x="257" y="62" width="47" height="1" rx="0.5"></rect>
            <rect id="Rectangle-path" fill="#E0E0E0" fill-rule="nonzero" x="257" y="66" width="47" height="1" rx="0.5"></rect>
            <rect id="Rectangle-path" fill="#E0E0E0" fill-rule="nonzero" x="257" y="68" width="27" height="1" rx="0.5"></rect>
            <rect id="Rectangle-path" fill="url(#linearGradient-7)" fill-rule="nonzero" x="329" y="34" width="29" height="28"></rect>
            <rect id="Rectangle-path" fill="#F5F5F5" fill-rule="nonzero" x="329" y="35" width="29" height="27"></rect>
            <g id="Group" opacity="0.5" transform="translate(337.000000, 38.000000)" fill="url(#linearGradient-8)" fill-rule="nonzero">
                <path d="M8.53178772,1.51592334 L8.53178772,0.0708885017 L3.67445725,0.0708885017 L3.67445725,1.51592334 L0.271809166,1.51592334 L0.271809166,8.60477352 L11.9294023,8.60477352 L11.9294023,1.51592334 L8.53178772,1.51592334 Z M4.27847762,0.594372822 L7.92273385,0.594372822 L7.92273385,1.51592334 L4.27847762,1.51592334 L4.27847762,0.594372822 Z" id="Shape"></path>
            </g>
            <rect id="Rectangle-path" fill="#3B84D1" fill-rule="nonzero" opacity="0.6" x="338" y="40" width="11" height="6"></rect>
            <polygon id="Shape" fill="#3B84D1" fill-rule="nonzero" opacity="0.6" points="341 39 341 41 341.627828 41 341.627828 39.5695793 345.372172 39.5695793 345.372172 41 346 41 346 39"></polygon>
            <g id="Group" opacity="0.6" transform="translate(338.000000, 51.000000)" fill="#3B84D1" fill-rule="nonzero">
                <rect id="Rectangle-path" x="0.403519164" y="0.234477352" width="10.7205226" height="1.44503484"></rect>
            </g>
            <rect id="Rectangle-path" fill="#BDBDBD" fill-rule="nonzero" x="335" y="53" width="18" height="1"></rect>
            <g id="Group" opacity="0.5" transform="translate(372.000000, 9.000000)" fill="url(#linearGradient-9)" fill-rule="nonzero">
                <rect id="Rectangle-path" x="0.0521238983" y="0.0209835487" width="64.0289967" height="75.7086438"></rect>
            </g>
            <rect id="Rectangle-path" fill="#FFFFFF" fill-rule="nonzero" x="374" y="11" width="61" height="73"></rect>
            <g id="Group" opacity="0.5" transform="translate(396.000000, 20.000000)" fill="url(#linearGradient-10)" fill-rule="nonzero">
                <path d="M11.5463434,2.42111498 L11.5463434,0.518031359 L5.02126887,0.518031359 L5.02126887,2.42111498 L0.448051684,2.42111498 L0.448051684,11.7620383 L16.1298606,11.7620383 L16.1298606,2.42111498 L11.5463434,2.42111498 Z M5.82982191,1.21055749 L10.7326403,1.21055749 L10.7326403,2.42111498 L5.82982191,2.42111498 L5.82982191,1.21055749 Z" id="Shape"></path>
            </g>
            <rect id="Rectangle-path" fill="#3B84D1" fill-rule="nonzero" x="397" y="22" width="15" height="8"></rect>
            <polygon id="Shape" fill="#3B84D1" fill-rule="nonzero" points="401 21 401 23 401.749354 23 401.749354 21.5714286 406.250646 21.5714286 406.250646 23 407 23 407 21"></polygon>
            <rect id="Rectangle-path" fill="#E0E0E0" fill-rule="nonzero" x="383" y="42" width="43" height="2"></rect>
            <rect id="Rectangle-path" fill="#E0E0E0" fill-rule="nonzero" x="383" y="54" width="43" height="2"></rect>
            <rect id="Rectangle-path" fill="#E0E0E0" fill-rule="nonzero" x="383" y="58" width="43" height="2"></rect>
            <rect id="Rectangle-path" fill="#E0E0E0" fill-rule="nonzero" x="383" y="51" width="18" height="2"></rect>
            <rect id="Rectangle-path" fill="#3AD29F" fill-rule="nonzero" opacity="0.6" x="412" y="51" width="14" height="2"></rect>
            <rect id="Rectangle-path" fill="#3B84D1" fill-rule="nonzero" x="398" y="65" width="14" height="2"></rect>
            <g id="Group" opacity="0.5" transform="translate(334.000000, 106.000000)" fill="url(#linearGradient-11)" fill-rule="nonzero">
                <rect id="Rectangle-path" x="0.223039432" y="0.508087723" width="37.8596469" height="31.7290198"></rect>
            </g>
            <rect id="Rectangle-path" fill="#F2F2F2" fill-rule="nonzero" x="335" y="107" width="37" height="30"></rect>
            <rect id="Rectangle-path" fill="#3B84D1" fill-rule="nonzero" x="335" y="107" width="37" height="7"></rect>
            <rect id="Rectangle-path" fill="#000000" fill-rule="nonzero" opacity="0.1" x="335" y="107" width="37" height="7"></rect>
            <rect id="Rectangle-path" fill="#E0E0E0" fill-rule="nonzero" x="338" y="116" width="31" height="4"></rect>
            <rect id="Rectangle-path" fill="#E0E0E0" fill-rule="nonzero" x="338" y="123" width="23" height="1"></rect>
            <rect id="Rectangle-path" fill="#E0E0E0" fill-rule="nonzero" x="338" y="125" width="15" height="1"></rect>
            <rect id="Rectangle-path" fill="#E0E0E0" fill-rule="nonzero" x="338" y="127" width="20" height="1"></rect>
            <rect id="Rectangle-path" fill="#E0E0E0" fill-rule="nonzero" x="338" y="130" width="23" height="1"></rect>
            <rect id="Rectangle-path" fill="#E0E0E0" fill-rule="nonzero" x="338" y="132" width="8" height="1"></rect>
            <g id="Group" opacity="0.5" transform="translate(310.000000, 94.000000)" fill="url(#linearGradient-12)" fill-rule="nonzero">
                <rect id="Rectangle-path" x="0.382143554" y="0.503749793" width="47.3543916" height="38.5861955"></rect>
            </g>
            <rect id="Rectangle-path" fill="#FFFFFF" fill-rule="nonzero" x="311" y="95" width="46" height="37"></rect>
            <rect id="Rectangle-path" fill="#3B84D1" fill-rule="nonzero" x="311" y="95" width="46" height="8"></rect>
            <rect id="Rectangle-path" fill="#F5F5F5" fill-rule="nonzero" x="314" y="107" width="39" height="5"></rect>
            <rect id="Rectangle-path" fill="#E0E0E0" fill-rule="nonzero" x="314" y="115" width="28" height="2"></rect>
            <rect id="Rectangle-path" fill="#E0E0E0" fill-rule="nonzero" x="314" y="118" width="18" height="2"></rect>
            <rect id="Rectangle-path" fill="#E0E0E0" fill-rule="nonzero" x="314" y="121" width="24" height="2"></rect>
            <rect id="Rectangle-path" fill="#E0E0E0" fill-rule="nonzero" x="314" y="124" width="28" height="2"></rect>
            <rect id="Rectangle-path" fill="#E0E0E0" fill-rule="nonzero" x="314" y="127" width="9" height="2"></rect>
            <rect id="Rectangle-path" fill="#69F0AE" fill-rule="nonzero" x="316" y="108" width="11" height="1"></rect>
            <circle id="Oval" fill="#535461" fill-rule="nonzero" opacity="0.1" cx="245.5" cy="191.5" r="6.5"></circle>
            <circle id="Oval" fill="#535461" fill-rule="nonzero" opacity="0.1" cx="257.5" cy="170.5" r="6.5"></circle>
        </g>
    </g>
</svg>