<?xml version="1.0" encoding="UTF-8"?>
<svg width="497px" height="286px" viewBox="0 0 497 286" version="1.1" xmlns="http://www.w3.org/2000/svg" xmlns:xlink="http://www.w3.org/1999/xlink">
    <!-- Generator: Sketch 49.2 (51160) - http://www.bohemiancoding.com/sketch -->
    <title>插图2</title>
    <desc>Created with Sketch.</desc>
    <defs>
        <linearGradient x1="49.9999955%" y1="99.9890645%" x2="49.9999955%" y2="-0.00273388376%" id="linearGradient-1">
            <stop stop-color="#808080" stop-opacity="0.25" offset="0%"></stop>
            <stop stop-color="#808080" stop-opacity="0.12" offset="54%"></stop>
            <stop stop-color="#808080" stop-opacity="0.1" offset="100%"></stop>
        </linearGradient>
        <linearGradient x1="87833%" y1="64377%" x2="87833%" y2="17507%" id="linearGradient-2">
            <stop stop-color="#808080" stop-opacity="0.25" offset="0%"></stop>
            <stop stop-color="#808080" stop-opacity="0.12" offset="54%"></stop>
            <stop stop-color="#808080" stop-opacity="0.1" offset="100%"></stop>
        </linearGradient>
    </defs>
    <g id="切图" stroke="none" stroke-width="1" fill="none" fill-rule="evenodd">
        <g id="插图2">
            <path d="M123.122829,187.284624 C93.1248362,176.919506 58.8258138,168.145821 30.7989099,183.040802 C27.2467897,184.928679 23.7466772,187.305427 21.832797,190.841945 C16.7776567,200.146107 24.8128333,212.211874 20.8966599,222.046514 C16.9804864,231.881154 2.24152822,236.832279 3.4481049,247.337817 C3.76535136,250.08382 5.25276916,252.569784 7.0054258,254.712497 C17.9842334,268.125261 38.1111806,269.48266 55.1228716,266.154173 C72.1345626,262.825685 88.7717988,255.924275 106.090335,256.792802 C122.732772,257.650928 138.043814,265.634097 153.292446,272.35348 C178.999811,283.711944 209.023807,291.861537 234.710368,280.445865 C246.479692,275.213899 256.210317,266.304995 267.475166,260.084884 C282.656084,251.779621 300.105889,248.577755 317.246454,250.952347 C328.688129,252.564583 339.609729,256.621177 350.806968,259.419186 C376.238692,265.769316 402.783379,265.561286 428.990017,265.311649 C433.868331,265.264842 438.824657,265.207634 443.500141,263.81383 C450.422355,261.733525 456.132791,256.943624 461.629996,252.257738 C468.853854,246.105237 476.462568,239.344247 478.792509,230.1441 C481.543712,219.222501 475.848878,207.614401 467.402841,200.192914 C458.956805,192.771427 448.160024,188.714833 437.623281,184.803861 C435.0229,183.846921 432.245693,182.874378 429.582903,183.597284 C427.835448,184.075754 426.363632,185.240725 425.058241,186.494108 C417.579546,193.691962 411.26062,205.866945 401.061927,203.911459 C397.421394,203.214556 394.441358,200.681786 391.560136,198.341443 C376.176283,185.859615 355.482453,176.222604 336.915734,183.118814 C323.336546,188.163553 313.751542,201.11865 299.990327,205.690119 C290.202494,208.945796 279.566937,207.536389 269.269429,208.170882 C254.291236,209.086216 239.713501,214.380592 224.714505,214.058144 C186.468104,213.236424 154.603038,176.664669 116.512661,180.149179 C113.527424,180.419619 110.271747,181.106119 108.441079,183.467265" id="Shape" fill="#3B84D1" fill-rule="nonzero" opacity="0.5"></path>
            <path d="M74.8909662,152.49673 C74.8909662,152.49673 43.1091124,171.682339 101.716494,201.233066 C101.716494,201.233066 114.629985,177.257556 100.353895,157.707893 C94.6198482,149.824068 83.8960321,147.473765 75.3902393,152.236692 L74.8909662,152.49673 Z" id="Shape" fill="#3B84D1" fill-rule="nonzero"></path>
            <path d="M75.2706218,152.096271 C75.2706218,152.096271 102.481006,172.899317 101.721695,201.217464" id="Shape" stroke="#535461"></path>
            <path d="M476.987845,136.51479 C483.426388,160.058637 455.961166,227.132859 455.961166,227.132859 C455.961166,227.132859 398.170304,183.378852 391.72656,159.835004 C387.138159,144.468384 391.231844,127.821951 402.423813,116.336034 C413.615781,104.850116 430.150514,100.326339 445.630902,104.514903 C461.111289,108.703467 473.109151,120.947375 476.982644,136.509589 L476.987845,136.51479 Z" id="Shape" fill="#3B84D1" fill-rule="nonzero"></path>
            <path d="M476.987845,136.51479 C483.426388,160.058637 455.961166,227.132859 455.961166,227.132859 C455.961166,227.132859 398.170304,183.378852 391.72656,159.835004 C387.138159,144.468384 391.231844,127.821951 402.423813,116.336034 C413.615781,104.850116 430.150514,100.326339 445.630902,104.514903 C461.111289,108.703467 473.109151,120.947375 476.982644,136.509589 L476.987845,136.51479 Z" id="Shape" fill="#000000" fill-rule="nonzero" opacity="0.1"></path>
            <path d="M422.931129,105.679475 C422.931129,105.679475 458.904797,159.985827 456.216003,227.262878" id="Shape" stroke="#535461"></path>
            <path d="M486.167189,179.545891 C486.167189,179.545891 453.548013,161.800892 457.677417,227.304484 C457.677417,227.304484 484.887802,226.331942 494.545616,204.135091 C498.454282,195.199654 495.059955,184.752994 486.645659,179.821531 L486.167189,179.545891 Z" id="Shape" fill="#3B84D1" fill-rule="nonzero"></path>
            <path d="M486.702867,179.660307 C486.702867,179.660307 482.490251,213.662886 457.677417,227.304484" id="Shape" stroke="#535461"></path>
            <path d="M8.61246111,172.244022 C8.61246111,172.244022 -23.184995,191.42443 35.4275876,220.959555 C35.4275876,220.959555 48.3410785,196.984044 34.0649881,177.434382 C28.3309416,169.550557 17.6071255,167.200254 9.1013327,171.96318 L8.61246111,172.244022 Z" id="Shape" fill="#3B84D1" fill-rule="nonzero"></path>
            <path d="M8.97651442,171.843563 C8.97651442,171.843563 36.1868988,192.646609 35.4275876,220.964756" id="Shape" stroke="#535461"></path>
            <path d="M405.362957,197.212878 L371.948064,197.212878 C372.716913,195.666557 373.115735,193.962662 373.113035,192.235749 L373.113035,40.0822692 C373.113035,33.9039491 368.104517,28.8954311 361.926196,28.8954311 L103.276723,28.8954311 C97.0984026,28.8954311 92.0898846,33.9039491 92.0898846,40.0822692 L92.0898846,192.24095 C92.0871845,193.967863 92.4860063,195.671758 93.2548552,197.218078 L58.6593894,197.218078 C57.8718412,197.218067 57.1167745,197.531984 56.5613599,198.090327 C56.0059453,198.64867 55.6960038,199.405377 55.7001561,200.192914 L55.7001561,202.580064 C55.7001561,211.719726 63.1093166,219.128887 72.2489793,219.128887 L391.773367,219.128887 C396.162388,219.128887 400.371646,217.385355 403.475152,214.281849 C406.578658,211.178342 408.32219,206.969084 408.32219,202.580064 L408.32219,200.192914 C408.327733,199.404478 408.018406,198.64643 407.46284,198.086959 C406.907274,197.527488 406.151412,197.212858 405.362957,197.212878 Z M199.470008,206.678264 L196.588786,203.427788 L267.724803,203.427788 L264.552338,206.683464 L199.470008,206.678264 Z" id="Shape" fill="url(#linearGradient-1)" fill-rule="nonzero"></path>
            <rect id="Rectangle-path" fill="#535461" fill-rule="nonzero" x="95.2571484" y="31.0485464" width="274.662619" height="170.579778" rx="23.26"></rect>
            <rect id="Rectangle-path" fill="#FFFFFF" fill-rule="nonzero" x="101.040395" y="55.9133873" width="262.51884" height="139.354406"></rect>
            <circle id="Oval" fill="#FFFFFF" fill-rule="nonzero" cx="232.302416" cy="43.7696091" r="2.31433889"></circle>
            <path d="M272.83195,195.553835 L263.81383,204.80599 L200.229319,204.80599 L192.079726,195.553835 L62.5859644,195.553835 C60.9889649,195.553835 59.694341,196.848459 59.694341,198.445458 L59.694341,200.775399 C59.694341,209.708256 66.9358524,216.949768 75.8687094,216.949768 L388.153637,216.949768 C392.443346,216.949768 396.55736,215.245687 399.590643,212.212405 C402.623925,209.179122 404.328005,205.065109 404.328005,200.775399 L404.328005,198.445458 C404.328005,196.848459 403.033381,195.553835 401.436382,195.553835 L272.83195,195.553835 Z" id="Shape" fill="#535461" fill-rule="nonzero"></path>
            <polyline id="Shape" stroke="#535461" stroke-width="2" points="134.580106 64.5882576 134.580106 183.124015 330.596809 183.124015"></polyline>
            <rect id="Rectangle-path" fill="#3B84D1" fill-rule="nonzero" opacity="0.5" x="151.924646" y="147.275165" width="20.2361632" height="31.2253723"></rect>
            <rect id="Rectangle-path" fill="#3B84D1" fill-rule="nonzero" opacity="0.7" x="186.618926" y="119.518701" width="20.2361632" height="58.9818366"></rect>
            <rect id="Rectangle-path" fill="#3B84D1" fill-rule="nonzero" opacity="0.5" x="221.313207" y="136.285956" width="20.2361632" height="42.2093807"></rect>
            <rect id="Rectangle-path" fill="#3B84D1" fill-rule="nonzero" opacity="0.8" x="256.007487" y="110.266546" width="20.2361632" height="68.2339914"></rect>
            <rect id="Rectangle-path" fill="#3B84D1" fill-rule="nonzero" x="290.701767" y="85.9789898" width="20.2361632" height="92.5163471"></rect>
            <polyline id="Shape" stroke="#535461" stroke-width="2" points="161.754085 128.193571 197.02565 96.3909144 231.719931 126.456517 265.836926 90.0303831 300.531206 75.572266"></polyline>
            <circle id="Oval" fill="#3B84D1" fill-rule="nonzero" cx="161.754085" cy="128.193571" r="4.04619248"></circle>
            <circle id="Oval" fill="#3B84D1" fill-rule="nonzero" cx="231.142646" cy="125.879232" r="4.04619248"></circle>
            <circle id="Oval" fill="#3B84D1" fill-rule="nonzero" cx="266.414211" cy="90.0303831" r="4.04619248"></circle>
            <circle id="Oval" fill="#3B84D1" fill-rule="nonzero" cx="197.02565" cy="95.8084291" r="4.04619248"></circle>
            <circle id="Oval" fill="#3B84D1" fill-rule="nonzero" cx="300.531206" cy="75.572266" r="4.04619248"></circle>
            <path d="M451.067249,200.619376 C448.934937,199.917274 445.772874,199.105955 443.266107,199.391997 C440.878957,198.52347 435.267336,196.27154 431.434374,192.880643 C431.544894,189.546572 431.459802,186.208888 431.179537,182.88478 C429.21885,160.589115 433.629096,145.891763 433.629096,145.891763 C433.629096,145.891763 437.092803,134.678921 436.713147,125.374758 C436.93678,125.79602 437.061598,126.045657 437.061598,126.045657 C437.363243,118.020882 440.098843,109.715265 442.147943,104.540508 C442.226084,104.51819 442.302552,104.490383 442.376777,104.457296 L444.665112,99.0277005 C444.847437,98.7109896 444.992298,98.3741432 445.096775,98.0239535 L445.466029,97.1658279 L445.356813,97.119021 C445.393218,96.9786005 445.429624,96.8277784 445.466029,96.6769563 C446.927443,90.4932508 448.06641,75.8271033 448.06641,75.8271033 C451.987784,60.391243 442.678421,50.8634479 442.678421,50.8634479 L426.878507,37.2686572 C426.957153,37.4456298 427.009708,37.6330757 427.03453,37.8251387 L426.904511,37.7107219 C426.680878,37.0710283 426.436443,36.3065163 426.197208,35.4327884 C426.754495,35.0326242 427.276479,34.5854576 427.757436,34.0961927 C429.553884,32.3996507 430.789538,30.19507 431.299155,27.7772674 C431.605553,25.8865311 431.684125,23.9658751 431.533189,22.0564297 L431.273151,15.4982694 C431.261336,14.2147781 431.13076,12.9351345 430.883094,11.6757097 C429.692119,6.47494812 424.361339,2.83441504 419.009755,2.59518001 C417.307006,2.58526509 415.605148,2.67556773 413.913009,2.86561961 C412.529208,2.97930198 411.13978,3.00882733 409.7524,2.95403256 C409.594419,2.96240175 409.437846,2.92052758 409.305134,2.83441504 C409.184695,2.71428594 409.11569,2.55203009 409.112706,2.38194879 C409.05749,1.76684012 409.256727,1.15597197 409.663987,0.691701285 C409.873315,0.508097076 410.117372,0.368383526 410.381692,0.280841123 L410.002036,0.369254069 C410.189166,0.221652558 410.400268,0.107305463 410.626128,0.0312045693 C409.238908,0.275108924 407.904859,0.759097613 406.68395,1.46141399 C406.347554,1.68242493 406.038552,1.94254544 405.763416,2.23632746 C405.036196,2.87442851 404.563482,3.75338084 404.432021,4.71188996 C403.780477,4.16174606 403.294374,3.44159396 403.027815,2.63158534 C402.945023,2.30036475 402.945023,1.95385819 403.027815,1.6226376 C402.934201,1.73705436 402.844055,1.85493828 402.757375,1.97628939 C402.757375,1.93988406 402.757375,1.90347872 402.757375,1.86707339 C401.752319,3.10248059 401.040992,4.55003208 400.677071,6.10049329 C400.394318,5.76134685 400.259427,5.32295126 400.302616,4.88351509 C400.224604,5.12795088 400.151794,5.37238667 400.084184,5.61682247 C400.060567,5.45472097 400.060567,5.29005237 400.084184,5.12795088 C399.471821,7.00291597 399.195402,8.97129574 399.267664,10.9424023 C399.267664,12.9082901 400.141392,15.9715387 402.247701,16.66324 C402.356917,16.6996453 402.466133,16.7256491 402.580549,16.7516529 C400.174399,20.4894594 399.806971,25.1860263 401.602565,29.2525484 C403.398159,33.3190705 407.116555,36.2115211 411.499855,36.9514108 C411.534527,37.1906458 411.567465,37.4420159 411.59867,37.7055212 L411.681882,37.7055212 C411.739091,38.2255973 411.785897,38.7976811 411.817102,39.3801664 C411.285522,39.9009795 410.703664,40.3678599 410.080048,40.7739705 C408.311836,41.8192405 406.339484,42.4719614 404.296801,42.6878507 C401.857491,42.8792392 399.487006,43.5884345 397.343383,44.7681554 C394.821013,46.1775617 392.038606,48.2318625 391.164878,50.7282281 C389.708665,54.8888373 381.68909,61.3637854 376.311503,62.1699035 L374.397623,62.0606875 L374.257202,62.0190814 L374.257202,62.0554867 L373.789134,62.0294829 L373.76313,62.0294829 L373.638311,62.0294829 L373.638311,62.0554867 L373.154641,62.0294829 C373.154641,62.0294829 373.107834,62.2531157 373.040224,62.6483735 C370.335828,61.7174372 364.588986,59.1378595 357.110291,52.3508657 C348.789073,44.7941592 337.529424,46.281577 333.186788,47.2333163 C332.884267,47.3000568 332.654803,47.5473375 332.61083,47.8539966 C332.566856,48.1606556 332.717583,48.4624543 332.989159,48.6115181 C334.741816,49.573659 337.456613,50.9726639 338.709997,51.1286867 C338.709997,51.1286867 336.109616,53.848685 338.876421,55.289296 C339.553144,55.6164831 340.355949,55.5382095 340.956726,55.0864663 C342.298522,54.1035223 346.027468,56.3294483 351.43106,57.4892181 C351.43106,57.4892181 366.679693,73.2683286 374.252001,75.6918835 C374.426485,76.0364709 374.619186,76.3715271 374.829286,76.6956305 L375.297354,76.6592251 L375.297354,76.6956305 L375.494983,76.6956305 L375.552192,77.2157066 C375.552192,77.2157066 387.326716,76.596816 391.154476,72.32179 C391.425492,72.0791371 391.674377,71.812848 391.898185,71.5260735 L387.805186,123.013613 L387.841591,123.013613 L387.805186,123.502484 L390.816427,123.502484 C391.074099,129.834854 390.800972,136.177681 389.999907,142.464461 L389.999907,176.030176 C389.999907,176.030176 389.843884,178.984208 395.980783,183.311242 C402.415194,187.790914 408.615706,192.597525 414.557903,197.712151 L415.301612,198.357045 C414.173047,208.628549 411.811901,227.772552 409.840813,228.485057 L411.057791,228.698288 C408.977486,231.335074 403.069421,238.579735 401.269958,238.772163 C399.064835,239.016599 397.593019,242.449102 401.269958,243.182409 C408.611757,244.453302 416.16079,243.709183 423.113156,241.029294 C424.54001,240.466372 425.398599,239.002476 425.193461,237.482374 L424.480956,232.073582 C424.615851,232.14855 424.7247,232.262841 424.793002,232.40123 C425.281874,233.873046 424.793002,230.440543 424.793002,230.440543 C426.807752,223.964976 428.390528,217.362838 429.530896,210.677649 L436.811962,216.970571 C436.811962,216.970571 436.957583,216.788544 437.212421,216.450495 C438.996282,220.496687 442.179148,228.776299 441.466644,234.840387 C440.4889,243.161606 449.787862,235.818131 448.81532,230.919013 C448.024804,226.956033 451.561322,210.157573 452.939523,203.875053 C453.247214,202.469569 452.436785,201.060322 451.067249,200.619376 Z" id="Shape" fill="url(#linearGradient-2)" fill-rule="nonzero"></path>
            <path d="M374.974907,64.7078751 C374.974907,64.7078751 368.037091,63.5117 357.749985,54.1815337 C349.610793,46.8016531 338.631986,48.2526656 334.398566,49.1836019 C334.10312,49.2474487 333.878588,49.4883698 333.835679,49.7875742 C333.792769,50.0867786 333.940543,50.3810924 334.206137,50.5253984 C335.917188,51.4615355 338.569576,52.8293357 339.812558,52.9853586 C339.812558,52.9853586 337.248583,55.637747 339.973782,57.0575549 C340.639246,57.3843885 341.432148,57.3079157 342.022882,56.8599259 C343.333474,55.9029858 346.974007,58.0769041 352.25278,59.2054694 C352.25278,59.2054694 372.826993,80.4973871 377.611693,76.8880586 L374.974907,64.7078751 Z" id="Shape" fill="#FEC3BE" fill-rule="nonzero"></path>
            <path d="M410.397294,35.7604364 C410.397294,35.7604364 412.311174,43.8944274 410.397294,49.6360682 L419.009755,50.8322433 L426.665276,47.0044828 L426.665276,41.9805472 C426.665276,41.9805472 423.076751,34.3250262 424.033691,25.47333 L410.397294,35.7604364 Z" id="Shape" fill="#FEC3BE" fill-rule="nonzero"></path>
            <path d="M434.783665,212.066253 C434.783665,212.066253 441.024579,224.267239 440.046836,232.40123 C439.069092,240.535221 448.180827,233.35817 447.223887,228.57347 C446.448973,224.704103 449.902279,208.2905 451.249276,202.184806 C451.551706,200.81795 450.769323,199.444282 449.439411,199.00714 C446.56339,198.060602 441.747485,196.900832 439.329131,198.674292 C435.756207,201.300676 434.783665,212.066253 434.783665,212.066253 Z" id="Shape" fill="#8B416F" fill-rule="nonzero"></path>
            <path d="M411.114999,225.463414 C411.114999,225.463414 402.981008,235.989756 400.827893,236.228991 C398.674778,236.468226 397.239367,239.817516 400.827893,240.535221 C407.992963,241.782287 415.362091,241.063348 422.151015,238.454917 C423.549249,237.90948 424.393435,236.478875 424.194914,234.99121 L422.821913,224.745709 L411.114999,225.463414 Z" id="Shape" fill="#8B416F" fill-rule="nonzero"></path>
            <path d="M397.717837,113.745856 L389.916695,114.786008 C390.987433,123.897772 390.956002,133.105382 389.823081,142.209624 L389.823081,174.974421 C389.823081,174.974421 389.672259,177.860844 395.663537,182.057859 C401.946174,186.425614 408.000865,191.112445 413.803793,196.099915 L435.511772,214.905868 C435.511772,214.905868 444.124233,204.379527 442.928057,198.159416 C442.928057,198.159416 428.573956,193.613951 426.660075,186.197665 C425.562715,181.953843 419.9979,178.396522 415.442033,176.160195 C409.541211,173.294588 406.434523,166.704512 407.97894,160.329077 C408.244983,159.253818 408.65615,158.219776 409.201119,157.255427 C413.028879,150.556846 418.531285,135.485039 418.531285,135.485039 L408.004944,115.420501 L397.717837,113.745856 Z" id="Shape" fill="#4D4981" fill-rule="nonzero"></path>
            <path d="M397.717837,113.745856 L389.916695,114.786008 C390.987433,123.897772 390.956002,133.105382 389.823081,142.209624 L389.823081,174.974421 C389.823081,174.974421 389.672259,177.860844 395.663537,182.057859 C401.946174,186.425614 408.000865,191.112445 413.803793,196.099915 L435.511772,214.905868 C435.511772,214.905868 444.124233,204.379527 442.928057,198.159416 C442.928057,198.159416 428.573956,193.613951 426.660075,186.197665 C425.562715,181.953843 419.9979,178.396522 415.442033,176.160195 C409.541211,173.294588 406.434523,166.704512 407.97894,160.329077 C408.244983,159.253818 408.65615,158.219776 409.201119,157.255427 C413.028879,150.556846 418.531285,135.485039 418.531285,135.485039 L408.004944,115.420501 L397.717837,113.745856 Z" id="Shape" fill="#000000" fill-rule="nonzero" opacity="0.05"></path>
            <path d="M409.201119,226.196722 C409.201119,226.196722 423.315986,228.589072 423.794456,230.024482 C424.272926,231.459892 423.794456,228.110602 423.794456,228.110602 C423.794456,228.110602 431.928447,203.469394 430.03537,181.704207 C428.142292,159.93902 432.42772,145.579717 432.42772,145.579717 C432.42772,145.579717 437.451656,129.311735 434.580835,119.981569 C431.710015,110.651403 401.566401,114.718398 401.566401,114.718398 C401.566401,114.718398 412.092742,139.359606 411.853507,151.082123 C411.853507,151.082123 413.049682,186.488907 415.202798,190.555903 C415.181995,190.5351 411.832704,225.224179 409.201119,226.196722 Z" id="Shape" fill="#4D4981" fill-rule="nonzero"></path>
            <path d="M410.860162,41.9805472 C410.860162,41.9805472 412.295572,50.8218418 426.649674,47.0044828 L417.101076,119.726731 C417.101076,119.726731 389.349812,120.683672 389.589047,117.334381 L395.309885,73.3203362 L410.860162,41.9805472 Z" id="Shape" fill="#FFFFFF" fill-rule="nonzero"></path>
            <path d="M411.234617,41.5020771 C409.365384,43.3422666 406.930279,44.4984377 404.322805,44.7837576 C401.941107,44.9662884 399.625636,45.6541924 397.53061,46.8016531 C395.07065,48.1798549 392.329848,50.1821481 391.497727,52.6213053 C389.823081,57.4060059 379.29674,65.3007619 374.512039,63.6261167 L376.186685,77.9802186 C376.186685,77.9802186 389.823081,77.2625135 392.215432,71.9993428 L388.153637,123.221643 L391.742162,123.221643 C391.742162,123.221643 393.656043,109.346011 395.091453,106.475191 C396.526863,103.604371 399.397683,87.8148586 399.636918,83.9870981 C399.876153,80.1593376 403.464679,58.1497148 406.574734,54.3427574 L411.25542,42.9790934 L411.234617,41.5020771 Z" id="Shape" fill="#000000" fill-rule="nonzero" opacity="0.1"></path>
            <path d="M411.234617,42.2197822 C409.096632,43.8921612 406.540067,44.9446525 403.844335,45.2622277 C401.463639,45.4487003 399.149971,46.1401413 397.057341,47.2905247 C394.59738,48.6687265 391.856579,50.6710197 391.024457,53.1101769 C389.349812,57.8948775 378.823471,65.7896335 374.03877,64.1149883 L375.713415,78.4690901 C375.713415,78.4690901 389.349812,77.7513851 391.742162,72.4882144 L387.675167,123.67931 L391.263692,123.67931 C391.263692,123.67931 393.177573,109.803678 394.612983,106.932858 C396.048393,104.062038 398.919213,88.2725257 399.158448,84.4447652 C399.397683,80.6170047 402.986209,58.6073818 406.096264,54.8004244 L411.234617,43.6499916 L411.234617,42.2197822 Z" id="Shape" fill="#000000" fill-rule="nonzero" opacity="0.1"></path>
            <path d="M411.234617,41.7413121 C409.096632,43.4136911 406.540067,44.4661825 403.844335,44.7837576 C401.462637,44.9662884 399.147166,45.6541924 397.05214,46.8016531 C394.59218,48.1798549 391.851378,50.1821481 391.019257,52.6213053 C389.344611,57.4060059 378.81827,65.3007619 374.033569,63.6261167 L375.708215,77.9802186 C375.708215,77.9802186 389.344611,77.2625135 391.736962,71.9993428 L387.675167,123.221643 L391.263692,123.221643 C391.263692,123.221643 393.177573,109.346011 394.612983,106.475191 C396.048393,103.604371 398.919213,87.8148586 399.158448,83.9870981 C399.397683,80.1593376 402.986209,58.1497148 406.096264,54.3427574 L411.239817,43.2183284 L411.234617,41.7413121 Z" id="Shape" fill="#FD6F8D" fill-rule="nonzero"></path>
            <path d="M423.435603,32.5307634 C423.123558,30.2632314 423.747649,28.8486243 424.033691,26.1910351 L410.397294,36.4781415 C410.397294,36.4781415 410.724942,37.8667448 410.974579,39.9002426 C411.662434,40.0113697 412.358109,40.0670237 413.054883,40.0666669 C417.787576,40.0666669 421.194075,36.3689255 423.435603,32.5307634 Z" id="Shape" fill="#000000" fill-rule="nonzero" opacity="0.1"></path>
            <circle id="Oval" fill="#FEC3BE" fill-rule="nonzero" cx="413.028879" cy="26.4354709" r="12.9186917"></circle>
            <path d="M398.929615,13.7716166 C398.846743,11.5929998 399.200395,9.4198083 399.969767,7.37988063 C399.527806,8.04356179 399.643246,8.93156384 400.240207,9.46018525 C400.656651,7.23691231 401.797847,5.21421574 403.485482,3.70814298 C402.564947,3.85896506 402.091678,4.99793184 402.320511,5.90286435 C402.631364,6.78675369 403.184662,7.56533526 403.917145,8.14959334 C403.839134,6.78179305 404.744066,5.50240571 405.888234,4.75349605 C407.080327,4.06873971 408.382683,3.59707558 409.736797,3.35969196 C408.781989,3.69862493 408.17543,4.63836374 408.259781,5.64802703 C408.263814,5.81483926 408.332866,5.97347349 408.452209,6.09009177 C408.582169,6.1732371 408.735042,6.21327523 408.889073,6.20450852 C410.236622,6.25644239 411.586077,6.22691762 412.930065,6.11609557 C414.582468,5.93011937 416.244384,5.8415533 417.907194,5.85085673 C423.107955,6.06928872 428.334721,9.62140885 429.499691,14.6921514 C429.741121,15.9224965 429.868215,17.1725383 429.879347,18.4262981 L430.134184,24.8284356 C430.282184,26.6962104 430.205356,28.5750001 429.905351,30.424455 C429.176028,33.8813004 426.943264,36.832896 423.815259,38.4752339 C421.937784,35.7552356 421.77136,32.2603238 421.121264,29.0202494 C421.01868,28.2725322 420.74067,27.5596875 420.309946,26.9399448 C419.854087,26.3118669 419.050945,26.040676 418.307652,26.2638458 C417.60555,26.5446869 417.303905,27.6160438 417.886391,28.0945139 C417.366315,28.7082037 416.393772,28.2505367 415.806086,27.7044567 C414.164889,26.1475405 413.035039,24.1290456 412.566012,21.9160091 C412.331977,20.8030462 412.097943,19.4300451 411.005783,19.0503895 C410.630067,18.9471393 410.237405,18.9206081 409.851214,18.9723781 C407.573281,19.128401 404.010759,20.0697388 401.805636,19.3468329 C399.78254,18.6863362 398.929615,15.6906976 398.929615,13.7716166 Z" id="Shape" fill="#000000" fill-rule="nonzero" opacity="0.1"></path>
            <path d="M399.16885,13.5323815 C399.085978,11.3537648 399.43963,9.18057327 400.209002,7.1406456 C399.767041,7.80432676 399.882482,8.69232881 400.479442,9.22095021 C400.895886,6.99767728 402.037082,4.97498071 403.724717,3.46890795 C402.804182,3.61973003 402.330913,4.75869681 402.559746,5.66362932 C402.870599,6.54751866 403.423897,7.32610023 404.15638,7.91035831 C404.078369,6.54255802 404.983301,5.26317068 406.127469,4.51426102 C407.319562,3.82950467 408.621918,3.35784055 409.976032,3.12045693 C409.021224,3.4593899 408.414665,4.3991287 408.499016,5.408792 C408.503049,5.57560423 408.572101,5.73423845 408.691444,5.85085673 C408.821404,5.93400207 408.974277,5.9740402 409.128308,5.96527349 C410.475857,6.01720735 411.825312,5.98768259 413.1693,5.87686054 C414.821703,5.69088433 416.483619,5.60231827 418.146429,5.6116217 C423.34719,5.83005369 428.573956,9.38217382 429.738926,14.4529163 C429.980356,15.6832615 430.10745,16.9333033 430.118582,18.1870631 L430.373419,24.5892006 C430.521419,26.4569754 430.444591,28.3357651 430.144586,30.18522 C429.415263,33.6420654 427.182499,36.593661 424.054494,38.2359989 C422.177019,35.5160006 422.010595,32.0210888 421.360499,28.7810144 C421.257915,28.0332972 420.979905,27.3204524 420.549181,26.7007098 C420.093322,26.0726318 419.29018,25.8014409 418.546887,26.0246108 C417.844785,26.3054519 417.54314,27.3768088 418.125626,27.8552788 C417.60555,28.4689687 416.633007,28.0113017 416.045321,27.4652217 C414.404124,25.9083055 413.274274,23.8898106 412.805247,21.6767741 C412.571212,20.5638111 412.337178,19.1908101 411.245018,18.8111545 C410.869302,18.7079043 410.47664,18.6813731 410.090449,18.7331431 C407.812516,18.8891659 404.249994,19.8305038 402.044871,19.1075979 C400.021775,18.4419004 399.16885,15.4514625 399.16885,13.5323815 Z" id="Shape" fill="#784F69" fill-rule="nonzero"></path>
            <path d="M373.414679,63.6313175 C373.414679,63.6313175 371.500798,72.4726121 375.089324,77.9854193 L377.122822,77.818995 L376.015059,63.7769388 L373.414679,63.6313175 Z" id="Shape" fill="#000000" fill-rule="nonzero" opacity="0.1"></path>
            <path d="M373.934755,63.6313175 C373.934755,63.6313175 372.020875,72.4726121 375.6094,77.9854193 L377.642898,77.818995 L376.535136,63.7769388 L373.934755,63.6313175 Z" id="Shape" fill="#FD6F8D" fill-rule="nonzero"></path>
            <path d="M425.349483,39.4893824 L440.780143,52.7669266 C440.780143,52.7669266 449.871074,62.0970928 446.043314,77.1688998 C446.043314,77.1688998 444.368668,99.1785226 442.454788,100.135463 C442.454788,100.135463 435.756207,113.532624 435.277737,126.212081 C435.277737,126.212081 426.306424,108.149836 422.239428,119.154648 C418.172433,130.159459 408.717448,131.714487 408.717448,131.714487 L413.980619,66.6217554 C413.980619,66.6217554 427.263364,43.5355749 425.349483,39.4893824 Z" id="Shape" fill="#000000" fill-rule="nonzero" opacity="0.1"></path>
            <path d="M425.827954,39.4893824 L441.258613,52.7669266 C441.258613,52.7669266 450.349544,62.0970928 446.521784,77.1688998 C446.521784,77.1688998 444.847139,99.1785226 442.933258,100.135463 C442.933258,100.135463 436.234677,113.532624 435.756207,126.212081 C435.756207,126.212081 426.306424,107.192896 422.234227,118.197708 C418.162031,129.202519 409.195918,131.719688 409.195918,131.719688 L414.459089,66.6529599 C414.459089,66.6529599 427.741834,43.5355749 425.827954,39.4893824 Z" id="Shape" fill="#FD6F8D" fill-rule="nonzero"></path>
            <path d="M432.885387,95.5691941 C432.885387,95.5691941 436.713147,92.9376088 442.933258,100.11466 L427.622216,127.865923 L422.478663,120.101186 C422.478663,120.101186 433.363857,98.6792495 432.885387,95.5691941 Z" id="Shape" fill="#FEC3BE" fill-rule="nonzero"></path>
            <path d="M429.177244,97.1242218 C429.177244,97.1242218 437.644084,106.631214 440.946567,105.107391 L444.004615,97.9875482 L432.526534,93.0572263 L429.177244,97.1242218 Z" id="Shape" fill="#000000" fill-rule="nonzero" opacity="0.1"></path>
            <path d="M429.177244,96.6457517 C429.177244,96.6457517 437.644084,106.152744 440.946567,104.628921 L444.004615,97.5090782 L432.526534,92.5787562 L429.177244,96.6457517 Z" id="Shape" fill="#FD6F8D" fill-rule="nonzero"></path>
            <path d="M422.998739,118.286121 C422.998739,118.286121 427.029329,126.54493 429.177244,127.0234 L426.056787,130.611925 L421.511321,121.999464 L422.998739,118.286121 Z" id="Shape" fill="#000000" fill-rule="nonzero" opacity="0.1"></path>
            <path d="M422.759504,118.540958 C422.759504,118.540958 426.790094,126.799767 428.938009,127.278237 L425.817552,130.866763 L421.261685,122.238699 L422.759504,118.540958 Z" id="Shape" fill="#4D4981" fill-rule="nonzero"></path>
            <path d="M430.373419,67.459078 C430.373419,67.459078 430.851889,84.6840002 428.938009,91.143346" id="Shape" fill="#000000" fill-rule="nonzero" opacity="0.1"></path>
            <path d="M391.617344,70.8083684 C391.617344,70.8083684 394.488164,69.8514283 394.488164,67.459078" id="Shape" fill="#000000" fill-rule="nonzero" opacity="0.1"></path>
            <path d="M43.0050972,73.6895903 C43.0050972,73.6895903 29.3687004,101.898521 38.3244118,135.282209 C47.2801232,168.665898 44.4353066,208.612947 35.505599,218.494394" id="Shape" stroke="#535461" stroke-width="2"></path>
            <circle id="Oval" fill="#3B84D1" fill-rule="nonzero" cx="43.0050972" cy="73.6947911" r="3.76015059"></circle>
            <path d="M37.3362671,91.8350473 C37.3362671,91.8350473 51.471937,94.3834205 55.2320876,89.2346665" id="Shape" stroke="#535461" stroke-width="2"></path>
            <path d="M35.9944706,100.026247 C35.9944706,100.026247 27.4912255,90.6180691 27.9592941,84.9752428" id="Shape" stroke="#535461" stroke-width="2"></path>
            <path d="M35.2715648,117.26157 C35.2715648,117.26157 43.0050972,119.300269 50.0625306,104.259667" id="Shape" stroke="#535461" stroke-width="2"></path>
            <path d="M37.3362671,129.795406 C37.3362671,129.795406 18.0934494,117.412393 20.4389929,109.424023" id="Shape" stroke="#535461" stroke-width="2"></path>
            <path d="M40.3423073,143.967481 C40.3423073,143.967481 53.8226812,132.005729 52.4132748,120.236406" id="Shape" stroke="#535461" stroke-width="2"></path>
            <path d="M41.808922,152.299101 C41.808922,152.299101 24.6464089,147.503999 25.1664851,139.983698" id="Shape" stroke="#535461" stroke-width="2"></path>
            <path d="M43.0050972,162.227355 C43.0050972,162.227355 53.8174804,152.210688 55.2268868,146.104994" id="Shape" stroke="#535461" stroke-width="2"></path>
            <path d="M43.7592076,179.259849 C43.7592076,179.259849 32.6659832,166.309953 32.1927139,159.730989" id="Shape" stroke="#535461" stroke-width="2"></path>
            <path d="M43.7592076,189.978618 C43.7592076,189.978618 56.1734254,176.186199 57.1095625,169.607235" id="Shape" stroke="#535461" stroke-width="2"></path>
            <circle id="Oval" fill="#3B84D1" fill-rule="nonzero" cx="27.9592941" cy="85.9165807" r="3.76015059"></circle>
            <circle id="Oval" fill="#3B84D1" fill-rule="nonzero" cx="23.7310749" cy="139.983698" r="3.76015059"></circle>
            <circle id="Oval" fill="#3B84D1" fill-rule="nonzero" cx="20.4389929" cy="109.424023" r="3.76015059"></circle>
            <circle id="Oval" fill="#3B84D1" fill-rule="nonzero" cx="55.2320876" cy="89.2086627" r="3.76015059"></circle>
            <circle id="Oval" fill="#3B84D1" fill-rule="nonzero" cx="55.2320876" cy="147.03593" r="3.76015059"></circle>
            <circle id="Oval" fill="#3B84D1" fill-rule="nonzero" cx="49.1211928" cy="104.254466" r="3.76015059"></circle>
            <circle id="Oval" fill="#3B84D1" fill-rule="nonzero" cx="56.641494" cy="171.95798" r="3.76015059"></circle>
            <circle id="Oval" fill="#3B84D1" fill-rule="nonzero" cx="31.2513761" cy="162.081733" r="3.76015059"></circle>
            <circle id="Oval" fill="#3B84D1" fill-rule="nonzero" cx="52.8813434" cy="120.236406" r="3.76015059"></circle>
        </g>
    </g>
</svg>