<?xml version="1.0" encoding="UTF-8"?>
<svg width="269px" height="74px" viewBox="0 0 269 74" version="1.1" xmlns="http://www.w3.org/2000/svg" xmlns:xlink="http://www.w3.org/1999/xlink">
    <!-- Generator: Sketch 49.2 (51160) - http://www.bohemiancoding.com/sketch -->
    <title>Android</title>
    <desc>Created with Sketch.</desc>
    <defs>
        <rect id="path-1" x="0" y="0" width="269" height="74"></rect>
    </defs>
    <g id="登录" stroke="none" stroke-width="1" fill="none" fill-rule="evenodd">
        <g id="登录-copy" transform="translate(-420.000000, -789.000000)">
            <g id="Android" transform="translate(420.000000, 789.000000)">
                <g id="安卓">
                    <mask id="mask-2" fill="white">
                        <use xlink:href="#path-1"></use>
                    </mask>
                    <use id="Mask" fill="#3B84D1" xlink:href="#path-1"></use>
                    <g mask="url(#mask-2)" fill="#FFFFFF" fill-opacity="0.5" fill-rule="nonzero" id="Shape">
                        <g transform="translate(19.417489, 61.447166) rotate(19.000000) translate(-19.417489, -61.447166) translate(-18.582511, 16.947166)">
                            <path d="M5.53562689,28.774494 C2.47243414,28.774494 0,31.2300171 0,34.2722581 L0,57.2846379 C0,60.3160138 2.48337412,62.782402 5.53562689,62.782402 C8.59881963,62.782402 11.0712538,60.3268789 11.0712538,57.2846379 L11.0712538,34.2722581 C11.0821938,31.2300171 8.59881963,28.774494 5.53562689,28.774494 Z M13.2264287,65.4660931 C13.2264287,68.7039067 15.8739024,71.3332721 19.1449547,71.3332721 L23.1818051,71.3332721 L23.1818051,83.502236 C23.1818051,86.5336118 25.6651792,89 28.717432,89 C31.7806247,89 34.2530589,86.5444769 34.2530589,83.502236 L34.2530589,71.3332721 L41.7360012,71.3332721 L41.7360012,83.502236 C41.7360012,86.5336118 44.2193753,89 47.271628,89 C50.3348208,89 52.8072549,86.5444769 52.8072549,83.502236 L52.8072549,71.3332721 L56.8441054,71.3332721 C60.1042176,71.3332721 62.7626314,68.7039067 62.7626314,65.4660931 L62.7626314,29.8066829 L13.2264287,29.8066829 L13.2264287,65.4660931 Z M50.236361,8.10898578 L54.1091118,1.12269671 C54.3169714,0.753281731 54.1747517,0.28608044 53.8027926,0.0905078069 C53.4308335,-0.105064827 52.9604146,0.0253169291 52.763495,0.394731903 L48.8469843,7.457077 C45.5649921,6.01201254 41.8891608,5.20799172 38.00547,5.20799172 C34.1217792,5.20799172 30.4459479,6.01201254 27.1639557,7.44621185 L23.2474449,0.394731903 C23.0505254,0.0253169291 22.5691665,-0.105064827 22.2081474,0.0905078069 C21.8361883,0.28608044 21.6939686,0.764146878 21.9018281,1.12269671 L25.774579,8.10898578 C18.1822369,11.9987082 13.0404491,19.4087379 13.0404491,27.9052823 L62.9704909,27.9052823 C62.9704909,19.3978728 57.828703,11.9987082 50.236361,8.10898578 Z M26.6388369,18.9306715 C25.4791997,18.9306715 24.5493019,17.9962689 24.5493019,16.8554286 C24.5493019,15.703723 25.4901396,14.7801856 26.6388369,14.7801856 C27.7984742,14.7801856 28.728372,15.7145882 28.728372,16.8554286 C28.728372,18.0071341 27.7875342,18.9306715 26.6388369,18.9306715 Z M49.3721031,18.9306715 C48.2124658,18.9306715 47.282568,17.9962689 47.282568,16.8554286 C47.282568,15.703723 48.2234058,14.7801856 49.3721031,14.7801856 C50.5317403,14.7801856 51.4616381,15.7145882 51.4616381,16.8554286 C51.4506981,18.0071341 50.5208003,18.9306715 49.3721031,18.9306715 Z M70.4643731,28.774494 C67.4011804,28.774494 64.9287462,31.2300171 64.9287462,34.2722581 L64.9287462,57.2846379 C64.9287462,60.3160138 67.4121203,62.782402 70.4643731,62.782402 C73.5275659,62.782402 76,60.3268789 76,57.2846379 L76,34.2722581 C76,31.2300171 73.5275659,28.774494 70.4643731,28.774494 Z"></path>
                        </g>
                    </g>
                </g>
                <path d="M98.604,26.864 L100.884,26.864 L107.628,44 L105.492,44 L103.668,39.2 L95.796,39.2 L93.972,44 L91.86,44 L98.604,26.864 Z M96.42,37.544 L103.044,37.544 L99.804,28.976 L99.708,28.976 L96.42,37.544 Z M114.924,31.256 C117.996,31.256 119.556,32.96 119.556,36.368 L119.556,44 L117.636,44 L117.636,36.512 C117.636,34.088 116.532,32.888 114.372,32.888 C113.508,32.888 112.764,33.2 112.14,33.824 C111.468,34.496 111.108,35.384 111.036,36.512 L111.036,44 L109.116,44 L109.116,31.592 L111.036,31.592 L111.036,33.416 C111.468,32.72 112.02,32.192 112.692,31.832 C113.364,31.448 114.108,31.256 114.924,31.256 Z M131.7,26.528 L133.62,26.528 L133.62,44 L131.82,44 L131.82,41.96 C130.956,43.544 129.564,44.336 127.692,44.336 C125.868,44.336 124.452,43.664 123.444,42.368 C122.508,41.168 122.052,39.632 122.052,37.76 C122.052,35.936 122.508,34.448 123.444,33.248 C124.452,31.904 125.82,31.256 127.596,31.256 C129.372,31.256 130.74,32.12 131.7,33.872 L131.7,26.528 Z M128.004,32.84 C126.636,32.84 125.604,33.32 124.932,34.28 C124.308,35.12 124.02,36.272 124.02,37.76 C124.02,39.248 124.308,40.424 124.908,41.288 C125.58,42.248 126.588,42.752 127.932,42.752 C129.18,42.752 130.14,42.272 130.836,41.312 C131.436,40.448 131.748,39.32 131.748,37.928 L131.748,37.688 C131.748,36.248 131.388,35.072 130.716,34.184 C130.02,33.272 129.108,32.84 128.004,32.84 Z M142.044,31.256 C142.716,31.256 143.292,31.352 143.748,31.544 L143.748,33.464 C143.124,33.272 142.5,33.2 141.9,33.2 C140.94,33.2 140.124,33.608 139.476,34.472 C138.804,35.288 138.492,36.272 138.492,37.424 L138.492,44 L136.596,44 L136.596,31.592 L138.492,31.592 L138.492,33.752 C138.828,33.032 139.26,32.456 139.788,32.048 C140.436,31.52 141.18,31.256 142.044,31.256 Z M150.9,31.256 C152.748,31.256 154.236,31.88 155.34,33.176 C156.396,34.4 156.924,35.936 156.924,37.808 C156.924,39.656 156.396,41.192 155.364,42.392 C154.236,43.688 152.748,44.336 150.9,44.336 C149.028,44.336 147.564,43.688 146.46,42.392 C145.404,41.192 144.876,39.656 144.876,37.808 C144.876,35.936 145.404,34.4 146.46,33.176 C147.564,31.88 149.028,31.256 150.9,31.256 Z M150.9,32.864 C149.58,32.864 148.548,33.368 147.828,34.376 C147.156,35.288 146.844,36.416 146.844,37.808 C146.844,39.176 147.156,40.304 147.828,41.216 C148.548,42.224 149.58,42.728 150.9,42.728 C152.196,42.728 153.228,42.224 153.996,41.216 C154.644,40.304 154.98,39.152 154.98,37.808 C154.98,36.416 154.644,35.288 153.996,34.376 C153.228,33.368 152.196,32.864 150.9,32.864 Z M161.004,26.912 C161.412,26.912 161.748,27.032 162.036,27.32 C162.324,27.56 162.468,27.896 162.468,28.328 C162.468,28.736 162.324,29.072 162.036,29.36 C161.748,29.624 161.412,29.768 161.004,29.768 C160.596,29.768 160.26,29.624 159.972,29.36 C159.684,29.072 159.564,28.736 159.564,28.328 C159.564,27.896 159.684,27.56 159.972,27.32 C160.26,27.032 160.596,26.912 161.004,26.912 Z M160.044,31.592 L161.964,31.592 L161.964,44 L160.044,44 L160.044,31.592 Z M174.732,26.528 L176.652,26.528 L176.652,44 L174.852,44 L174.852,41.96 C173.988,43.544 172.596,44.336 170.724,44.336 C168.9,44.336 167.484,43.664 166.476,42.368 C165.54,41.168 165.084,39.632 165.084,37.76 C165.084,35.936 165.54,34.448 166.476,33.248 C167.484,31.904 168.852,31.256 170.628,31.256 C172.404,31.256 173.772,32.12 174.732,33.872 L174.732,26.528 Z M171.036,32.84 C169.668,32.84 168.636,33.32 167.964,34.28 C167.34,35.12 167.052,36.272 167.052,37.76 C167.052,39.248 167.34,40.424 167.94,41.288 C168.612,42.248 169.62,42.752 170.964,42.752 C172.212,42.752 173.172,42.272 173.868,41.312 C174.468,40.448 174.78,39.32 174.78,37.928 L174.78,37.688 C174.78,36.248 174.42,35.072 173.748,34.184 C173.052,33.272 172.14,32.84 171.036,32.84 Z" fill="#FFFFFF"></path>
            </g>
        </g>
    </g>
</svg>