<?xml version="1.0" encoding="utf-8"?>
<!-- Generator: Adobe Illustrator 22.0.0, SVG Export Plug-In . SVG Version: 6.00 Build 0)  -->
<svg version="1.1" id="图层_1" xmlns="http://www.w3.org/2000/svg" xmlns:xlink="http://www.w3.org/1999/xlink" x="0px" y="0px"
	 viewBox="0 0 1024 1024" style="enable-background:new 0 0 1024 1024;" xml:space="preserve">
<style type="text/css">
	.st0{fill:#4A505A;}
</style>
<g id="tab_icon_wallet_def" transform="translate(261.000000, 260.000000)">
	<path id="Shape" class="st0" d="M681.4,448.4c-19,0-31.6,12.7-31.6,31.7v139.4h-834.9V5h834.9v133c0,19,12.6,31.7,31.6,31.7
		c19,0,31.6-12.7,31.6-31.7V11.3c0-38-31.6-69.7-69.6-69.7h-50.6c-19-69.7-82.2-126.7-158.1-126.7H-96.6
		c-88.5,0-164.4,76-164.4,164.7V5v6.3v608.1c0,38,31.6,69.7,69.6,69.7h834.9c37.9,0,69.6-31.7,69.6-69.7V480
		C713,467.4,700.4,448.4,681.4,448.4z M-96.6-115.4h531.3c37.9,0,69.6,25.3,88.5,57h-702.1C-166.1-90.1-134.5-115.4-96.6-115.4z"/>
	<path id="Shape_1_" class="st0" d="M638.9,214.5H462.5c-65.3,0-124.1,52.6-124.1,124.9s52.3,124.9,124.1,124.9h176.4
		c65.3,0,124.1-52.6,124.1-124.9S710.7,214.5,638.9,214.5z M638.9,392H462.5c-26.1,0-52.3-19.7-52.3-52.6
		c0-26.3,19.6-52.6,52.3-52.6h176.4c26.1,0,52.3,19.7,52.3,52.6C691.1,365.7,671.6,392,638.9,392z"/>
	<path id="Shape_2_" class="st0" d="M438.3,302c0,20.7,16.8,37.5,37.5,37.5s37.5-16.8,37.5-37.5c0-20.7-16.8-37.5-37.5-37.5
		S438.3,281.3,438.3,302z"/>
</g>
</svg>
