<?xml version="1.0" encoding="UTF-8"?>
<svg width="233px" height="121px" viewBox="0 0 233 121" version="1.1" xmlns="http://www.w3.org/2000/svg" xmlns:xlink="http://www.w3.org/1999/xlink">
    <!-- Generator: Sketch 49.2 (51160) - http://www.bohemiancoding.com/sketch -->
    <title>wallet_bg_Invite code_s_der</title>
    <desc>Created with Sketch.</desc>
    <defs>
        <path d="M6.55716907e-15,67.2 L0,2.8 C-1.8937905e-16,1.2536027 1.2536027,4.72496067e-15 2.8,4.4408921e-15 L228.2,0 C229.746397,-2.84068575e-16 231,1.2536027 231,2.8 L231,67.2 C227.520606,67.2 224.7,70.0206061 224.7,73.5 C224.7,76.9793939 227.520606,79.8 231,79.8 L231,116.2 C231,117.746397 229.746397,119 228.2,119 L2.8,119 C1.2536027,119 1.17356985e-14,117.746397 1.15463195e-14,116.2 L7.84009346e-15,79.8 C3.47939392,79.8 6.3,76.9793939 6.3,73.5 C6.3,70.0206061 3.47939392,67.2 8.49350392e-15,67.2 Z" id="path-1"></path>
    </defs>
    <g id="钱包" stroke="none" stroke-width="1" fill="none" fill-rule="evenodd">
        <g id="钱包---兑换邀请码" transform="translate(-648.000000, -198.000000)">
            <g id="Group-2" transform="translate(649.000000, 199.000000)">
                <g id="wallet_bg_Invite-code_s_der">
                    <g id="Combined-Shape">
                        <use fill="#FFFFFF" fill-rule="evenodd" xlink:href="#path-1"></use>
                        <path stroke="#E7E7E7" stroke-width="0.7" d="M-0.35,67.55 L-0.35,2.8 C-0.35,1.06030304 1.06030304,-0.35 2.8,-0.35 L228.2,-0.35 C229.939697,-0.35 231.35,1.06030304 231.35,2.8 L231.35,67.55 L231,67.55 C227.713906,67.55 225.05,70.2139057 225.05,73.5 C225.05,76.7860943 227.713906,79.45 231,79.45 L231.35,79.45 L231.35,116.2 C231.35,117.939697 229.939697,119.35 228.2,119.35 L2.8,119.35 C1.06030304,119.35 -0.35,117.939697 -0.35,116.2 L-0.35,79.45 L4.98109028e-15,79.45 C3.28609426,79.45 5.95,76.7860943 5.95,73.5 C5.95,70.2139057 3.28609426,67.55 6.55716907e-15,67.55 L-0.35,67.55 Z"></path>
                    </g>
                    <path d="M14.35,73.15 L216.887231,73.15" id="Line" stroke="#E7E7E7" stroke-width="1.4" stroke-linecap="square" stroke-dasharray="1.4,4.199999999999999"></path>
                </g>
            </g>
        </g>
    </g>
</svg>