<?xml version="1.0" encoding="utf-8"?>
<!-- Generator: Adobe Illustrator 22.0.0, SVG Export Plug-In . SVG Version: 6.00 Build 0)  -->
<svg version="1.1" id="图层_1" xmlns="http://www.w3.org/2000/svg" xmlns:xlink="http://www.w3.org/1999/xlink" x="0px" y="0px"
	 viewBox="0 0 200 200" style="enable-background:new 0 0 200 200;" xml:space="preserve">
<style type="text/css">
	.st0{fill:#3B84D1;}
</style>
<path class="st0" d="M98.7,170.7H50.5c-10,0-18.2-8.2-18.2-18.2V47.5c0-10,8.2-18.2,18.2-18.2h89.6c10,0,18.2,8.2,18.2,18.2v67.9
	h-10.4V47.5c0-4.3-3.5-7.8-7.8-7.8H50.5c-4.3,0-7.8,3.5-7.8,7.8v104.9c0,4.3,3.5,7.8,7.8,7.8h48.2V170.7z"/>
<path class="st0" d="M136.8,173.8c-1.2,0-2.4-0.4-3.4-1.2L111.9,156c-2.4-1.9-2.9-5.4-1-7.8s5.4-2.9,7.8-1l17.3,13.4l28.6-33.6
	c2-2.3,5.5-2.6,7.8-0.6c2.3,2,2.6,5.5,0.6,7.8L141,171.9C139.9,173.1,138.3,173.8,136.8,173.8z"/>
<path class="st0" d="M126.3,66.4H62.2c-3.1,0-5.6-2.5-5.6-5.6c0-3.1,2.5-5.6,5.6-5.6h64.1c3.1,0,5.6,2.5,5.6,5.6
	C131.9,63.9,129.4,66.4,126.3,66.4z"/>
<path class="st0" d="M126.3,95.9H62.2c-3.1,0-5.6-2.5-5.6-5.6s2.5-5.6,5.6-5.6h64.1c3.1,0,5.6,2.5,5.6,5.6S129.4,95.9,126.3,95.9z"
	/>
<path class="st0" d="M126.3,125.4H62.2c-3.1,0-5.6-2.5-5.6-5.6s2.5-5.6,5.6-5.6h64.1c3.1,0,5.6,2.5,5.6,5.6S129.4,125.4,126.3,125.4
	z"/>
</svg>
