<?xml version="1.0" standalone="no"?><!DOCTYPE svg PUBLIC "-//W3C//DTD SVG 1.1//EN" "http://www.w3.org/Graphics/SVG/1.1/DTD/svg11.dtd"><svg t="1524122303454" class="icon" style="" viewBox="0 0 1024 1024" version="1.1" xmlns="http://www.w3.org/2000/svg" p-id="6389" xmlns:xlink="http://www.w3.org/1999/xlink" width="200" height="200"><defs><style type="text/css"></style></defs><path d="M505.550222 873.820444 258.602667 873.820444c-51.413333 0-93.240889-41.827556-93.240889-93.240889L165.361778 243.420444c0-51.413333 41.827556-93.240889 93.240889-93.240889l458.915556 0c51.413333 0 93.240889 41.827556 93.240889 93.240889l0 347.52-53.276444 0 0-347.52c0-22.037333-17.927111-39.964444-39.964444-39.964444L258.602667 203.456c-22.037333 0-39.964444 17.927111-39.964444 39.964444l0 537.152c0 22.037333 17.927111 39.964444 39.964444 39.964444l246.947556 0L505.550222 873.820444z" p-id="6390"></path><path d="M700.295111 889.877333c-6.101333 0-12.245333-1.948444-17.415111-5.966222l-110.087111-85.361778c-12.416-9.628444-14.670222-27.491556-5.048889-39.907556s27.484444-14.677333 39.907556-5.048889l88.625778 68.721778 146.503111-171.889778c10.190222-11.960889 28.145778-13.397333 40.099556-3.192889 11.960889 10.190222 13.390222 28.138667 3.192889 40.099556l-164.110222 192.554667C716.344889 886.464 708.352 889.877333 700.295111 889.877333z" p-id="6391"></path><path d="M646.762667 339.84 318.336 339.84c-15.708444 0-28.444444-12.736-28.444444-28.444444s12.736-28.444444 28.444444-28.444444l328.433778 0c15.708444 0 28.444444 12.736 28.444444 28.444444S662.471111 339.84 646.762667 339.84z" p-id="6392"></path><path d="M646.762667 490.915556 318.336 490.915556c-15.708444 0-28.444444-12.736-28.444444-28.444444s12.736-28.444444 28.444444-28.444444l328.433778 0c15.708444 0 28.444444 12.736 28.444444 28.444444S662.471111 490.915556 646.762667 490.915556z" p-id="6393"></path><path d="M646.762667 641.991111 318.336 641.991111c-15.708444 0-28.444444-12.736-28.444444-28.444444s12.736-28.444444 28.444444-28.444444l328.433778 0c15.708444 0 28.444444 12.736 28.444444 28.444444S662.471111 641.991111 646.762667 641.991111z" p-id="6394"></path></svg>