<?xml version="1.0" encoding="utf-8"?>
<!-- Generator: Adobe Illustrator 22.0.0, SVG Export Plug-In . SVG Version: 6.00 Build 0)  -->
<svg version="1.1" id="图层_1" xmlns="http://www.w3.org/2000/svg" xmlns:xlink="http://www.w3.org/1999/xlink" x="0px" y="0px"
	 viewBox="0 0 1024 1024" style="enable-background:new 0 0 1024 1024;" xml:space="preserve">
<style type="text/css">
	.st0{fill:#9B9B9B;}
</style>
<g id="Shape" transform="translate(2.600000, 2.600000)">
	<path class="st0" d="M887.8,350c-20.6-48.8-50.2-92.6-87.8-130.2s-81.4-67.1-130.2-87.8c-50.5-21.4-104.2-32.2-159.4-32.2
		S401.5,110.6,351,132c-48.8,20.6-92.6,50.2-130.2,87.8c-37.6,37.6-67.1,81.4-87.8,130.2c-21.4,50.5-32.2,104.2-32.2,159.4
		s10.8,108.9,32.2,159.4c20.6,48.8,50.2,92.6,87.8,130.2c37.6,37.6,81.4,67.1,130.2,87.8c50.5,21.4,104.2,32.2,159.4,32.2
		s108.9-10.8,159.4-32.2c48.8-20.6,92.6-50.2,130.2-87.8c37.6-37.6,67.1-81.4,87.8-130.2c21.4-50.5,32.2-104.2,32.2-159.4
		S909.2,400.5,887.8,350z M848.4,341.1L674.6,526.6l-11.8-362.7C743.3,199.6,809.1,262.6,848.4,341.1z M460.2,642.6l-79.5-74.5
		l-3.5-108.9l74.5-79.5l108.9-3.5l79.5,74.5l3.5,108.9l-74.5,79.5L460.2,642.6z M630.4,151.3l8.2,254.2L373.8,157.3
		c42.4-16.5,88.4-25.6,136.6-25.6C552.3,131.8,592.7,138.6,630.4,151.3z M342.1,171.4l185.5,173.8L164.9,357
		C200.6,276.5,263.6,210.7,342.1,171.4z M132.8,509.4c0-41.9,6.9-82.3,19.6-120l254.2-8.2L158.3,646
		C141.8,603.6,132.8,557.5,132.8,509.4z M172.4,677.7l173.8-185.5L358,854.9C277.5,819.2,211.7,756.2,172.4,677.7z M390.4,867.5
		l-8.2-254.2L647,861.5C604.6,878,558.5,887,510.4,887C468.5,887,428.1,880.2,390.4,867.5z M678.7,847.4L493.2,673.6l362.7-11.8
		C820.2,742.3,757.2,808.1,678.7,847.4z M868.5,629.4l-254.2,8.2l248.2-264.8C879,415.2,888,461.3,888,509.4
		C888,551.3,881.2,591.7,868.5,629.4z"/>
</g>
</svg>
