<?xml version="1.0" encoding="utf-8"?>
<!-- Generator: Adobe Illustrator 22.0.0, SVG Export Plug-In . SVG Version: 6.00 Build 0)  -->
<svg version="1.1" id="图层_1" xmlns="http://www.w3.org/2000/svg" xmlns:xlink="http://www.w3.org/1999/xlink" x="0px" y="0px"
	 viewBox="0 0 200 200" style="enable-background:new 0 0 200 200;" xml:space="preserve">
<style type="text/css">
	.st0{fill:#3B84D1;}
</style>
<path class="st0" d="M145.4,187.9c-3,0-6-0.7-8.6-2.2l-36.8-19.8l-36.8,19.8c-6,3.2-13.3,2.8-18.9-1c-5.6-3.8-8.5-10.6-7.4-17.3
	l7.2-43l-31.1-31c-4.8-4.7-6.4-11.7-4.2-18c2.2-6.3,7.7-10.9,14.3-11.8l42.3-6.3l18.4-38.1c4.4-9,15.3-12.6,24.2-8.2
	c3.6,1.8,6.5,4.7,8.2,8.2l18.4,38.1l42.3,6.3c6.7,1,12.2,5.5,14.3,11.8c2.2,6.3,0.6,13.2-4.2,18l-31.1,31l7.2,43
	c1.1,6.7-1.8,13.5-7.4,17.3C152.7,186.8,149.1,187.9,145.4,187.9L145.4,187.9z M100,154.3c0.9,0,1.8,0.2,2.6,0.7l39.3,21.2
	c2.4,1.3,5.3,1.1,7.6-0.4c2.2-1.4,3.3-4,2.8-6.6l-7.7-45.8c-0.3-1.7,0.3-3.5,1.5-4.8l33.1-33c1.8-1.8,2.4-4.4,1.6-6.8
	c-0.9-2.5-3.1-4.2-5.6-4.6l-45.1-6.7c-1.8-0.3-3.3-1.4-4.1-3l-19.6-40.7c-1.2-2.4-3.7-4-6.4-3.9c-2.7,0-5.2,1.5-6.4,3.9L74,64.6
	c-0.8,1.6-2.3,2.8-4.1,3l-45.1,6.7c-2.6,0.4-4.7,2.1-5.6,4.6c-0.8,2.4-0.2,5,1.6,6.8l33.1,33c1.2,1.2,1.8,3,1.5,4.7l-7.7,45.8
	c-0.4,2.6,0.7,5.1,2.9,6.6c2.2,1.5,5.2,1.7,7.6,0.4L97.5,155C98.3,154.5,99.2,154.3,100,154.3L100,154.3z"/>
</svg>
