<?xml version="1.0" encoding="UTF-8"?>
<svg width="16px" height="16px" viewBox="0 0 16 16" version="1.1" xmlns="http://www.w3.org/2000/svg" xmlns:xlink="http://www.w3.org/1999/xlink">
    <!-- Generator: Sketch 49.2 (51160) - http://www.bohemiancoding.com/sketch -->
    <title>成为作者-点击</title>
    <desc>Created with Sketch.</desc>
    <defs></defs>
    <g id="个人中心" stroke="none" stroke-width="1" fill="none" fill-rule="evenodd">
        <g id="个人中心-成为作者-成功" transform="translate(-125.000000, -301.000000)" fill="#3B84D1" fill-rule="nonzero">
            <g id="成为作者-点击" transform="translate(125.000000, 301.000000)">
                <path d="M15.7294116,4.35902691 L11.6424155,0.268774569 C11.2676939,-0.0895915231 10.6776,-0.0895915231 10.3028784,0.268774569 L2.65182859,7.94202355 C2.28310619,8.31270984 2.28310619,8.91194163 2.65182859,9.28262791 L2.83284712,9.46379066 L0.986458135,10.3494752 C0.731605384,10.4228476 0.539092759,10.632605 0.487651531,10.8929635 L0.0170033591,14.9469833 C-0.0293193259,15.1528771 0.0201432753,15.3686866 0.151497535,15.5337928 C0.282851794,15.6988989 0.481927463,15.7954903 0.692805863,15.7964353 C0.735582541,15.8011882 0.778753458,15.8011882 0.821530136,15.7964353 L4.94472994,15.3213863 C5.19743809,15.266393 5.39883379,15.0756899 5.46767235,14.8262081 L6.35667446,12.9944514 L6.73480204,13.3728802 C7.10952365,13.7312463 7.69961754,13.7312463 8.07433915,13.3728802 L15.7294116,5.68755376 C16.0901961,5.31831161 16.0901961,4.72826906 15.7294116,4.35902691 Z M5.42744602,12.1691544 L4.44994597,14.1820739 L1.25999725,14.5443994 L1.63007956,11.3519091 L3.64139654,10.3736303 L5.42744602,12.1691544 Z M8.59325893,11.1626947 L7.38646874,12.3704463 L3.64139654,8.62239033 L4.84818673,7.41463865 L8.59325893,11.1626947 Z M14.7197304,5.02731617 L9.43398943,10.3212944 L5.68891723,6.57323831 L10.9746582,1.27926014 L14.7197304,5.02731617 Z" id="Shape"></path>
                <path d="M3.0659407,12.1445529 C2.76519242,12.0296107 2.42512952,12.1430911 2.25367826,12.4156082 C2.082227,12.6881253 2.12712601,13.0437999 2.3609225,13.2651602 C2.59471899,13.4865204 2.95231497,13.5119312 3.21506388,13.3258553 C3.47781278,13.1397795 3.57255517,12.7940279 3.44136227,12.5000049 C3.3683576,12.3363905 3.23329754,12.2085146 3.0659407,12.1445529 Z" id="Shape"></path>
            </g>
        </g>
    </g>
</svg>