<?xml version="1.0" encoding="utf-8"?>
<!-- Generator: Adobe Illustrator 22.0.0, SVG Export Plug-In . SVG Version: 6.00 Build 0)  -->
<svg version="1.1" id="图层_1" xmlns="http://www.w3.org/2000/svg" xmlns:xlink="http://www.w3.org/1999/xlink" x="0px" y="0px"
	 viewBox="0 0 1024 1024" style="enable-background:new 0 0 1024 1024;" xml:space="preserve">
<style type="text/css">
	.st0{fill:#939393;}
</style>
<g>
	<path class="st0" d="M883.8,727.1L588.6,206.9c-15.3-31.3-46-47-76.7-47s-61.4,15.7-76.7,47L140.3,727.1
		c-34.5,58.7,7.7,136.9,76.7,136.9h586.4C876.1,864,918.3,785.8,883.8,727.1z M796.8,785.7H223.4c-13.7,0-23.4-17.6-16.2-29.7
		l289.1-506.6l1.9-3.7c2.3-4.7,7.1-7.5,13.7-7.5c6.7,0,11.4,2.8,13.7,7.5l2,3.7l288.6,505.7l0.5,0.9
		C824.1,768.4,814.1,785.8,796.8,785.7z"/>
	<path class="st0" d="M508.2,551.1h7.6c19.2,0,34.6-10,34.6-22.4V377.9c0-12.5-15.4-22.4-34.6-22.4h-7.6c-19.2,0-34.6,10-34.6,22.4
		v150.8C473.6,541.2,489,551.1,508.2,551.1z"/>
	<path class="st0" d="M512,668.4c-10.1,0-20,4.2-27.2,11.5c-7.1,7.3-11.3,17.4-11.3,27.7c0,10.3,4.1,20.4,11.3,27.7
		c7.1,7.3,17.1,11.5,27.2,11.5c10.1,0,20-4.2,27.2-11.5c7.1-7.3,11.3-17.4,11.3-27.7c0-10.3-4.1-20.4-11.3-27.7
		C532,672.6,522,668.4,512,668.4z"/>
</g>
</svg>
