<?xml version="1.0" encoding="utf-8"?>
<!-- Generator: Adobe Illustrator 22.0.0, SVG Export Plug-In . SVG Version: 6.00 Build 0)  -->
<svg version="1.1" id="图层_1" xmlns="http://www.w3.org/2000/svg" xmlns:xlink="http://www.w3.org/1999/xlink" x="0px" y="0px"
	 viewBox="0 0 1024 1024" style="enable-background:new 0 0 1024 1024;" xml:space="preserve">
<style type="text/css">
	.st0{fill:#3B84D1;}
</style>
<title>Shape</title>
<desc>Created with Sketch.</desc>
<g id="tab_icon_message_def" transform="translate(434.000000, 260.000000)">
	<path id="Shape_2_" class="st0" d="M443.7-186.9h-731.4c-80.7,0-146.3,65.5-146.3,146.3v438.9c0,80.7,65.5,146.3,146.3,146.3h146.1
		v74.8c0,27.4,15.4,52.1,39.9,64.2c10.2,4.9,21,7.4,31.7,7.4c15.4,0,30.7-5,43.5-14.8l170.8-131.5h299.4
		c80.7,0,146.3-65.5,146.3-146.3v-439C590-121.4,524.5-186.9,443.7-186.9z M516.9,398.2c0,40.4-32.7,73.1-73.1,73.1l-311.5-0.1
		c-8,0-15.9,2.6-22.2,7.5L-68.6,619.4V507.9c0-20.2-16.4-36.5-36.5-36.5h-182.6c-40.4,0-73.1-32.7-73.1-73.1V-40.6
		c0-40.4,32.7-73.1,73.1-73.1h731.4c40.4,0,73.1,32.7,73.1,73.1v438.8H516.9z M-141.4,105.7c-40.4,0-73.1,32.7-73.1,73.1
		s32.7,73.1,73.1,73.1s73.1-32.7,73.1-73.1S-101,105.7-141.4,105.7z M78,105.7c-40.4,0-73.1,32.7-73.1,73.1S37.6,252,78,252
		s73.1-32.7,73.1-73.1S118.4,105.7,78,105.7z M297.4,105.7c-40.4,0-73.1,32.7-73.1,73.1S257,252,297.4,252s73.1-32.7,73.1-73.1
		S337.9,105.7,297.4,105.7z"/>
</g>
</svg>
