<?xml version="1.0" encoding="UTF-8"?>
<svg width="80px" height="80px" viewBox="0 0 80 80" version="1.1" xmlns="http://www.w3.org/2000/svg" xmlns:xlink="http://www.w3.org/1999/xlink">
    <!-- Generator: Sketch 49.2 (51160) - http://www.bohemiancoding.com/sketch -->
    <title>头像</title>
    <desc>Created with Sketch.</desc>
    <defs>
        <rect id="path-1" x="0" y="0" width="80" height="80"></rect>
    </defs>
    <g id="占位图" stroke="none" stroke-width="1" fill="none" fill-rule="evenodd">
        <g id="Apple-TV" transform="translate(-734.000000, -239.000000)">
            <g id="头像" transform="translate(734.000000, 239.000000)">
                <mask id="mask-2" fill="white">
                    <use xlink:href="#path-1"></use>
                </mask>
                <use id="Mask" fill="#4A505A" xlink:href="#path-1"></use>
                <path d="M70.3704287,77.4388925 C69.3495597,65.261384 61.0110333,55.189954 49.7385809,51.5268359 C54.4611723,48.4685184 57.5966984,43.1840202 57.5966984,37.1531724 C57.6009878,27.6822535 49.8972874,20 40.4006324,20 C30.8996879,20 23.1959876,27.6822535 23.1959876,37.1531724 C23.1959876,43.1840202 26.3315138,48.4685184 31.0541051,51.5311253 C19.7816528,55.189954 11.4474157,65.261384 10.4222574,77.4388925 C10.4093893,77.6705182 10.3793637,77.8034886 10.4222574,78.1209016 C10.5080447,79.193243 11.4559944,80.051116 12.5326252,80.051116 C13.7336475,80.051116 14.6815973,79.0688514 14.6815973,77.9064333 C15.8011216,64.6522941 26.89771,54.3192128 40.4006324,54.3192128 C53.8992654,54.3192128 64.9958538,64.6522941 66.1153781,77.9064333 C66.1153781,79.0688514 67.0633279,80.051116 68.2643502,80.051116 C69.3409809,80.051116 70.2889307,79.193243 70.3704287,78.1209016 C70.4133223,77.8034886 70.3875861,77.6662289 70.3704287,77.4388925 Z M27.4982212,37.1531724 C27.4982212,30.0499832 33.2759964,24.2893654 40.4006324,24.2893654 C47.5252684,24.2893654 53.2987542,30.0499832 53.2987542,37.1531724 C53.2987542,44.2606509 47.5252684,50.0212687 40.4006324,50.0212687 C33.2759964,50.0212687 27.4982212,44.2606509 27.4982212,37.1531724 Z" id="Shape" fill="#FFFFFF" fill-rule="nonzero" mask="url(#mask-2)"></path>
            </g>
        </g>
    </g>
</svg>