<?xml version="1.0" encoding="UTF-8"?>
<svg width="17px" height="17px" viewBox="0 0 17 17" version="1.1" xmlns="http://www.w3.org/2000/svg" xmlns:xlink="http://www.w3.org/1999/xlink">
    <!-- Generator: Sketch 49.2 (51160) - http://www.bohemiancoding.com/sketch -->
    <title>邀请码 copy</title>
    <desc>Created with Sketch.</desc>
    <defs></defs>
    <g id="钱包" stroke="none" stroke-width="1" fill="none" fill-rule="evenodd">
        <g id="钱包---兑换邀请码" transform="translate(-238.000000, -264.000000)" fill="#4A505A" fill-rule="nonzero">
            <g id="邀请码-copy" transform="translate(238.000000, 264.000000)">
                <path d="M11.3004464,6.26685268 C11.6305804,5.91964286 11.8335938,5.4453125 11.8335938,4.92165179 C11.8335938,3.85725446 10.991183,2.94654018 9.95145089,2.94654018 C9.36707589,2.94654018 8.84341518,3.2671875 8.5,3.69598214 C8.1546875,3.2671875 7.63292411,2.94654018 7.04854911,2.94654018 C6.00881696,2.94654018 5.16640625,3.85725446 5.16640625,4.92165179 C5.16640625,5.52120536 5.43392857,6.05814732 5.85323661,6.41104911 L8.5,8.91551339 L11.3004464,6.26685268 Z M6.65390625,5.74888393 L6.63493304,5.73370536 C6.39776786,5.53258929 6.28582589,5.26127232 6.28582589,4.94631696 C6.28582589,4.36953125 6.51540179,4.11908482 7.04854911,4.0640625 C7.35401786,4.03180804 7.66707589,4.27276786 7.83783482,4.44542411 L8.5,5.19866071 L9.16216518,4.44542411 C9.4296875,4.14944196 9.60234375,4.08113839 9.95145089,4.0640625 C10.4219866,4.04129464 10.7293527,4.39419643 10.7862723,4.92354911 C10.8147321,5.19107143 10.6876116,5.4453125 10.5092634,5.63883929 L8.5,7.31796875 L6.67098214,5.76595982 L6.65390625,5.74888393 Z M14.9167411,5.50223214 L14.7820312,5.50223214 L14.7820312,1.92388393 C14.7820312,0.906919643 13.9604911,0.00758928571 12.9530134,0.00758928571 L4.04698661,0.00758928571 C3.03950893,0.00758928571 2.21796875,0.906919643 2.21796875,1.92388393 L2.21796875,5.50223214 L2.08325893,5.50223214 C0.935379464,5.50223214 0,6.44520089 0,7.60256696 L0,14.8446429 C0,16.0039063 0.935379464,16.994308 2.08325893,16.994308 L14.9167411,16.994308 C16.0646205,16.994308 17,16.0039062 17,14.8446429 L17,7.60256696 C17,6.44520089 16.0665179,5.50223214 14.9167411,5.50223214 Z M14.7820312,6.69564732 L14.9167411,6.69564732 C15.4309152,6.70133929 15.6510045,6.91383929 15.7458705,7.41662946 L14.7820312,7.90424107 L14.7820312,6.69564732 Z M3.31082589,1.92388393 C3.31082589,1.31674107 3.81171875,1.05491071 4.21205357,1.08337054 L12.5982143,1.08337054 C13.3040179,1.07767857 13.7612723,1.44765625 13.711942,1.92388393 L13.711942,8.58158482 L8.446875,11.5395089 L3.31082589,8.63660714 L3.31082589,1.92388393 Z M2.08325893,6.69564732 L2.21796875,6.69564732 L2.21796875,7.96116071 L1.22566964,7.46975446 C1.29207589,6.94609375 1.49319196,6.74497768 2.08325893,6.69564732 Z M15.7648437,8.74665179 L15.7648437,14.8446429 C15.7857143,15.3436384 15.4081473,15.8862723 14.9167411,15.8217634 L2.08325893,15.8217634 C1.46473214,15.7914062 1.221875,15.3189732 1.21238839,14.8446429 L1.21238839,8.80357143 L8.446875,12.8771205 L15.7648437,8.74665179 Z" id="Shape"></path>
            </g>
        </g>
    </g>
</svg>