<?xml version="1.0" encoding="utf-8"?>
<!-- Generator: Adobe Illustrator 22.0.0, SVG Export Plug-In . SVG Version: 6.00 Build 0)  -->
<svg version="1.1" id="图层_1" xmlns="http://www.w3.org/2000/svg" xmlns:xlink="http://www.w3.org/1999/xlink" x="0px" y="0px"
	 viewBox="0 0 200 200" style="enable-background:new 0 0 200 200;" xml:space="preserve">
<style type="text/css">
	.st0{fill:#3B84D1;}
</style>
<path class="st0" d="M170.6,12.7H29.4c-9,0-16.3,7.3-16.3,16.3v32.6c0,9,7.3,16.3,16.3,16.3H34V171c0,9,7.3,16.3,16.3,16.3h99.5
	c9,0,16.3-7.3,16.3-16.3V77.9h4.6c9,0,16.3-7.3,16.3-16.3V29C186.9,20,179.6,12.7,170.6,12.7z M149.8,176.4H50.2
	c-3,0-5.4-2.4-5.4-5.4V50.7h110.4V171C155.2,174,152.7,176.4,149.8,176.4L149.8,176.4z M176.1,61.6c0,3-2.4,5.4-5.4,5.4h-4.6V50.6
	c2.6-0.4,4.6-2.6,4.6-5.3c0-3-2.4-5.4-5.4-5.4H34.8c-3,0-5.4,2.4-5.4,5.4c0,2.7,2,4.8,4.6,5.3V67h-4.6c-3,0-5.4-2.4-5.4-5.4V29
	c0-3,2.4-5.4,5.4-5.4h141.3c3,0,5.4,2.4,5.4,5.4L176.1,61.6L176.1,61.6z"/>
<g>
	<path class="st0" d="M75.9,84.9h50.3v11.5L93.9,130h33.4v12.3H72.8v-11.9l31.9-33.3H75.8L75.9,84.9L75.9,84.9z"/>
</g>
</svg>
