<?xml version="1.0" encoding="UTF-8"?>
<svg width="172px" height="168px" viewBox="0 0 172 168" version="1.1" xmlns="http://www.w3.org/2000/svg" xmlns:xlink="http://www.w3.org/1999/xlink">
    <!-- Generator: Sketch 49.2 (51160) - http://www.bohemiancoding.com/sketch -->
    <title>Group 4</title>
    <desc>Created with Sketch.</desc>
    <defs>
        <rect id="path-1" x="52.3513872" y="54.5" width="64" height="87" rx="10"></rect>
        <path d="M-1.13686838e-13,10.5 L10,10.5 L10,40.5039514 C10,43.2631929 7.75580481,45.5 5,45.5 L5,45.5 C2.23857625,45.5 -1.13686838e-13,43.2573497 -1.13686838e-13,40.5039514 L-1.13686838e-13,10.5 Z" id="path-2"></path>
        <rect id="path-3" x="1.85138721" y="3.41060513e-13" width="6" height="8"></rect>
        <path d="M-1.13686838e-13,8.50118474 C-1.13686838e-13,7.39596093 0.88743329,6.5 1.99961498,6.5 L8.00038502,6.5 C9.10474188,6.5 10,7.39591091 10,8.50118474 L10,12 L-1.13686838e-13,12 L-1.13686838e-13,8.50118474 Z" id="path-4"></path>
    </defs>
    <g id="个人中心" stroke="none" stroke-width="1" fill="none" fill-rule="evenodd">
        <g id="个人中心-成为作者-成功" transform="translate(-978.000000, -232.000000)">
            <g id="Group-4" transform="translate(974.000000, 227.000000)">
                <g id="Group-2">
                    <rect id="Rectangle-7" x="0" y="0" width="180" height="180"></rect>
                    <rect id="Rectangle-21" fill="#EAEAEA" transform="translate(38.569565, 31.718177) rotate(45.000000) translate(-38.569565, -31.718177) " x="27.2527631" y="28.5842938" width="22.6336029" height="6.26776695" rx="3.13388348"></rect>
                    <rect id="Rectangle-21-Copy" fill="#EAEAEA" transform="translate(19.570928, 41.719540) rotate(45.000000) translate(-19.570928, -41.719540) " x="0.5" y="36.4383604" width="38.141855" height="10.5623599" rx="5.28117993"></rect>
                    <rect id="Rectangle-21-Copy-2" fill="#EAEAEA" transform="translate(159.639870, 121.288483) rotate(45.000000) translate(-159.639870, -121.288483) " x="140.568943" y="113.788483" width="38.141855" height="15" rx="7.5"></rect>
                    <rect id="Rectangle-21-Copy-3" fill="#EAEAEA" transform="translate(147.345570, 137.994183) rotate(45.000000) translate(-147.345570, -137.994183) " x="134.663564" y="133.006746" width="25.3640125" height="9.97487373" rx="4.98743687"></rect>
                    <path d="M132.297481,155.995141 C150.010266,141.791926 161.351387,119.970393 161.351387,95.5 C161.351387,52.6979319 126.653455,18 83.8513872,18 C41.0493191,18 6.35138721,52.6979319 6.35138721,95.5 C6.35138721,119.976318 17.6980002,141.802492 35.4181592,156.005455" id="Combined-Shape" fill="#EAEAEA"></path>
                    <circle id="Oval-4" stroke="#A0A0A0" stroke-width="3" cx="107.351387" cy="34.5" r="3.5"></circle>
                    <circle id="Oval-4-Copy-2" stroke="#EAEAEA" stroke-width="3" cx="59.8513872" cy="10.5" r="3.5"></circle>
                    <circle id="Oval-4-Copy" stroke="#FDFDFD" stroke-width="3" cx="149.851387" cy="102.5" r="3.5"></circle>
                    <polygon id="Path" stroke="#A0A0A0" stroke-width="3" points="44.1013872 41 42.5440955 45.1927083 38.3513872 46.75 42.5440955 48.3072917 44.1013872 52.5 45.6586789 48.3072917 49.8513872 46.75 45.6586789 45.1927083"></polygon>
                    <polygon id="Path-Copy-2" fill="#EAEAEA" points="140.101387 7 137.867012 13.015625 131.851387 15.25 137.867012 17.484375 140.101387 23.5 142.335762 17.484375 148.351387 15.25 142.335762 13.015625"></polygon>
                    <polygon id="Path" fill="#A0A0A0" points="86.6013872 36.5 85.8565955 38.5052083 83.8513872 39.25 85.8565955 39.9947917 86.6013872 42 87.3461789 39.9947917 89.3513872 39.25 87.3461789 38.5052083"></polygon>
                    <polygon id="Path-Copy" fill="#FDFDFD" points="25.8513872 116 24.4972205 119.645833 20.8513872 121 24.4972205 122.354167 25.8513872 126 27.2055539 122.354167 30.8513872 121 27.2055539 119.645833"></polygon>
                    <rect id="Rectangle-22" fill="#EAEAEA" x="8.85138721" y="156" width="138" height="3" rx="1.5"></rect>
                    <rect id="Rectangle-22-Copy" fill="#EAEAEA" x="149.851387" y="156" width="15" height="3" rx="1.5"></rect>
                    <rect id="Rectangle-22-Copy-2" fill="#EAEAEA" x="30.8513872" y="163" width="57.5" height="3" rx="1.5"></rect>
                    <rect id="Rectangle-22-Copy-5" fill="#EAEAEA" x="17.8513872" y="170" width="57.5" height="3" rx="1.5"></rect>
                    <rect id="Rectangle-22-Copy-6" fill="#EAEAEA" x="79.3513872" y="170" width="61.5" height="3" rx="1.5"></rect>
                    <rect id="Rectangle-22-Copy-3" fill="#EAEAEA" x="92.3513872" y="163" width="6.5" height="3" rx="1.5"></rect>
                    <rect id="Rectangle-22-Copy-4" fill="#EAEAEA" x="102.851387" y="163" width="42" height="3" rx="1.5"></rect>
                    <g id="Rectangle-4">
                        <use fill="#F4F4F4" fill-rule="evenodd" xlink:href="#path-1"></use>
                        <rect stroke="#A0A0A0" stroke-width="4" x="54.3513872" y="56.5" width="60" height="83" rx="10"></rect>
                    </g>
                    <g id="Group" transform="translate(120.501020, 128.798990) rotate(-45.000000) translate(-120.501020, -128.798990) translate(115.358163, 105.656133)">
                        <g id="Rectangle-5">
                            <use fill="#F1F2F3" fill-rule="evenodd" xlink:href="#path-2"></use>
                            <path stroke="#A0A0A0" stroke-width="3" d="M1.5,12 L1.5,40.5039514 C1.5,42.4309463 3.0690271,44 5,44 C6.92984387,44 8.5,42.4323017 8.5,40.5039514 L8.5,12 L1.5,12 Z"></path>
                        </g>
                        <g id="Rectangle">
                            <use fill="#F1F2F3" fill-rule="evenodd" xlink:href="#path-3"></use>
                            <rect stroke="#A0A0A0" stroke-width="3" x="3.35138721" y="1.5" width="3" height="5"></rect>
                        </g>
                        <g id="Rectangle-2">
                            <use fill="#DBDCDD" fill-rule="evenodd" xlink:href="#path-4"></use>
                            <path stroke="#A0A0A0" stroke-width="3" d="M1.5,10.5 L8.5,10.5 L8.5,8.50118474 C8.5,8.22409772 8.2760742,8 8.00038502,8 L1.99961498,8 C1.71973751,8 1.5,8.22050603 1.5,8.50118474 L1.5,10.5 Z"></path>
                        </g>
                    </g>
                    <circle id="Oval" stroke="#A0A0A0" stroke-width="4" fill="#FEFFFF" cx="84.25" cy="93.75" r="27.75"></circle>
                    <circle id="Oval" stroke="#A0A0A0" stroke-width="4" fill="#F1F2F3" cx="84.5" cy="94" r="22.5"></circle>
                    <rect id="Rectangle-20" fill="#D8D8D8" x="71" y="83.5" width="16" height="3" rx="1.5"></rect>
                    <rect id="Rectangle-20-Copy" fill="#D8D8D8" x="71" y="91.5" width="25" height="3" rx="1.5"></rect>
                    <rect id="Rectangle-20-Copy-2" fill="#D8D8D8" x="71" y="99.5" width="30" height="3" rx="1.5"></rect>
                </g>
                <g id="bg_-default_follow">
                    <g id="Group-3">
                        <g id="Group">
                            <rect id="Rectangle-7" x="0" y="0" width="180" height="180"></rect>
                            <rect id="Rectangle-21" fill="#EAEAEA" transform="translate(38.569565, 31.718177) rotate(45.000000) translate(-38.569565, -31.718177) " x="27.2527631" y="28.5842938" width="22.6336029" height="6.26776695" rx="3.13388348"></rect>
                            <rect id="Rectangle-21-Copy" fill="#EAEAEA" transform="translate(19.570928, 41.719540) rotate(45.000000) translate(-19.570928, -41.719540) " x="0.5" y="36.4383604" width="38.141855" height="10.5623599" rx="5.28117993"></rect>
                            <rect id="Rectangle-21-Copy-2" fill="#EAEAEA" transform="translate(159.639870, 121.288483) rotate(45.000000) translate(-159.639870, -121.288483) " x="140.568943" y="113.788483" width="38.141855" height="15" rx="7.5"></rect>
                            <rect id="Rectangle-21-Copy-3" fill="#EAEAEA" transform="translate(147.345570, 137.994183) rotate(45.000000) translate(-147.345570, -137.994183) " x="134.663564" y="133.006746" width="25.3640125" height="9.97487373" rx="4.98743687"></rect>
                            <path d="M132.297481,155.995141 C150.010266,141.791926 161.351387,119.970393 161.351387,95.5 C161.351387,52.6979319 126.653455,18 83.8513872,18 C41.0493191,18 6.35138721,52.6979319 6.35138721,95.5 C6.35138721,119.976318 17.6980002,141.802492 35.4181592,156.005455" id="Combined-Shape" fill="#EAEAEA"></path>
                            <circle id="Oval-4" stroke="#A0A0A0" stroke-width="3" cx="102.5" cy="45.5" r="3.5"></circle>
                            <circle id="Oval-4-Copy-3" stroke="#A0A0A0" stroke-width="3" cx="46.5" cy="59.5" r="2.5"></circle>
                            <circle id="Oval-4-Copy-2" stroke="#EAEAEA" stroke-width="3" cx="59.8513872" cy="10.5" r="3.5"></circle>
                            <circle id="Oval-4-Copy" stroke="#FDFDFD" stroke-width="3" cx="150" cy="102.5" r="3.5"></circle>
                            <circle id="Oval-4-Copy-4" stroke="#FDFDFD" stroke-width="3" cx="26.5" cy="92" r="3.5"></circle>
                            <polygon id="Path" stroke="#A0A0A0" stroke-width="3" transform="translate(134.718158, 67.594579) rotate(16.000000) translate(-134.718158, -67.594579) " points="134.718158 61.1617592 132.975936 65.8523566 128.285338 67.5945785 132.975936 69.3368004 134.718158 74.0273978 136.460379 69.3368004 141.150977 67.5945785 136.460379 65.8523566"></polygon>
                            <polygon id="Path-Copy-2" fill="#EAEAEA" points="140.101387 7 137.867012 13.015625 131.851387 15.25 137.867012 17.484375 140.101387 23.5 142.335762 17.484375 148.351387 15.25 142.335762 13.015625"></polygon>
                            <polygon id="Path" fill="#A0A0A0" points="30.75 62 30.0052083 64.0052083 28 64.75 30.0052083 65.4947917 30.75 67.5 31.4947917 65.4947917 33.5 64.75 31.4947917 64.0052083"></polygon>
                            <polygon id="Path-Copy" fill="#FDFDFD" points="25.8513872 116 24.4972205 119.645833 20.8513872 121 24.4972205 122.354167 25.8513872 126 27.2055539 122.354167 30.8513872 121 27.2055539 119.645833"></polygon>
                            <rect id="Rectangle-22" fill="#EAEAEA" x="8.85138721" y="156" width="138" height="3" rx="1.5"></rect>
                            <rect id="Rectangle-22-Copy" fill="#EAEAEA" x="149.851387" y="156" width="15" height="3" rx="1.5"></rect>
                            <rect id="Rectangle-22-Copy-2" fill="#EAEAEA" x="30.8513872" y="163" width="57.5" height="3" rx="1.5"></rect>
                            <rect id="Rectangle-22-Copy-5" fill="#EAEAEA" x="17.8513872" y="170" width="57.5" height="3" rx="1.5"></rect>
                            <rect id="Rectangle-22-Copy-6" fill="#EAEAEA" x="79.3513872" y="170" width="61.5" height="3" rx="1.5"></rect>
                            <rect id="Rectangle-22-Copy-3" fill="#EAEAEA" x="92.3513872" y="163" width="6.5" height="3" rx="1.5"></rect>
                            <rect id="Rectangle-22-Copy-4" fill="#EAEAEA" x="102.851387" y="163" width="42" height="3" rx="1.5"></rect>
                        </g>
                    </g>
                    <path d="M60.4507981,138 C59.1185618,137.979122 57.7863255,137.832975 56.4749054,137.603316 L56.6206187,136.580289 C57.8904065,136.809948 59.1601942,136.935216 60.4507981,136.956095 L60.4507981,138 Z M61.4707915,137.958244 L61.4083429,136.914338 C63.0111897,136.78907 64.010367,136.308873 64.3642422,135.515505 L65.2385223,135.953945 C64.7389337,137.164876 63.4899622,137.812097 61.4707915,137.958244 Z M55.5173605,137.436291 C54.2267566,137.185754 52.9361527,136.89346 51.666365,136.580289 L51.8953431,135.578139 C53.290028,135.933067 54.5806319,136.204483 55.7047063,136.434142 L55.5173605,137.436291 Z M50.6880039,136.329751 C49.4182162,135.995702 48.1484285,135.640774 46.8786408,135.285846 L47.1284351,134.283697 C48.3982228,134.659503 49.6680105,135.01443 50.9169821,135.327602 L50.6880039,136.329751 Z M45.9419121,134.993552 C44.6721244,134.617746 43.4023367,134.24194 42.1741813,133.866134 L42.4447918,132.863985 C43.6937634,133.239791 44.9427349,133.636475 46.2125226,133.991403 L45.9419121,134.993552 Z M65.0303604,134.722137 L64.551588,134.701259 C64.551588,133.69911 64.1560803,132.509057 63.3858812,131.04759 L64.2393451,130.525637 C65.1136251,132.15413 65.529949,133.490329 65.529949,134.596868 L65.0303604,134.722137 Z M41.2166365,133.573841 L40.9252098,133.490329 C39.7386869,133.135401 38.5729801,132.780473 37.4489057,132.446423 L37.6987,131.444274 C38.8227744,131.778324 39.9884812,132.133251 41.1750041,132.488179 L41.4664308,132.571692 L41.2166365,133.573841 Z M36.5121771,132.175008 C35.2632055,131.799202 33.9934178,131.465152 32.7236301,131.131102 L32.9526082,130.128953 C34.118315,130.421247 35.3881027,130.776174 36.7619714,131.172858 L36.5121771,132.175008 Z M31.7869014,130.901443 C30.9334376,130.692662 30.0799737,130.546515 29.2056936,130.463003 L29.2889584,129.419097 C30.2048708,129.523488 31.0999671,129.690513 31.9950634,129.899294 L31.7869014,130.901443 Z M62.8862926,130.191587 C62.1993582,129.043291 61.4499753,127.915874 60.6381438,126.85109 L61.3875267,126.203869 C62.2201744,127.310408 62.9903735,128.458704 63.7189403,129.648757 L62.8862926,130.191587 Z M60.0136581,126.036844 C59.1810104,124.97206 58.3275465,123.928155 57.4532664,122.905127 L58.1610169,122.21615 C59.0561132,123.239177 59.9095771,124.303961 60.7422248,125.389622 L60.0136581,126.036844 Z M56.8079645,122.153516 C55.9128682,121.130488 55.0177719,120.128339 54.1018595,119.147068 L54.7887938,118.416334 C55.7671548,119.481118 56.6830673,120.483267 57.515715,121.44366 L56.8079645,122.153516 Z M53.4149251,118.416334 C52.4990127,117.435063 51.562284,116.453792 50.6255554,115.493399 L51.2916735,114.741787 C52.2908507,115.764814 53.2275794,116.746085 54.1018595,117.664722 L53.4149251,118.416334 Z M49.9178048,114.783543 C48.9810762,113.82315 48.0235313,112.862757 47.0659865,111.923242 L47.7321047,111.150752 C48.7312819,112.132023 49.6888267,113.092416 50.583923,114.011053 L49.9178048,114.783543 Z M46.358236,111.213387 C45.4423235,110.315628 44.4639625,109.376113 43.4647853,108.41572 L44.1100872,107.64323 C45.1092644,108.603623 46.0876255,109.543138 47.0035379,110.461775 L46.358236,111.213387 Z M42.7362185,107.705864 C41.7578575,106.787228 40.8003127,105.847713 39.8011354,104.929076 L40.4464374,104.156586 C41.4247984,105.075223 42.4031595,105.993859 43.3815205,106.933374 L42.7362185,107.705864 Z M39.0725687,104.240098 L37.6154352,102.883021 C37.1158466,102.423703 36.616258,101.943506 36.1374856,101.46331 L36.7827876,100.69082 C37.26156,101.150138 37.7403324,101.609457 38.2607372,102.089653 L39.7178707,103.44673 L39.0725687,104.240098 Z M35.4089189,100.774332 C34.451374,99.8139392 33.5146454,98.8326681 32.5987329,97.8096408 L33.3064835,97.0997851 C34.2015797,98.1019343 35.1174922,99.0832054 36.0542208,100.02272 L35.4089189,100.774332 Z M31.9326148,97.0162726 C31.0375185,95.9723672 30.2048708,94.8658274 29.4346717,93.7384096 L30.225687,93.1329444 C30.9958861,94.2394842 31.8077176,95.3042677 32.6611815,96.3272951 L31.9326148,97.0162726 Z M28.8726345,92.861529 C28.1232516,91.6923549 27.4779496,90.4187903 26.9367286,89.1034695 L27.8318249,88.7067854 C28.3314135,89.9594719 28.9558993,91.1495241 29.6636498,92.276942 L28.8726345,92.861529 Z M26.5828534,88.1013202 C26.2081619,86.9530243 26.0208162,85.7629721 26,84.5520418 C26,84.2806263 26,84.030089 26.0416324,83.7586736 L26.9991772,83.8421861 C26.978361,84.0718453 26.978361,84.3015045 26.978361,84.5311636 C26.9991772,85.6168253 27.1657068,86.702487 27.519582,87.7463924 L26.5828534,88.1013202 Z M152.125309,86.9530243 C150.917969,86.4310715 149.71063,85.9299969 148.482475,85.4498004 L148.815534,84.4685293 C150.106138,84.9696039 151.313477,85.4706785 152.5,85.9926313 L152.125309,86.9530243 Z M147.566562,85.0948726 C146.338407,84.6355542 145.110252,84.1762358 143.86128,83.7586736 L144.152707,82.7774025 C145.401678,83.1949647 146.65065,83.6542831 147.878805,84.1136015 L147.566562,85.0948726 Z M142.924552,83.4663801 C141.67558,83.0488179 140.426609,82.6521339 139.177637,82.2554498 L139.448247,81.2533006 C140.738851,81.6499846 141.987823,82.0466687 143.215978,82.4642309 L142.924552,83.4663801 Z M27.1448906,82.9026712 L26.1873457,82.673012 C26.4995886,81.2324225 27.1448906,79.8962235 28.0816192,78.7896838 L28.8101859,79.4786613 C27.9983545,80.4599325 27.4155011,81.6291065 27.1448906,82.9026712 Z M138.261725,81.9840344 C137.033569,81.6082284 135.784598,81.2533006 134.493994,80.8983727 L134.743788,79.8962235 C136.034392,80.2511514 137.30418,80.6269573 138.532335,81.0027633 L138.261725,81.9840344 Z M133.536449,80.6269573 C132.287477,80.2929076 131.038506,79.9588578 129.747902,79.6248081 L129.97688,78.6226589 C131.267484,78.9567086 132.537272,79.2907584 133.786243,79.6248081 L133.536449,80.6269573 Z M128.790357,79.3742708 C127.541386,79.0610992 126.271598,78.7479275 124.980994,78.455634 L125.189156,77.4326067 C126.47976,77.7249002 127.749547,78.0380718 129.019335,78.3512435 L128.790357,79.3742708 Z M29.4554879,78.7479275 L28.7893698,77.9963156 C29.788547,77.0150445 30.8918052,76.1799202 32.0783281,75.5118207 L32.5362844,76.4304575 C31.41221,77.0568007 30.3922166,77.8501689 29.4554879,78.7479275 Z M124.023449,78.2468529 C122.753661,77.9545594 121.483874,77.683144 120.19327,77.3908505 L120.380615,76.3678232 C121.671219,76.6392386 122.961823,76.9315321 124.231611,77.2238256 L124.023449,78.2468529 Z M119.235725,77.1820694 C117.965937,76.910654 116.675333,76.6601167 115.384729,76.4095794 L115.572075,75.386552 C116.862679,75.6370893 118.153283,75.9085048 119.423071,76.1799202 L119.235725,77.1820694 Z M114.448001,76.2216764 C113.178213,75.9711391 111.887609,75.7414799 110.597005,75.5118207 L110.763535,74.4887934 C112.054139,74.7184526 113.344742,74.9689899 114.635346,75.1986491 L114.448001,76.2216764 Z M33.3897482,75.9711391 L32.9734244,75.0316242 C34.1807635,74.426159 35.4089189,73.9042063 36.6578904,73.465766 L36.9701333,74.4470372 C35.7419779,74.8854774 34.555455,75.386552 33.3897482,75.9711391 Z M109.63946,75.3239177 C108.369673,75.0942585 107.079069,74.8854774 105.788465,74.6766963 L105.934178,73.653669 C107.224782,73.8624501 108.515386,74.0712312 109.80599,74.3008904 L109.63946,75.3239177 Z M104.810104,74.5305496 C103.5195,74.3217685 102.228896,74.1338655 100.938292,73.9459625 L101.063189,72.9229352 C102.353793,73.1108382 103.644397,73.3196193 104.935001,73.5075223 L104.810104,74.5305496 Z M37.8860457,74.1547436 L37.6154352,73.1525944 C38.8019582,72.7767885 40.0717459,72.4218606 41.4456146,72.108689 L41.6537765,73.1317163 C40.300724,73.4448879 39.0517525,73.7998158 37.8860457,74.1547436 Z M99.9807471,73.7998158 C98.6901432,73.6119128 97.3995392,73.4448879 96.1089353,73.2778631 L96.2338325,72.2548357 C97.5244364,72.4218606 98.8358565,72.6097636 100.12646,72.7767885 L99.9807471,73.7998158 Z M95.1305743,73.1317163 C93.8399704,72.9646914 92.5493665,72.8185447 91.2379464,72.6723979 L91.3420273,71.6493706 C92.6326312,71.7955173 93.9440513,71.9625422 95.2554714,72.108689 L95.1305743,73.1317163 Z M42.5905052,72.9229352 L42.4031595,71.8999079 C43.6937634,71.6284925 44.9843673,71.3988333 46.2957874,71.1900522 L46.4415007,72.2130795 C45.1508968,72.4218606 43.8811091,72.6723979 42.5905052,72.9229352 Z M90.2595853,72.5680074 C88.9689814,72.4218606 87.6575613,72.296592 86.3669574,72.1713233 L86.4502221,71.1274179 C87.7408261,71.2526865 89.0522462,71.3779552 90.3636663,71.5241019 L90.2595853,72.5680074 Z M47.3990456,72.0878109 L47.2741484,71.0647835 C48.5647523,70.8768806 49.8761725,70.7307338 51.1875926,70.6054652 L51.2708573,71.6493706 C49.938621,71.7746392 48.6480171,71.920786 47.3990456,72.0878109 Z M85.4094125,72.0669328 C84.0979924,71.9416641 82.8073885,71.8372736 81.5167846,71.732883 L81.5792332,70.6889776 C82.8698371,70.7933681 84.1812572,70.8977587 85.4926773,71.0230273 L85.4094125,72.0669328 Z M80.5384236,71.6702487 C79.2270035,71.5658582 77.9363995,71.4823457 76.6457956,71.4197114 L76.7082442,70.375806 C77.9988481,70.4593184 79.3102682,70.5428308 80.6216883,70.6263433 L80.5384236,71.6702487 Z M52.2492184,71.54498 L52.1659536,70.5010746 C53.4773737,70.375806 54.7887938,70.2922935 56.1002139,70.2296592 L56.1418463,71.2735646 C54.8512424,71.336199 53.5398223,71.4405895 52.2492184,71.54498 Z M75.6466184,71.3570771 C74.3351983,71.2944427 73.0445944,71.2318084 71.7331743,71.1900522 L71.7748066,70.1461468 C73.0654106,70.187903 74.3768307,70.2505373 75.709067,70.3131716 L75.6466184,71.3570771 Z M57.1202073,71.2109303 L57.078575,70.187903 C58.3691789,70.1252687 59.680599,70.0835124 61.0128353,70.0626343 L61.0336515,71.1065398 C59.680599,71.1274179 58.3899951,71.1691741 57.1202073,71.2109303 Z M70.7756294,71.148296 C69.4642093,71.1065398 68.1527892,71.0856617 66.8621853,71.0647835 L66.8830015,70.0208781 C68.1736054,70.0417562 69.4850255,70.0626343 70.8172618,70.1043905 L70.7756294,71.148296 Z M61.9703801,71.0647835 L61.9495639,70.0208781 C62.823844,70 63.6981241,70 64.5932203,70 L65.8630081,70 L65.8630081,71.0439054 L64.5932203,71.0439054 C63.7397565,71.0439054 62.8654764,71.0647835 61.9703801,71.0647835 Z" id="Shape" fill="#979797" fill-rule="nonzero"></path>
                    <path d="M17,127.5 C17,130.53293 19.4670702,133 22.5,133 C25.5329298,133 28,130.53293 28,127.5 C28,124.46707 25.5329298,122 22.5,122 C19.4670702,122 17,124.46707 17,127.5 Z" id="Shape" stroke="#979797" stroke-width="3" fill-rule="nonzero"></path>
                    <path d="M101.25,63 C99.7246094,63 98.5,61.7753906 98.5,60.25 C98.5,58.7246094 99.7246094,57.5 101.25,57.5 C102.775391,57.5 104,58.7246094 104,60.25 C104,61.7753906 102.775391,63 101.25,63 Z M101.25,58.3378906 C100.175781,58.3378906 99.3164062,59.1972656 99.3164062,60.2714844 C99.3164062,61.3457031 100.175781,62.2050781 101.25,62.2050781 C102.324219,62.2050781 103.183594,61.3457031 103.183594,60.2714844 C103.183594,59.1972656 102.324219,58.3378906 101.25,58.3378906 Z" id="Shape" fill="#959697" fill-rule="nonzero"></path>
                    <path d="M53.7296641,131.890661 L53.7296641,132.887799 L53.1340984,133.691127 L54.0828671,133.996157 L54.6592785,134.811116 L55.2386618,134.016141 L56.1935598,133.70584 L55.6062323,132.875447 L55.6062323,131.890661 L54.6679482,132.205727 L53.7296641,131.890661 Z M152.500607,85.3983745 L152.500607,86.866359 L151.621163,88.0722007 L153.017141,88.5246509 L153.880724,89.7254225 L154.738559,88.5448155 L156.141111,88.0902345 L155.270724,86.8800025 L155.282771,85.4116197 L153.89326,85.8741455 L152.500607,85.3983745 Z" id="Shape" stroke="#979797" stroke-width="2" fill-rule="nonzero"></path>
                    <path d="M29.8541667,115.993239 C29.2083333,115.396391 28.375,115.078072 27.5,115.097967 C28.2916667,115.078072 29.0625,114.779648 29.7083333,114.282275 C30.4166667,113.625742 30.7916667,112.690681 30.75,111.715829 C30.7083333,110.740978 30.75,113.327318 31.7916667,114.322065 C32.4166667,114.859228 33.1875,115.137757 34,115.097967 C33.2083333,115.157652 32.4583333,115.436181 31.8333333,115.913659 C31.1041667,116.550297 30.7083333,117.505254 30.75,118.5 C30.7916667,117.584833 30.4583333,116.669666 29.8541667,115.993239 Z" id="Shape" fill="#959697" fill-rule="nonzero"></path>
                    <g id="Group-6" transform="translate(35.500000, 74.000000)" fill-rule="nonzero">
                        <path d="M89,2 L9.17550282,2 C9.17550282,2 4.5,3.51761237 4.5,12.6235546 C4.5,21.7294969 9.17550282,23.5 9.17550282,23.5 L89,23.5 C89,23.5 84.9799281,21.7293629 84.9799281,12.749933 C84.9799281,3.77050309 89,2 89,2 Z" id="Shape" fill="#FFFFFF"></path>
                        <path d="M92,24 L8.53954638,24 L8.2656583,23.9002087 C8.03026119,23.8145254 2.5,21.6874565 2.5,11.8777524 C2.5,2.01135757 8.10017334,0.149492792 8.33871258,0.0750699736 L8.57921564,0 L92,0 L92,3.23577473 L9.16901765,3.23577473 C8.41975308,3.62238509 5.77317203,5.44438512 5.77317203,11.8778819 C5.77317203,18.3002475 8.41464713,20.3060396 9.20999612,20.7642253 L92,20.7642253 L92,24 Z" id="Shape" fill="#959697"></path>
                        <path d="M16,6.5 L46.2197098,6.5 L46.2197098,9.04371559 L16,9.04371559 L16,6.5 Z M33.4580173,11.2099105 L78.5,11.2099105 L78.5,14.3156615 L33.4580173,14.3156615 L33.4580173,11.2099105 Z M16.754078,16.394249 L36.4536805,16.394249 L36.4536805,19.5 L16.754078,19.5 L16.754078,16.394249 Z" id="Shape" fill="#959697"></path>
                        <path d="M101.5,27.5 L21.6755028,27.5 C21.6755028,27.5 17,29.0176124 17,38.1235546 C17,47.2294969 21.6755028,49 21.6755028,49 L101.5,49 C101.5,49 97.4799281,47.2293629 97.4799281,38.249933 C97.4799281,29.2705031 101.5,27.5 101.5,27.5 Z" id="Shape" fill="#FFFFFF"></path>
                        <path d="M104.5,50 L21.0395375,50 L20.7656499,49.9002087 C20.5302531,49.8145254 15,47.6874565 15,37.8777524 C15,28.0113576 20.6001652,26.1494928 20.838704,26.07507 L21.0792067,26 L104.5,26 L104.5,29.2357747 L21.668877,29.2357747 C20.9196135,29.6223851 18.2730363,31.4443851 18.2730363,37.8778819 C18.2730363,44.3002475 20.9145076,46.3060396 21.7098554,46.7642253 L104.499869,46.7642253 L104.5,50 Z" id="Shape" fill="#959697"></path>
                        <polygon id="Shape" fill="#959697" points="29 41.5 85.5 41.5 85.5 44 29 44"></polygon>
                        <path d="M86.5,53 L6.67550282,53 C6.67550282,53 2,54.5176124 2,63.6235546 C2,72.7294969 6.67550282,74.5 6.67550282,74.5 L86.5,74.5 C86.5,74.5 82.4799281,72.7293629 82.4799281,63.749933 C82.4799281,54.7705031 86.5,53 86.5,53 Z" id="Shape" fill="#FFFFFF"></path>
                        <path d="M89.5,75 L6.03940663,75 L5.76551895,74.9002087 C5.52999125,74.814396 0,72.6873271 0,62.8777524 C0,53.0113576 5.60003423,51.1494928 5.8384422,51.07507 L6.07907583,51 L89.5,51 L89.5,54.2357747 L6.66874605,54.2357747 C5.91948258,54.6223851 3.2729054,56.4443851 3.2729054,62.8778819 C3.2729054,69.3001181 5.91424572,71.3060396 6.70959354,71.7642253 L89.4997382,71.7642253 L89.5,75 Z" id="Shape" fill="#959697"></path>
                        <polygon id="Shape" fill="#FFFFFF" points="17.5602078 63 11 82 31 74.5653744"></polygon>
                        <polygon id="Shape" fill="#F2F2F2" points="24 67.931783 31.0425 75 73.5 32.2517003 66.8246121 26"></polygon>
                        <polygon id="Shape" fill="#FFFFFF" points="18 61.931783 25.0423707 69 67.5 26.2517003 60.8246121 20"></polygon>
                        <polygon id="Shape" fill="#FFFFFF" points="67 13.9386704 74.549983 6.39852154 79.8307295 6 86.6065629 13.0485862 87 18.5836076 78.4933517 27.5"></polygon>
                        <path d="M30.527812,76.168658 L17.8313544,63.4715945 C17.619192,63.2594371 17.5,62.9716874 17.5,62.6716486 C17.5,62.3716097 17.619192,62.08386 17.8313544,61.8717027 L73.0858017,6.61785812 C74.5603354,5.14293745 76.5601423,4.38342723 78.6635906,4.51454874 C80.4928865,4.62852762 82.1932851,5.50149327 83.4894562,6.79739775 L87.382288,10.689953 C90.2057295,13.5131221 90.2059912,18.0907284 87.3825497,20.9141592 L32.127579,76.168658 C31.9154432,76.3808117 31.627714,76.5 31.3276955,76.5 C31.0276769,76.5 30.7399478,76.3808117 30.527812,76.168658 Z M20.4464664,62.6716486 L31.3277609,73.5536869 L85.6750847,19.2065698 C87.5520138,17.3299096 87.5516212,14.2749878 85.6746921,12.3976733 L81.6019274,8.32531665 C80.6927101,7.41571026 79.483692,6.91490984 78.1978588,6.91490984 C76.9120256,6.91490984 75.7030074,7.41571026 74.7933976,8.32531665 L20.4464664,62.6716486 Z" id="Shape" fill="#959697"></path>
                        <polygon id="Shape" fill="#959697" points="74.1446238 32 61.5 19.3554686 66.8553762 14 79.5 26.6445314"></polygon>
                        <path d="M74.4066496,34 L60,19.5935679 L67.0940097,12.5 L81.5,26.9064321 L74.4066496,34 Z M63.4420413,19.5935679 L74.4067815,30.5586444 L78.0587499,26.906564 L67.0940097,15.9414875 L63.4420413,19.5935679 Z" id="Shape" fill="#959697"></path>
                        <path d="M80.5956432,19.9563274 L78.8840618,18.2542093 L81.2594728,15.8923231 C81.6877289,15.4660435 81.6877289,14.7724913 81.2590793,14.3462118 L80.1090184,13.2021181 L81.8205997,11.5 L82.9710542,12.6440937 C84.3429163,14.0091535 84.3429163,16.2292509 82.9714477,17.5944412 L80.5956432,19.9563274 Z M66.599606,24.9340674 L68.3113185,26.6360551 L25.7115814,69 L24,67.2978819 L66.599606,24.9340674 Z" id="Shape" fill="#959697"></path>
                        <polygon id="Shape" fill="#959697" points="9 84.5 17.3899412 62 19.6473051 62.8423759 13.1008321 80.3994888 30.6582379 73.8531892 31.5 76.1105789"></polygon>
                        <polygon id="Shape" fill="#959697" points="11 82 18 78.8338134 14.1662418 75"></polygon>
                        <path d="M8.5,84.5 L13.7013332,73 L20,79.2981981 L8.5,84.5 Z M14.4312174,77.001984 L13.1364315,79.8638212 L15.9984247,78.5692313 L14.4312174,77.001984 Z" id="Shape" fill="#959697"></path>
                    </g>
                </g>
            </g>
        </g>
    </g>
</svg>