<?xml version="1.0" standalone="no"?><!DOCTYPE svg PUBLIC "-//W3C//DTD SVG 1.1//EN" "http://www.w3.org/Graphics/SVG/1.1/DTD/svg11.dtd"><svg t="1523858085379" class="icon" style="" viewBox="0 0 1030 1024" version="1.1" xmlns="http://www.w3.org/2000/svg" p-id="9010" xmlns:xlink="http://www.w3.org/1999/xlink" width="201.171875" height="200"><defs><style type="text/css"></style></defs><path d="M570.008 512h-58.008v-94.922c0-10.547-5.273-15.82-15.82-15.82-15.82 0-21.094 5.273-21.094 15.82v110.742c0 10.547 5.273 21.094 21.094 21.094h73.828c10.547 0 21.094-5.273 21.094-21.094s-10.547-15.82-21.094-15.82zM933.875 501.453c-63.281-168.75-226.758-284.766-421.875-284.766s-353.32 116.016-421.875 284.766c0 5.273 0 15.82 5.273 21.094 63.281 168.75 226.758 284.766 421.875 284.766s353.32-116.016 421.875-284.766c-5.273-5.273-5.273-15.82-5.273-21.094zM512 775.672c-168.75 0-321.68-105.469-384.961-263.672 63.281-158.203 216.211-263.672 384.961-263.672s321.68 105.469 384.961 263.672c-63.281 158.203-216.211 263.672-384.961 263.672zM512 285.242c-121.289 0-226.758 105.469-226.758 226.758s100.195 226.758 226.758 226.758 226.758-100.195 226.758-226.758-100.195-226.758-226.758-226.758zM512 701.844c-105.469 0-189.844-84.375-189.844-189.844s89.648-189.844 189.844-189.844 189.844 84.375 189.844 189.844-84.375 189.844-189.844 189.844z" p-id="9011"></path></svg>