<?xml version="1.0" encoding="utf-8"?>
<!-- Generator: Adobe Illustrator 22.0.0, SVG Export Plug-In . SVG Version: 6.00 Build 0)  -->
<svg version="1.1" id="图层_1" xmlns="http://www.w3.org/2000/svg" xmlns:xlink="http://www.w3.org/1999/xlink" x="0px" y="0px"
	 viewBox="0 0 1024 1024" style="enable-background:new 0 0 1024 1024;" xml:space="preserve">
<style type="text/css">
	.st0{fill:#4A505A;}
</style>
<g id="Group-3" transform="translate(227.000000, 2025.000000)">
	<g id="Group-6" transform="translate(198.000000, 0.000000)">
		<g id="钱包" transform="translate(33.000000, 29.000000)">
			<g id="钱袋-_x28_1_x29_">
				<g id="Shape">
					<path class="st0" d="M51.1-1030c-323.7,0-395.2-167.8-398.1-308.6c-2.1-100.8,38.8-201.6,125.1-308
						c10.6-13.1,22.6-26.4,41.6-45.9l11-11.3c55.6-56.8,69.9-76.6,73.1-100.7l0,0c-3.1-7.1-11.5-18.2-30.4-42
						c-37.6-47.3-80.2-100.9-43.3-137.2c47.3-46.7,125-70.3,231.1-70.3c105.3,0,185.3,24.4,231.3,70.5c32.2,32.4,0,78.6-13.8,98.4
						c-6.2,8.9-13.1,18.1-23.2,30.9l-6.8,8.5c-18.8,23.6-27.1,34.6-30.1,41.7l0,0c2.5,26.4,16.2,47.1,73.3,110.5
						c20.8,23.1,30.1,33.7,40.8,46.9c84.2,103.8,124.1,204.1,122,306.4C450.7-1134.3,314.8-1030,51.1-1030z M-132.6-1948.5
						c1.1,6.5,9.4,23.9,46.1,70.1c22,27.7,31.6,40.3,37.3,53.5l5.6,13l-1.9,14c-5.6,42.5-30.9,72.2-87.3,129.8l-10.9,11.1
						c-17.8,18.3-29,30.7-38.6,42.5c-78.4,96.6-115.5,186.4-113.7,274.7c3.6,171.5,120.3,258.5,346.9,258.5
						c236.9,0,349-82.6,352.7-260c1.9-89.8-34.3-179.1-110.6-273.2l0,0c-10.3-12.7-19.2-22.8-39.1-44.9c-58-64.4-82-95.1-86.2-140
						l-1.2-12.9l5.1-12c5.6-13.2,15.2-25.8,37.1-53.5l6.6-8.3c9.3-11.8,15.7-20.2,21.4-28.4c14.9-21.4,17.7-31.1,18.2-34.3
						c-25.8-25-80.2-54.2-193.8-54.2C-29.8-2002.8-95-1984.5-132.6-1948.5z"/>
				</g>
				<g id="Shape_1_">
					<path class="st0" d="M72.3-1457.3c-5.2-3.4-9.9-6.4-13.9-9.3c-24.2-17.4-38.8-34.7-41.1-48.9c-0.7-4.3-0.9-11.2,6-20.8
						c7-9.8,17.5-15.2,31.2-16.1c20.3-1.4,40.4,7.9,46.5,14.7c9.6,10.6,25.7,11.2,36,1.4c10.3-9.8,7.1-26.3-2.5-36.9
						c-14.4-15.9-29.8-27-68.7-30.3v-14.8c0-14.4-11.1-26.1-25.1-26.1c-14.1,0-25.1,11.7-25.1,26.1v20.1
						c-13.7,6.2-26.7,16.8-37,31.3c-13.2,18.6-16.6,39.4-13.3,60.1c4.7,28.9,26.5,56.8,63,83c4.5,3.2,10.3,6.8,16.2,10.6
						c50.5,32.8,62.6,49.8,51,72.4c-6.1,11.9-17.8,20.1-32.4,22.3c-20.1,3.1-41.1-4.9-57.6-22c-9.9-10.2-26-10.3-36-0.2
						c-10,10.1-13.5,26.7-3.6,36.9c15.5,16,35.9,27.2,49.6,33.2v43.8c0,14.4,11.1,26.1,25.1,26.1c14.1,0,25.1-11.7,25.1-26.1v-40.6
						c38.8-5.3,58-23.1,71.3-49.2C174.1-1388.7,106.6-1435,72.3-1457.3z"/>
				</g>
			</g>
		</g>
	</g>
</g>
</svg>
