<?xml version="1.0" encoding="utf-8"?>
<!-- Generator: Adobe Illustrator 22.0.0, SVG Export Plug-In . SVG Version: 6.00 Build 0)  -->
<svg version="1.1" id="图层_1" xmlns="http://www.w3.org/2000/svg" xmlns:xlink="http://www.w3.org/1999/xlink" x="0px" y="0px"
	 viewBox="0 0 1024 1024" style="enable-background:new 0 0 1024 1024;" xml:space="preserve">
<style type="text/css">
	.st0{fill:#4A505A;}
</style>
<path class="st0" d="M512,1024C229.7,1024,0,794.3,0,512C0,229.7,229.7,0,512,0c282.3,0,512,229.7,512,512
	C1024,794.3,794.3,1024,512,1024z M512,20.9C241.2,20.9,20.9,241.2,20.9,512s220.3,491.1,491.1,491.1s491.1-220.3,491.1-491.1
	S782.8,20.9,512,20.9z"/>
<path class="st0" d="M510.8,721c-132.1,0-161.3-68.5-162.5-126c-0.9-41.2,15.8-82.3,51.1-125.7c4.5-5.6,9.5-11.1,17-18.7l4.5-4.6
	c22.7-23.2,28.6-31.3,29.9-41.1l0,0c-1.2-2.9-4.7-7.4-12.4-17.1c-15.3-19.3-32.7-41.2-17.7-56c19.3-19,51-28.7,94.3-28.7
	c43,0,75.6,9.9,94.4,28.8c13.2,13.2,0,32.1-5.6,40.2c-2.5,3.6-5.4,7.4-9.5,12.6l-2.8,3.5c-7.5,9.4-11,14.1-12.3,17l0,0
	c1,10.8,6.6,19.2,29.9,45.1c8.5,9.4,12.3,13.8,16.7,19.2l0,0c34.4,42.4,50.7,83.3,49.8,125.1C673.9,678.4,618.4,721,510.8,721z
	 M515,323.9c-37.6,0-64.4,7.6-79.7,22.7c0.4,0.9,2.9,7.4,19.4,28.1c9,11.3,12.9,16.5,15.2,21.8l2.3,5.3l-0.7,5.7
	c-2.3,17.4-12.6,29.5-35.6,53l-4.4,4.6c-6.9,7.1-11.5,12.2-15.7,17.3c-32,39.4-47.2,76.1-46.4,112.1c1.5,70,49.1,105.5,141.6,105.5
	c96.7,0,142.5-33.7,144-106.1c0.7-36.6-14-73.1-45.1-111.5l0,0c-4.2-5.2-7.8-9.3-16-18.3c-23.7-26.3-33.5-38.8-35.2-57.1l-0.5-5.3
	l2.1-4.9c2.3-5.5,6.2-10.6,15.2-21.9l2.8-3.5c3.7-4.7,6.4-8.2,8.7-11.5c7.5-10.8,7.5-14.2,7.5-14.5
	C584.3,336.2,562.1,323.9,515,323.9z"/>
<path id="Shape_1_" class="st0" d="M519.5,497.8c-2.1-1.4-4-2.6-5.7-3.8c-9.9-7.1-15.8-14.2-16.8-19.9c-0.3-1.8-0.4-4.6,2.4-8.5
	c2.8-4,7.1-6.2,12.7-6.6c8.3-0.6,16.5,3.2,19,6c3.9,4.3,10.5,4.6,14.7,0.6c4.2-4,2.9-10.7-1-15.1c-5.9-6.5-12.2-11-28-12.4v-6
	c0-5.9-4.5-10.7-10.3-10.7s-10.3,4.8-10.3,10.7v8.2c-5.6,2.5-10.9,6.9-15.1,12.8c-5.4,7.6-6.8,16.1-5.4,24.5
	c1.9,11.8,10.8,23.2,25.7,33.9c1.8,1.3,4.2,2.8,6.6,4.3c20.6,13.4,25.6,20.3,20.8,29.6c-2.5,4.9-7.3,8.2-13.2,9.1
	c-8.2,1.3-16.8-2-23.5-9c-4-4.2-10.6-4.2-14.7-0.1c-4.1,4.1-5.5,10.9-1.5,15.1c6.3,6.5,14.6,11.1,20.2,13.5v17.9
	c0,5.9,4.5,10.7,10.3,10.7s10.3-4.8,10.3-10.7v-16.6c15.8-2.2,23.7-9.4,29.1-20.1C561,525.8,533.4,506.9,519.5,497.8z"/>
</svg>
