<?xml version="1.0" encoding="UTF-8"?>
<svg width="98px" height="98px" viewBox="0 0 98 98" version="1.1" xmlns="http://www.w3.org/2000/svg" xmlns:xlink="http://www.w3.org/1999/xlink">
    <!-- Generator: Sketch 49.2 (51160) - http://www.bohemiancoding.com/sketch -->
    <title>page_icon_invest_pre@3x</title>
    <desc>Created with Sketch.</desc>
    <defs>
        <circle id="path-1" cx="49" cy="49" r="49"></circle>
    </defs>
    <g id="切图" stroke="none" stroke-width="1" fill="none" fill-rule="evenodd">
        <g id="iPhone-8" transform="translate(-969.000000, -218.000000)">
            <g id="page_icon_invest_pre" transform="translate(969.000000, 218.000000)">
                <g id="Oval-Copy">
                    <use fill="#FFFFFF" fill-rule="evenodd" xlink:href="#path-1"></use>
                    <circle stroke="#0686D8" stroke-width="2" cx="49" cy="49" r="48"></circle>
                </g>
                <g id="钱袋-(1)" transform="translate(33.000000, 29.000000)" fill-rule="nonzero">
                    <path d="M26.5637829,15.9142559 C26.0533275,15.2846242 25.5021599,14.6728788 24.9688381,14.0810781 C23.5582852,12.5149128 22.2238168,11.0334211 22.1045098,9.76564928 C22.2391981,9.44882066 22.8619774,8.66374811 23.2814691,8.1357157 C24.7511734,6.28410274 26.4171822,4.18542201 24.9887378,2.7532433 C23.9628978,1.7250828 21.4250893,0 15.9533948,0 C11.8092311,0 8.77940641,0.916588887 6.9250349,2.74674756 C5.48367396,4.16497412 7.14721811,6.25917186 8.6149142,8.10630183 C9.03636848,8.63680447 9.66115602,9.4233866 9.80081924,9.74671096 C9.64623123,10.9183272 8.27296753,12.3226016 6.94393052,13.6815429 C6.24410826,14.3973578 5.52046108,15.1371429 4.89024222,15.9142102 C1.51897295,20.0712247 -0.0794406601,24.0065598 0.00303365189,27.9449141 C0.221246023,38.4338347 9.83956889,40 15.5533007,40 C25.8540564,40 31.1622171,35.9241825 31.3302238,27.8851256 C31.4127438,23.8870743 29.853582,19.971135 26.5637829,15.9142559 Z" id="Shape" fill="#0686D8"></path>
                    <path d="M16.3813153,23.3091026 C16.1792688,23.177662 15.993725,23.0576967 15.8392688,22.9466466 C14.8936199,22.2680474 14.3233849,21.5904997 14.2330661,21.0378549 C14.2053684,20.8686051 14.1995701,20.6007407 14.4657095,20.2253463 C14.7376917,19.8414941 15.1476275,19.629909 15.6838313,19.5965346 C16.4779676,19.5432726 17.2604182,19.9042199 17.5008223,20.1695698 C17.8752996,20.5827733 18.5052565,20.6061812 18.9064503,20.2223289 C19.309116,19.8389796 19.1841862,19.1937549 18.8101995,18.7815115 C18.2473239,18.1607919 17.6450202,17.724912 16.1285565,17.5964888 L16.1285565,17.0196132 C16.1285565,16.4565446 15.696632,16 15.1473153,16 C14.5979987,16 14.1660742,16.4565446 14.1660742,17.0196132 L14.1660742,17.8047364 C13.6308517,18.0484158 13.1215429,18.4623966 12.721821,19.026471 C12.2064909,19.7533489 12.0715703,20.5653546 12.203681,21.3743428 C12.3877529,22.5024917 13.2382661,23.5937914 14.6647677,24.6168793 C14.8405883,24.7433365 15.0686377,24.8812234 15.2993632,25.0310885 C17.272773,26.3140859 17.744973,26.9747177 17.291818,27.8604215 C17.0533318,28.3269327 16.5946461,28.6445389 16.0259276,28.7321812 C15.2405333,28.8526494 14.4218213,28.5395236 13.776343,27.8713939 C13.3892434,27.4716317 12.7612936,27.4696201 12.3703136,27.8649019 C11.9803148,28.2611896 11.8436546,28.9069172 12.2302637,29.3071824 C12.8353327,29.9328853 13.6308517,30.3698624 14.1660742,30.6023408 L14.1660742,32.3137201 C14.1660742,32.8767887 14.5979987,33.3333333 15.1473153,33.3333333 C15.696632,33.3333333 16.1285565,32.8767887 16.1285565,32.3137201 L16.1285565,30.7280209 C17.6450202,30.5196818 18.3929044,29.8269099 18.9146125,28.8072967 C20.3561896,25.9885704 17.7194161,24.1788964 16.3813153,23.3091026 Z" id="Shape" fill="#FFFFFF"></path>
                </g>
            </g>
        </g>
    </g>
</svg>