<?xml version="1.0" encoding="UTF-8"?>
<svg width="269px" height="74px" viewBox="0 0 269 74" version="1.1" xmlns="http://www.w3.org/2000/svg" xmlns:xlink="http://www.w3.org/1999/xlink">
    <!-- Generator: Sketch 49.2 (51160) - http://www.bohemiancoding.com/sketch -->
    <title>iPhone</title>
    <desc>Created with Sketch.</desc>
    <defs>
        <rect id="path-1" x="0" y="0" width="269" height="74"></rect>
    </defs>
    <g id="登录" stroke="none" stroke-width="1" fill="none" fill-rule="evenodd">
        <g id="登录-copy" transform="translate(-420.000000, -688.000000)">
            <g id="iPhone" transform="translate(420.000000, 688.000000)">
                <g id="苹果">
                    <mask id="mask-2" fill="white">
                        <use xlink:href="#path-1"></use>
                    </mask>
                    <use id="Mask" fill="#3B84D1" xlink:href="#path-1"></use>
                    <g mask="url(#mask-2)" fill="#FFFFFF" fill-opacity="0.5" fill-rule="nonzero" id="Shape">
                        <g transform="translate(-9.000000, 13.000000)">
                            <path d="M58.4708738,52.6358149 C60.6601942,55.7478203 63.1699029,57.7598927 66,58.6720322 C64.7718447,62.481556 62.8228155,66.4520456 60.1529126,70.583501 C56.0412621,76.8075117 51.9830097,79.9195171 47.9781553,79.9195171 C46.4830097,79.9195171 44.2669903,79.4097921 41.3300971,78.3903421 C38.6067961,77.370892 36.2305825,76.861167 34.2014563,76.861167 C32.1723301,76.861167 29.9296117,77.3977197 27.473301,78.4708249 C24.9101942,79.490275 22.8009709,80 21.1456311,80 C16.3398058,80 11.6140777,75.8953722 6.9684466,67.6861167 C2.32281553,59.5841717 0,51.6163649 0,43.7826962 C0,36.5392354 1.76213592,30.6103286 5.28640777,25.9959759 C8.91747573,21.3816231 13.4029126,19.0744467 18.7427184,19.0744467 C19.9174757,19.0744467 21.2257282,19.2219987 22.6674757,19.5171026 C24.1092233,19.8122066 25.6043689,20.362173 27.1529126,21.167002 C28.8082524,22.0791415 30.1699029,22.7095909 31.2378641,23.0583501 C32.3058252,23.4071093 33.1334951,23.5814889 33.7208738,23.5814889 C34.4150485,23.5814889 35.4830097,23.4205231 36.9247573,23.0985915 C38.3665049,22.77666 39.8082524,22.186452 41.25,21.3279678 C42.7985437,20.4694836 44.1334951,19.8256204 45.2548544,19.3963783 C46.3762136,18.9671362 47.5242718,18.7525151 48.6990291,18.7525151 C52.4368932,18.7525151 55.8009709,19.7719651 58.7912621,21.8108652 C60.3932039,22.8839705 62.0218447,24.4668008 63.6771845,26.5593561 C61.2208738,28.7055667 59.4320388,30.583501 58.3106796,32.193159 C56.2281553,35.1978538 55.1868932,38.4708249 55.1868932,42.0120724 C55.1868932,45.9289068 56.2815534,49.4701543 58.4708738,52.6358149 Z M42.3713592,15.0503018 C40.5024272,16.8209256 38.7936893,17.9745137 37.2451456,18.5110664 C36.711165,18.6720322 36.0303398,18.8195842 35.2026699,18.9537223 C34.375,19.0878605 33.4271845,19.2085848 32.3592233,19.3158954 C32.4126214,14.5942321 33.6407767,10.5164319 36.0436893,7.08249497 C38.4466019,3.64855801 42.3980583,1.28772636 47.8980583,0 C48.0048544,0.536552649 48.0849515,0.912139504 48.1383495,1.12676056 L48.1383495,2.01207243 C48.1383495,3.94366197 47.684466,6.1167002 46.776699,8.53118712 C45.815534,10.8920188 44.3470874,13.065057 42.3713592,15.0503018 Z"></path>
                        </g>
                    </g>
                </g>
                <path d="M99.724,25.912 C100.132,25.912 100.468,26.032 100.756,26.32 C101.044,26.56 101.188,26.896 101.188,27.328 C101.188,27.736 101.044,28.072 100.756,28.36 C100.468,28.624 100.132,28.768 99.724,28.768 C99.316,28.768 98.98,28.624 98.692,28.36 C98.404,28.072 98.284,27.736 98.284,27.328 C98.284,26.896 98.404,26.56 98.692,26.32 C98.98,26.032 99.316,25.912 99.724,25.912 Z M98.764,30.592 L100.684,30.592 L100.684,43 L98.764,43 L98.764,30.592 Z M104.524,25.864 L111.532,25.864 C115.468,25.864 117.436,27.544 117.436,30.904 C117.436,34.288 115.444,35.992 111.508,35.992 L106.492,35.992 L106.492,43 L104.524,43 L104.524,25.864 Z M106.492,27.568 L106.492,34.288 L111.412,34.288 C112.804,34.288 113.812,34 114.484,33.448 C115.132,32.896 115.468,32.056 115.468,30.904 C115.468,29.752 115.132,28.912 114.46,28.408 C113.788,27.832 112.78,27.568 111.412,27.568 L106.492,27.568 Z M119.692,25.528 L121.612,25.528 L121.612,32.632 C122.044,31.84 122.62,31.24 123.34,30.832 C124.012,30.448 124.756,30.256 125.596,30.256 C127.036,30.256 128.164,30.664 128.932,31.528 C129.7,32.368 130.084,33.592 130.084,35.176 L130.084,43 L128.164,43 L128.164,35.464 C128.164,34.312 127.876,33.424 127.348,32.8 C126.772,32.176 125.98,31.864 124.948,31.864 C123.988,31.864 123.196,32.248 122.572,33.016 C121.924,33.784 121.612,34.768 121.612,35.92 L121.612,43 L119.692,43 L119.692,25.528 Z M138.58,30.256 C140.428,30.256 141.916,30.88 143.02,32.176 C144.076,33.4 144.604,34.936 144.604,36.808 C144.604,38.656 144.076,40.192 143.044,41.392 C141.916,42.688 140.428,43.336 138.58,43.336 C136.708,43.336 135.244,42.688 134.14,41.392 C133.084,40.192 132.556,38.656 132.556,36.808 C132.556,34.936 133.084,33.4 134.14,32.176 C135.244,30.88 136.708,30.256 138.58,30.256 Z M138.58,31.864 C137.26,31.864 136.228,32.368 135.508,33.376 C134.836,34.288 134.524,35.416 134.524,36.808 C134.524,38.176 134.836,39.304 135.508,40.216 C136.228,41.224 137.26,41.728 138.58,41.728 C139.876,41.728 140.908,41.224 141.676,40.216 C142.324,39.304 142.66,38.152 142.66,36.808 C142.66,35.416 142.324,34.288 141.676,33.376 C140.908,32.368 139.876,31.864 138.58,31.864 Z M152.908,30.256 C155.98,30.256 157.54,31.96 157.54,35.368 L157.54,43 L155.62,43 L155.62,35.512 C155.62,33.088 154.516,31.888 152.356,31.888 C151.492,31.888 150.748,32.2 150.124,32.824 C149.452,33.496 149.092,34.384 149.02,35.512 L149.02,43 L147.1,43 L147.1,30.592 L149.02,30.592 L149.02,32.416 C149.452,31.72 150.004,31.192 150.676,30.832 C151.348,30.448 152.092,30.256 152.908,30.256 Z M165.628,30.256 C167.62,30.256 169.132,30.928 170.14,32.272 C171.052,33.472 171.532,35.176 171.58,37.336 L161.788,37.336 C161.884,38.728 162.244,39.808 162.916,40.576 C163.588,41.344 164.524,41.728 165.7,41.728 C166.708,41.728 167.548,41.464 168.172,40.96 C168.7,40.528 169.108,39.88 169.42,39.016 L171.34,39.016 C171.052,40.216 170.5,41.176 169.66,41.944 C168.628,42.856 167.308,43.336 165.7,43.336 C163.924,43.336 162.484,42.736 161.428,41.584 C160.324,40.384 159.796,38.8 159.796,36.784 C159.796,34.96 160.3,33.424 161.356,32.2 C162.412,30.904 163.828,30.256 165.628,30.256 Z M165.676,31.864 C164.572,31.864 163.684,32.224 163.012,32.944 C162.34,33.664 161.956,34.624 161.836,35.848 L169.588,35.848 C169.348,33.184 168.028,31.864 165.676,31.864 Z" fill="#FFFFFF"></path>
            </g>
        </g>
    </g>
</svg>