<?xml version="1.0" encoding="utf-8"?>
<!-- Generator: Adobe Illustrator 22.0.0, SVG Export Plug-In . SVG Version: 6.00 Build 0)  -->
<svg version="1.1" id="图层_1" xmlns="http://www.w3.org/2000/svg" xmlns:xlink="http://www.w3.org/1999/xlink" x="0px" y="0px"
	 viewBox="0 0 200 200" style="enable-background:new 0 0 200 200;" xml:space="preserve">
<style type="text/css">
	.st0{fill:#40B061;}
</style>
<g>
	<path class="st0" d="M135.4,67.8c2.3,0,4.6,0.2,6.8,0.4c-6.1-28.5-36.6-49.7-71.4-49.7C31.9,18.6,0,45.1,0,78.8
		c0,19.4,10.6,35.4,28.3,47.8l-7.1,21.3L46,135.4c8.9,1.7,16,3.6,24.8,3.6c2.2,0,4.4-0.1,6.6-0.3c-1.4-4.8-2.2-9.8-2.2-14.8
		C75.2,92.9,101.8,67.8,135.4,67.8z M97.3,48.7c5.3,0,8.9,3.5,8.9,8.8s-3.5,8.9-8.9,8.9c-5.3,0-10.6-3.6-10.6-8.9
		C86.7,52.2,92,48.7,97.3,48.7z M47.8,66.3c-5.3,0-10.7-3.6-10.7-8.9s5.4-8.8,10.7-8.8s8.8,3.5,8.8,8.8
		C56.6,62.8,53.1,66.3,47.8,66.3z"/>
	<path class="st0" d="M200,123c0-28.3-28.3-51.4-60.1-51.4c-33.7,0-60.2,23.1-60.2,51.4s26.5,51.4,60.2,51.4
		c7.1,0,14.2-1.8,21.2-3.6l19.4,10.6l-5.3-17.7C189.4,153.1,200,139,200,123z M120.4,114.2c-3.5,0-7.1-3.5-7.1-7.1
		c0-3.5,3.6-7.1,7.1-7.1c5.4,0,8.9,3.6,8.9,7.1C129.2,110.7,125.7,114.2,120.4,114.2z M159.3,114.2c-3.5,0-7-3.5-7-7.1
		c0-3.5,3.5-7.1,7-7.1c5.3,0,8.9,3.6,8.9,7.1C168.2,110.7,164.6,114.2,159.3,114.2z"/>
</g>
</svg>
