<?xml version="1.0" encoding="UTF-8"?>
<svg width="123px" height="36px" viewBox="0 0 123 36" version="1.1" xmlns="http://www.w3.org/2000/svg" xmlns:xlink="http://www.w3.org/1999/xlink">
    <!-- Generator: Sketch 49.2 (51160) - http://www.bohemiancoding.com/sketch -->
    <title>logo</title>
    <desc>Created with Sketch.</desc>
    <defs></defs>
    <g id="关于我们" stroke="none" stroke-width="1" fill="none" fill-rule="evenodd">
        <g transform="translate(-410.000000, -13.000000)" id="Group-6">
            <g>
                <g id="logo" transform="translate(410.000000, 13.000000)">
                    <g id="Group" transform="translate(47.000000, 5.000000)" fill="#4A505A">
                        <path d="M2.87501593,13.3802555 L20.4816746,13.3802555 L20.4816746,10.8862201 L2.87501593,10.8862201 L2.87501593,13.3802555 Z M1.6824159,4.79001566 L21.6458444,4.79001566 L21.6458444,2.24062254 L1.6824159,2.24062254 L1.6824159,4.79001566 Z M0.185416102,23.0511951 L23.1707843,23.0511951 L23.1707843,20.5022918 L0.185416102,20.5022918 L0.185416102,23.0511951 Z" id="Fill-1"></path>
                        <path d="M42.1812684,12.2972256 L45.9306189,16.8010241 L45.9306189,9.17485253 L42.5390923,9.17485253 C42.4840049,10.2802859 42.3738303,11.3026775 42.1812684,12.2972256 Z M36.4453617,6.88143237 L40.1956872,6.88143237 C40.1956872,5.91472768 40.1956872,4.64321059 40.2229871,3.56562063 L36.4731491,3.56562063 C36.4731491,4.64321059 36.4453617,5.88688424 36.4453617,6.88143237 Z M33.9079323,9.17485253 L30.6543677,9.17485253 L30.6543677,18.3485332 C32.8329982,15.4195987 33.6051958,13.181377 33.9079323,9.17485253 Z M34.0463818,6.88143237 C34.0736818,5.94208263 34.0463818,4.67105403 34.0736818,3.56562063 L27.0420042,3.56562063 L27.0420042,1.27268894 L49.5434699,1.27268894 L49.5434699,3.56562063 L42.621967,3.56562063 C42.621967,4.61585564 42.5946671,5.8590408 42.5946671,6.88143237 L48.3856611,6.88143237 L48.3856611,20.862747 C48.3856611,23.4600026 47.5305888,24.1507153 45.0487342,24.1507153 L42.0433063,24.1507153 L41.6021202,21.8572951 L44.3594114,21.8572951 C45.738057,21.8572951 45.9306189,21.4704178 45.9306189,20.2824311 L45.9306189,17.7403739 L44.5797607,18.9283606 C43.8075632,17.9338125 42.5390923,16.3032616 41.4914581,15.004878 C40.7197481,17.3261416 39.5063644,19.4813216 37.7416201,21.6638565 L35.728739,20.4206713 C38.5689049,16.9392644 39.9197631,13.8994446 40.1401124,9.17485253 L36.362487,9.17485253 C36.3073996,10.0590039 36.2245249,10.8879568 36.1143503,11.6895548 L38.9267288,15.0600764 L37.1346845,16.6627839 L35.4250275,14.507604 C34.7357046,16.5802305 33.6329832,18.5141284 32.0057134,20.5584231 L30.6543677,19.6190733 L30.6543677,24.2611121 L28.2826877,24.2611121 L28.2826877,6.88143237 L34.0463818,6.88143237 Z" id="Fill-2"></path>
                        <path d="M68.6504375,19.3012909 L73.549068,19.3012909 L73.549068,4.83800012 L68.6504375,4.83800012 L68.6504375,19.3012909 Z M75.9161555,2.38158292 L75.9161555,24.0482171 L73.549068,24.0482171 L73.549068,21.702568 L68.6504375,21.702568 L68.6504375,24.0482171 L66.2561029,24.020891 L66.2561029,2.38158292 L75.9161555,2.38158292 Z M58.9898983,13.201237 L54.1190015,13.201237 L54.1190015,10.7448198 L59.1003462,10.7448198 L59.1003462,5.83149742 L57.8620651,5.83149742 C57.3112854,7.26709126 56.7055251,8.61924304 56.1829656,9.64055436 L54.1190015,8.48114886 C55.3845297,5.96910363 56.6232974,2.71291134 57.2840383,0.0627719318 L59.6229057,0.587334603 C59.4029831,1.38759765 59.1003462,2.3537689 58.7699757,3.37508022 L64.9351075,3.37508022 L64.9351075,5.83149742 L61.4946808,5.83149742 C61.4946808,7.26709126 61.4669472,9.06085161 61.4669472,10.7448198 L65.3477057,10.7448198 L65.3477057,13.201237 L61.3574724,13.201237 C61.2470246,14.2498744 61.081596,15.2433717 60.8616734,16.2095429 L61.2747582,15.7684223 C62.5402864,17.2586682 64.604737,19.8253656 65.7607905,21.3434256 L63.7513205,22.9171136 C62.7884292,21.5917999 61.3574724,19.7702255 60.1736854,18.3346317 C59.2935083,20.5704886 57.9170457,22.6960653 55.8525951,24.9870623 L53.8985923,23.248442 C57.0641157,19.9083197 58.6050338,16.9824799 58.9898983,13.201237 Z" id="Fill-4"></path>
                    </g>
                    <g id="Group-23" fill="#1596F8">
                        <path d="M10.994856,9.07317781 C10.4326287,9.07317781 9.97688386,8.60131245 9.97688386,8.02029152 C9.97688386,7.43829162 10.4326287,6.96642626 10.994856,6.96642626 C11.5570832,6.96642626 12.0128281,7.43829162 12.0128281,8.02029152 C12.0128281,8.60131245 11.5570832,9.07317781 10.994856,9.07317781 M10.994856,5.79655261 C9.80793173,5.79655261 8.84533049,6.79216893 8.84533049,8.02029152 C8.84533049,9.24743514 9.80793173,10.2435409 10.994856,10.2435409 C11.7530109,10.2435409 12.4174613,9.83726683 12.7998516,9.22442925 L25.9885298,9.22442925 L7.99394424,29.0320054 L11.1458244,29.0320054 L30.5294142,7.49262466 L30.5294142,6.88370298 L12.8400783,6.88370298 C12.4652601,6.2336644 11.7799865,5.79655261 10.994856,5.79655261" id="Fill-20"></path>
                        <path d="M17.8961484,29.2974875 C17.3339211,29.2974875 16.8781763,28.8256221 16.8781763,28.2441117 C16.8781763,27.6626013 17.3339211,27.1907359 17.8961484,27.1907359 C18.4583757,27.1907359 18.9141205,27.6626013 18.9141205,28.2441117 C18.9141205,28.8256221 18.4583757,29.2974875 17.8961484,29.2974875 M17.8961484,26.0208623 C16.7087509,26.0208623 15.7466229,27.0164786 15.7466229,28.2441117 C15.7466229,29.4717448 16.7087509,30.4678506 17.8961484,30.4678506 C18.6571429,30.4678506 19.3249061,30.0571711 19.7063499,29.4394387 L28.5306678,29.4394387 L28.5306678,32.9661916 L2.26263349,32.9661916 L2.26263349,29.7527103 L18.3012549,12 L15.1550538,12 L0,28.8314959 L0,35.3064284 L30.7933013,35.3064284 L30.7933013,27.0992019 L19.7361649,27.0992019 C19.359927,26.4535687 18.6774929,26.0208623 17.8961484,26.0208623" id="Fill-21"></path>
                        <path d="M28.6439651,1.31598548 C29.2061924,1.31598548 29.6619372,1.78736135 29.6619372,2.36887177 C29.6619372,2.95087167 29.2061924,3.42224754 28.6439651,3.42224754 C28.0817379,3.42224754 27.625993,2.95087167 27.625993,2.36887177 C27.625993,1.78736135 28.0817379,1.31598548 28.6439651,1.31598548 Z M5.26278802,6.88389878 L3.01103939,6.88389878 L3.01103939,3.51867646 L26.8067881,3.51867646 C27.1834993,4.16137273 27.8645137,4.59212119 28.6439651,4.59212119 C29.8313626,4.59212119 30.7934906,3.59699436 30.7934906,2.36887177 C30.7934906,1.14123867 29.8313626,0.145622348 28.6439651,0.145622348 C27.8810776,0.145622348 27.2123679,0.55825979 26.8309242,1.17892916 L0.7484059,1.17892916 L0.7484059,9.22413556 L5.26278802,9.22413556 L5.26278802,6.88389878 Z" id="Fill-22"></path>
                    </g>
                </g>
            </g>
        </g>
    </g>
</svg>