<?xml version="1.0" encoding="utf-8"?>
<!-- Generator: Adobe Illustrator 22.1.0, SVG Export Plug-In . SVG Version: 6.00 Build 0)  -->
<svg version="1.1" id="图层_1" xmlns="http://www.w3.org/2000/svg" xmlns:xlink="http://www.w3.org/1999/xlink" x="0px" y="0px"
	 viewBox="0 0 130 33" style="enable-background:new 0 0 130 33;" xml:space="preserve">
<style type="text/css">
	.st0{fill:#4A505A;}
	.st1{font-family:'SourceHanSansCN-Regular-GBpc-EUC-H';}
	.st2{font-size:21.278px;}
</style>
<g>
	<g>
		<path class="st0" d="M18,23.1H0v-3.3h18c4.5,0,8.2-3.7,8.2-8.2c0-4.5-3.7-8.2-8.2-8.2H0V0h18c6.3,0,11.5,5.2,11.5,11.5
			S24.3,23.1,18,23.1z"/>
	</g>
	<g>
		<path class="st0" d="M18,33H0v-3.3h18c4.5,0,8.2-3.7,8.2-8.2c0-4.5-3.7-8.2-8.2-8.2H0V9.9h18c6.3,0,11.5,5.2,11.5,11.5
			S24.3,33,18,33z"/>
	</g>
	<g>
		<path class="st0" d="M53.1,23.1h-18v-3.3h18c4.5,0,8.2-3.7,8.2-8.2c0-4.5-3.7-8.2-8.2-8.2h-18V0h18c6.3,0,11.5,5.2,11.5,11.5
			S59.4,23.1,53.1,23.1z"/>
	</g>
	<g>
		<path class="st0" d="M62.9,33h-18c-6.3,0-11.5-5.2-11.5-11.5S38.6,9.9,44.9,9.9h18v3.3h-18c-4.5,0-8.2,3.7-8.2,8.2
			c0,4.5,3.7,8.2,8.2,8.2h18V33z"/>
	</g>
</g>
<text transform="matrix(0.9924 0 0 1 67.6494 24.9355)" class="st0 st1 st2">三两知</text>
</svg>
