<?xml version="1.0" encoding="utf-8"?>
<!-- Generator: Adobe Illustrator 22.0.0, SVG Export Plug-In . SVG Version: 6.00 Build 0)  -->
<svg version="1.1" id="图层_1" xmlns="http://www.w3.org/2000/svg" xmlns:xlink="http://www.w3.org/1999/xlink" x="0px" y="0px"
	 viewBox="0 0 200 200" style="enable-background:new 0 0 200 200;" xml:space="preserve">
<style type="text/css">
	.st0{fill:#4A505A;}
</style>
<path class="st0" d="M185.6,95.3l-35.1-33.8c-2.8-2.7-7-2.7-9.8,0c-2.8,2.7-2.8,6.8,0,9.5l23.2,22.3H96.4c-4.2,0-7,2.7-7,6.8
	s2.8,6.8,7,6.8h67.4l-23.2,22.3c-2.8,2.7-2.8,6.8,0,9.5c1.4,1.4,2.8,2,4.9,2c2.1,0,3.5-0.7,4.9-2l35.1-34.5c0,0,0-0.7,0.7-0.7
	C188.4,101.4,188.4,97.3,185.6,95.3L185.6,95.3z"/>
<path class="st0" d="M166.6,147.3c-4.2,0-7,2.7-7,6.8v13.5c0,4.1-2.8,6.8-7,6.8H33.2c-4.2,0-7-2.7-7-6.8V32.4c0-4.1,2.8-6.8,7-6.8
	h119.4c4.2,0,7,2.7,7,6.8v13.5c0,4.1,2.8,6.8,7,6.8s7-2.7,7-6.8V32.4c0-11.5-9.1-20.3-21.1-20.3H33.2c-11.9,0-21.1,8.8-21.1,20.3
	v135.2c0,11.5,9.1,20.3,21.1,20.3h119.4c11.9,0,21.1-8.8,21.1-20.3v-13.5C173.6,150,170.8,147.3,166.6,147.3z"/>
</svg>
