<?xml version="1.0" encoding="utf-8"?>
<!-- Generator: Adobe Illustrator 22.0.0, SVG Export Plug-In . SVG Version: 6.00 Build 0)  -->
<svg version="1.1" id="图层_1" xmlns="http://www.w3.org/2000/svg" xmlns:xlink="http://www.w3.org/1999/xlink" x="0px" y="0px"
	 viewBox="0 0 22.7 22.7" style="enable-background:new 0 0 22.7 22.7;" xml:space="preserve">
<style type="text/css">
	.st0{fill:#848994;}
</style>
<title>消息</title>
<desc>Created with Sketch.</desc>
<path class="st0" d="M20.7,18.4l-1.8-3.1v-4.9c0-3.2-2-5.9-4.8-7c0-0.2,0.1-0.3,0.1-0.5c0-1.6-1.3-2.8-2.8-2.8
	C9.8,0,8.5,1.3,8.5,2.8c0,0.2,0,0.4,0.1,0.5c-2.8,1.1-4.8,3.8-4.8,7l0,4.9L2,18.4c-0.2,0.3-0.2,0.7,0,0.9s0.5,0.5,0.8,0.5H7
	c0.7,1.7,2.4,2.8,4.3,2.8c1.9,0,3.6-1.2,4.3-2.8h4.2c0.3,0,0.6-0.2,0.8-0.5C20.8,19.1,20.8,18.7,20.7,18.4z M10.4,2.8
	c0-0.5,0.4-0.9,0.9-0.9c0.5,0,0.9,0.4,0.9,0.9c0,0,0,0,0,0.1c-0.3,0-0.6-0.1-0.9-0.1C11,2.8,10.7,2.9,10.4,2.8
	C10.4,2.9,10.4,2.9,10.4,2.8z M11.3,20.8c-0.8,0-1.6-0.4-2.1-0.9h4.2C12.9,20.4,12.2,20.8,11.3,20.8z M16.1,18h-1.9H8.5H6.6H4.5
	L5.5,16c0.1-0.2,0.1-0.3,0.1-0.5l0,0v-5.1c0-3.1,2.5-5.7,5.7-5.7c3.1,0,5.7,2.5,5.7,5.7v5.1c0,0.2,0,0.4,0.1,0.5l1.1,1.9H16.1z"/>
</svg>
