<?xml version="1.0" encoding="utf-8"?>
<!-- Generator: Adobe Illustrator 22.0.0, SVG Export Plug-In . SVG Version: 6.00 Build 0)  -->
<svg version="1.1" id="图层_1" xmlns="http://www.w3.org/2000/svg" xmlns:xlink="http://www.w3.org/1999/xlink" x="0px" y="0px"
	 viewBox="0 0 200 200" style="enable-background:new 0 0 200 200;" xml:space="preserve">
<style type="text/css">
	.st0{fill:#3B84D1;}
</style>
<path class="st0" d="M186.8,169.1h-17v-17.2c0-1.4-1.1-2.5-2.5-2.5h-6.4c-1.3,0-2.4,1.1-2.4,2.5v17.2h-17c-1.4,0-2.4,1.1-2.4,2.5
	v6.4c0,1.4,1.1,2.5,2.4,2.5h17v17.2c0,1.4,1.1,2.5,2.4,2.5h6.4c1.4,0,2.5-1.1,2.5-2.5v-17.2h17c1.3,0,2.4-1.1,2.4-2.5v-6.4
	C189.2,170.2,188.1,169.1,186.8,169.1L186.8,169.1L186.8,169.1L186.8,169.1z M162.1,135.8c2.9-3.2,2.8-8.3-0.4-11.3
	c-8.8-8.5-19-15-30.1-19.3c13.9-10.2,23-26.9,23-45.9c0-31-24.3-56.1-54.2-56.1c-29.9,0-54.2,25.2-54.2,56.1
	c0,18.9,9.1,35.7,23,45.9c-34.1,13.1-58.4,47.2-58.4,87c0,4.4,3.5,8,7.7,8c4.3,0,7.7-3.6,7.7-8c0-41.6,32.2-75.7,72.2-76.7
	c0.6,0,1.3,0,1.9,0c0.6,0,1.3,0,1.9,0c18.2,0.5,35.5,7.8,48.8,20.7C154.2,139.2,159.1,139,162.1,135.8L162.1,135.8L162.1,135.8
	L162.1,135.8z M102.1,99.4c-0.6,0-1.1,0-1.7,0c-0.5,0-1.1,0-1.6,0c-20.6-0.9-37.1-18.5-37.1-40.1c0-22.1,17.4-40.1,38.8-40.1
	s38.8,18,38.8,40.1C139.2,80.9,122.7,98.5,102.1,99.4L102.1,99.4L102.1,99.4L102.1,99.4z"/>
</svg>
