<?xml version="1.0" standalone="no"?><!DOCTYPE svg PUBLIC "-//W3C//DTD SVG 1.1//EN" "http://www.w3.org/Graphics/SVG/1.1/DTD/svg11.dtd"><svg t="1523857613711" class="icon" style="" viewBox="0 0 1024 1024" version="1.1" xmlns="http://www.w3.org/2000/svg" p-id="4828" xmlns:xlink="http://www.w3.org/1999/xlink" width="200" height="200"><defs><style type="text/css"></style></defs><path d="M956.40942 865.821825l-87.162893 0 0-87.98788c0-6.992268-5.634057-12.674617-12.577027-12.674617l-32.631253 0c-6.846386 0-12.479437 5.681343-12.479437 12.674617l0 87.98788-87.162893 0c-6.943976 0-12.527729 5.681343-12.527729 12.674617l0 32.971309c0 6.992268 5.583753 12.674617 12.527729 12.674617l87.162893 0 0 88.037178c0 6.94297 5.633051 12.625319 12.479437 12.625319l32.631253 0c6.94297 0 12.577027-5.681343 12.577027-12.625319l0-88.086476 87.162893 0c6.895684 0 12.527729-5.633051 12.527729-12.625319L968.937149 878.495436C968.937149 871.503169 963.304098 865.821825 956.40942 865.821825L956.40942 865.821825 956.40942 865.821825 956.40942 865.821825zM829.71959 695.138055c14.907112-16.510807 14.131423-42.391252-1.844148-57.881892-45.014107-43.65489-97.312245-76.966255-153.883212-98.719753 71.235614-52.054666 117.803111-137.906635 117.803111-234.781234 0-158.496097-124.601205-287.322844-277.756013-287.322844-153.153803 0-277.706715 128.826748-277.706715 287.322844 0 96.971183 46.615789 182.823152 117.900701 234.877818C179.712347 605.935835 55.062851 780.115739 55.062851 983.81911c0 22.627783 17.724141 40.983744 39.575229 40.983744 21.802796 0 39.575229-18.35596 39.575229-40.983744 0-213.22191 165.002427-387.400808 369.871846-392.887977 3.302966 0.09759 6.653218 0.194174 9.954172 0.194174 3.302966 0 6.653218-0.09759 9.906886-0.194174 93.232584 2.475967 181.608811 39.915285 249.834228 106.100368C789.706715 712.473849 814.811472 711.599564 829.71959 695.138055L829.71959 695.138055 829.71959 695.138055 829.71959 695.138055zM522.5377 509.061235c-2.817029-0.049298-5.634057-0.09759-8.498372-0.09759-2.767731 0-5.535461 0.048292-8.351484 0.09759-105.663729-4.564593-190.203767-94.883564-190.203767-205.306059 0-113.336108 89.055333-205.452947 198.555251-205.452947s198.604549 92.116839 198.604549 205.452947C712.643877 414.081088 628.103839 504.448351 522.5377 509.061235L522.5377 509.061235 522.5377 509.061235 522.5377 509.061235z" p-id="4829"></path></svg>