<?xml version="1.0" encoding="utf-8"?>
<!-- Generator: Adobe Illustrator 22.0.0, SVG Export Plug-In . SVG Version: 6.00 Build 0)  -->
<svg version="1.1" id="图层_1" xmlns="http://www.w3.org/2000/svg" xmlns:xlink="http://www.w3.org/1999/xlink" x="0px" y="0px"
	 viewBox="0 0 200 200" style="enable-background:new 0 0 200 200;" xml:space="preserve">
<path d="M162.1,135.8c2.9-3.2,2.8-8.3-0.4-11.3c-8.8-8.5-19-15-30.1-19.3c13.9-10.2,23-26.9,23-45.9c0-31-24.3-56.1-54.2-56.1
	c-29.9,0-54.2,25.2-54.2,56.1c0,18.9,9.1,35.7,23,45.9c-34.1,13.1-58.4,47.2-58.4,87c0,4.4,3.5,8,7.7,8c4.3,0,7.7-3.6,7.7-8
	c0-41.6,32.2-75.7,72.2-76.7c0.6,0,1.3,0,1.9,0c0.6,0,1.3,0,1.9,0c18.2,0.5,35.5,7.8,48.8,20.7C154.2,139.2,159.1,139,162.1,135.8
	L162.1,135.8L162.1,135.8L162.1,135.8z M102.1,99.4c-0.6,0-1.1,0-1.7,0c-0.5,0-1.1,0-1.6,0c-20.6-0.9-37.1-18.5-37.1-40.1
	c0-22.1,17.4-40.1,38.8-40.1s38.8,18,38.8,40.1C139.2,80.9,122.7,98.5,102.1,99.4L102.1,99.4L102.1,99.4L102.1,99.4z"/>
<path d="M193,164.8c-2.1-14.5-18.8-20.4-28.8-9.6v0c-10-10.8-26.7-4.9-28.8,9.6c-2.1,14.5,14,29.5,28.8,35.2
	C179,194.4,195.1,179.3,193,164.8z"/>
</svg>
