<?xml version="1.0" encoding="utf-8"?>
<!-- Generator: Adobe Illustrator 22.0.0, SVG Export Plug-In . SVG Version: 6.00 Build 0)  -->
<svg version="1.1" id="图层_1" xmlns="http://www.w3.org/2000/svg" xmlns:xlink="http://www.w3.org/1999/xlink" x="0px" y="0px"
	 viewBox="0 0 200 200" style="enable-background:new 0 0 200 200;" xml:space="preserve">
<style type="text/css">
	.st0{fill:#3B84D1;}
</style>
<path class="st0" d="M112.6,78.4h54.5v11.5h-54.5V78.4z M112.6,103.2h54.5v11.5h-54.5V103.2z M126.9,129.6h40.2v11.5h-40.2V129.6z
	 M123.5,186.2c0-25.9-17.8-47.6-41.7-53.8c14.4-5.6,24.6-19.5,24.6-35.9c0-21.2-17.3-38.5-38.5-38.5c-21.2,0-38.5,17.3-38.5,38.5
	c0,16.3,10.2,30.3,24.6,35.9c-23.9,6.2-41.7,27.9-41.7,53.8h0c0,0.1,0,0.1,0,0.2c0,0.3,0,0.6,0,0.9h11.5c0-0.3,0-0.6,0-0.9
	c0-24.4,19.7-44.1,44.1-44.1s44.1,19.7,44.1,44.1c0,0.3,0,0.6,0,0.9h11.5c0-0.3,0-0.6,0-0.9C123.5,186.4,123.5,186.3,123.5,186.2
	L123.5,186.2z M41.1,96.6c0-14.8,12-26.8,26.8-26.8c14.8,0,26.8,12,26.8,26.8c0,14.8-12,26.8-26.8,26.8
	C53.1,123.4,41.1,111.3,41.1,96.6z"/>
<path class="st0" d="M177.3,57h-76.1v11.5h70.6c2.2,0,4,1.8,4,4v99.3c0,2.2-1.8,4-4,4h-29.1v11.5h34.6c5.5,0,10-4.5,10-10V67
	C187.3,61.5,182.8,57,177.3,57z"/>
</svg>
