<?xml version="1.0" encoding="utf-8"?>
<!-- Generator: Adobe Illustrator 22.0.0, SVG Export Plug-In . SVG Version: 6.00 Build 0)  -->
<svg version="1.1" id="图层_1" xmlns="http://www.w3.org/2000/svg" xmlns:xlink="http://www.w3.org/1999/xlink" x="0px" y="0px"
	 viewBox="0 0 200 200" style="enable-background:new 0 0 200 200;" xml:space="preserve">
<style type="text/css">
	.st0{fill:#3B84D1;}
</style>
<path class="st0" d="M46.4,55.6L72,128.9l-5.4-3.8l107.2,0c3.2,0,5.7,2.6,5.7,5.7c0,3.2-2.6,5.7-5.7,5.7H66.7
	c-2.4,0-4.6-1.5-5.4-3.8l-40-114.1l5.4,3.8H15.2c-3.2,0-5.7-2.6-5.7-5.7c0-3.2,2.6-5.7,5.7-5.7h11.5c2.4,0,4.6,1.5,5.4,3.8
	l10.3,29.4h138.8c3.6,0,6.3,3.3,5.6,6.9l-9.1,44.4c-0.5,2.4-2.5,4.2-5,4.5l-84.3,9.4c-3.1,0.3-6-1.9-6.3-5c-0.3-3.1,1.9-6,5-6.3
	l80.2-9.2c0,0,4.1-18.8,7-33.2C174.5,55.3,70.7,55.5,46.4,55.6L46.4,55.6z M79.6,159.8c4.6,0,8.3,3.7,8.3,8.3c0,4.6-3.7,8.3-8.3,8.3
	c-4.6,0-8.3-3.7-8.3-8.3C71.3,163.6,75,159.8,79.6,159.8 M79.6,148.9c-10.6,0-19.2,8.6-19.2,19.2c0,10.6,8.6,19.2,19.2,19.2
	s19.2-8.6,19.2-19.2C98.7,157.5,90.2,148.9,79.6,148.9L79.6,148.9z M159.4,159.8c4.6,0,8.3,3.7,8.3,8.3c0,4.6-3.7,8.3-8.3,8.3
	c-4.6,0-8.3-3.7-8.3-8.3C151.2,163.6,154.9,159.8,159.4,159.8 M159.4,148.9c-10.6,0-19.2,8.6-19.2,19.2c0,10.6,8.6,19.2,19.2,19.2
	c10.6,0,19.2-8.6,19.2-19.2C178.6,157.5,170,148.9,159.4,148.9L159.4,148.9z"/>
</svg>
