<?xml version="1.0" encoding="utf-8"?>
<!-- Generator: Adobe Illustrator 22.0.0, SVG Export Plug-In . SVG Version: 6.00 Build 0)  -->
<svg version="1.1" id="图层_1" xmlns="http://www.w3.org/2000/svg" xmlns:xlink="http://www.w3.org/1999/xlink" x="0px" y="0px"
	 viewBox="0 0 1024 1024" style="enable-background:new 0 0 1024 1024;" xml:space="preserve">
<style type="text/css">
	.st0{fill:#9B9B9B;}
</style>
<g id="qq" transform="translate(3.466667, 2.600000)">
	<path id="Shape" class="st0" d="M811.2,503.9c-19.9-20.4-27-40.7-25.3-72.4c4.1-80.5-14.8-152.3-56.1-213.2
		c-25-37-58.3-67.3-96.3-87.6c-33.2-17.8-70.2-28.1-107.8-30.3V100L510,99.8c-0.8,0-1.5,0-2.3,0c-42.7,0-85,10.6-122.5,30.7
		c-38,20.4-71.3,50.7-96.3,87.6c-41.4,61.1-60.3,132.9-56.1,213.5c1.7,31.6-5.3,51.9-25.2,72.4c-52.4,54.1-76.3,110.3-73,171.7
		c0.1,1.4,0.2,2.9,0.2,4.4c0.9,18,2.3,48.2,31.3,56.8c3.3,1,6.6,1.5,10,1.5c17.6,0,29.3-12.8,38.7-23.1c2.4-2.6,4.6-5.1,6.8-7.2
		c3.8-3.7,7.3-8.3,10.6-12.8c1.2-1.7,2.9-3.9,4.5-5.8c14.8,17.4,27.6,40.1,38.3,67.8c0.2,0.6,0.4,1.1,0.5,1.4
		c-2.8,1.7-9.5,3.3-13,4.2c-3.8,0.9-7.3,1.8-10.5,3.1c-22.2,9-53.7,40.4-51,79.7c1.3,18.3,12,50.9,68.7,62.7
		c30.9,6.5,60.6,9.7,88.1,9.7c46.2,0,85.1-9.3,115.8-27.7c13.4-8.1,27.4-11.7,35.4-11.7c8.1,0,22.4,3.6,36.1,11.8
		C575.8,908.7,614.8,918,661,918c27.5,0,57.1-3.3,88-9.8c56.7-11.8,67.3-44.4,68.6-62.7c2.8-39.5-28.1-70.4-50.9-79.7l-0.1,0
		c-3-1.2-6.5-2-10.1-2.9c-3.3-0.8-10.5-2.5-13.3-4.3c0.1-0.4,0.2-0.8,0.5-1.4c10.8-27.8,23.7-50.5,38.3-67.8c1.6,2,3.3,4.2,4.5,5.9
		c3.4,4.5,6.8,9.1,10.6,12.8c2.1,2,4.3,4.4,6.6,7c9.5,10.4,21.2,23.3,38.9,23.3c3.3,0,6.7-0.5,10-1.5c29.1-8.8,30.5-39,31.3-57.1
		c0.1-1.5,0.1-2.9,0.2-4.3C887.5,614.1,863.7,558,811.2,503.9z M852.5,673.7c-0.1,1.5-0.2,3.1-0.2,4.6c-0.8,17.9-2.3,26.2-8.8,28.2
		c-0.4,0.1-0.7,0.2-0.9,0.2c-3.6,0-10.7-7.8-15.5-13c-2.6-2.8-5.2-5.7-8-8.4c-2-1.9-4.7-5.5-7.3-9c-7.9-10.5-16.9-22.5-30.5-22.5
		c-6.1,0-12,2.6-16.5,7.4c-19.9,20.8-36.9,49.2-50.7,84.5c-4.8,12.6-2.4,21.9,0.6,27.5c7.4,14,23.7,17.9,34.5,20.5
		c2,0.5,4.7,1.1,5.7,1.5c11.4,4.7,32.9,24.2,31.2,48.1c-1.2,16.7-15.8,28.1-43.5,33.9c-28.8,6-56.3,9.1-81.6,9.1
		c-40.4,0-73.9-7.8-99.6-23.2c-16.8-10-36.9-16.2-52.3-16.2c-15.3,0-35.1,6.2-51.7,16.3c-25.7,15.4-59.1,23.2-99.5,23.2
		c-25.3,0-52.8-3.1-81.6-9.1c-27.7-5.8-42.4-17.2-43.6-33.9c-1.6-23.1,19.2-43.3,31.3-48.1l0.2-0.1c0.9-0.4,3.8-1.1,5.8-1.6
		c10.7-2.6,26.8-6.5,34.1-20.4c2.9-5.5,5.3-14.8,0.5-27.4c-13.5-35-30.5-63.5-50.6-84.5c-5.8-6.1-12.2-7.4-16.6-7.4
		c-13.7,0-22.6,11.9-30.5,22.4c-2.6,3.5-5.3,7.1-7.3,9c-2.9,2.8-5.6,5.8-8.3,8.7c-4.7,5.1-11.7,12.8-15.3,12.8c-0.3,0-0.6,0-0.9-0.1
		c-6.5-1.9-7.9-10.2-8.8-28c-0.1-1.5-0.2-3-0.2-4.6c-2.8-52,18.2-100.4,64.2-147.9c26.2-26.9,36.4-55.7,34.1-96.1
		c-3.8-73.5,13.3-138.8,50.7-194c43.7-64.6,111.4-102.4,186.5-104.3h9.4c77.5,0,147.7,38.1,192.6,104.4
		c37.4,55.2,54.4,120.4,50.7,193.8c-2.1,40.5,8.1,69.3,34.2,96.1C834.5,573.3,855.4,621.6,852.5,673.7z"/>
</g>
</svg>
