<?xml version="1.0" encoding="utf-8"?>
<!-- Generator: Adobe Illustrator 22.0.0, SVG Export Plug-In . SVG Version: 6.00 Build 0)  -->
<svg version="1.1" id="图层_1" xmlns="http://www.w3.org/2000/svg" xmlns:xlink="http://www.w3.org/1999/xlink" x="0px" y="0px"
	 viewBox="0 0 1024 1024" style="enable-background:new 0 0 1024 1024;" xml:space="preserve">
<style type="text/css">
	.st0{fill:#B5B8C1;}
</style>
<path id="Shape" class="st0" d="M513,668.5c97.8,0,177-78.4,177-175.1s-79.3-175.1-177-175.1s-177,78.4-177,175.1
	S415.2,668.5,513,668.5z M513,618.5c-69.9,0-126.5-56-126.5-125.1S443.1,368.3,513,368.3c69.8,0,126.5,56,126.5,125.1
	S582.8,618.5,513,618.5z M513,293.2c78,0,161,17.4,242.8,89.4c29.7,26.1,57.2,54.4,82,83c5.1,5.9,11.7,13.9,16.6,19.8
	c3.8,4.7,3.9,11.3,0.1,15.9c-3.8,4.7-9.4,11.4-16.7,19.8c-24.8,28.6-52.3,56.9-82,83C674,676.1,591,693.5,513,693.5
	s-161-17.4-242.8-89.4c-29.7-26.1-57.2-54.3-82-83c-2.7-3.1-5.7-6.7-8.8-10.4c-8.5-10.2-8.6-24.8-0.1-35c2.6-3.1,5.5-6.5,8.8-10.3
	c24.8-28.6,52.3-56.9,82-83C352,310.7,435,293.2,513,293.2z M513,243.2c-93,0-186.2,22.7-276.4,102c-31.5,27.7-60.6,57.6-86.8,87.8
	c-16.5,19.1-29,34.9-36.7,45.5l-4.8,6.6v8.1v0.5v8.1l4.8,6.6c7.7,10.6,20.2,26.4,36.7,45.5c26.2,30.2,55.3,60.1,86.8,87.8
	c90.2,79.3,183.4,102,276.4,102c93,0,186.2-22.7,276.4-102c31.5-27.7,60.6-57.6,86.8-87.8c16.5-19.1,29-34.9,36.7-45.5l4.8-6.6v-8.1
	v-0.5v-8.1l-4.8-6.6c-7.7-10.6-20.2-26.4-36.7-45.5c-26.2-30.2-55.3-60.1-86.8-87.8C699.2,265.9,606,243.2,513,243.2z"/>
</svg>
