<?xml version="1.0" encoding="utf-8"?>
<!-- Generator: Adobe Illustrator 22.0.0, SVG Export Plug-In . SVG Version: 6.00 Build 0)  -->
<svg version="1.1" id="图层_1" xmlns="http://www.w3.org/2000/svg" xmlns:xlink="http://www.w3.org/1999/xlink" x="0px" y="0px"
	 viewBox="0 0 1024 1024" style="enable-background:new 0 0 1024 1024;" xml:space="preserve">
<style type="text/css">
	.st0{fill:#3B84D1;}
</style>
<path id="Shape" class="st0" d="M736.9,455.6H555.4c57.3-54.5,99.1-251.3-12.6-251.3c-85.2,0-68.4,81-95,132.7
	c-23.7,46.1-61.4,75.4-86.6,90.8c-16.8,9.8-27.9,20.9-27.9,40.5v293.2c0,30.7,26.5,55.9,57.3,55.9h289c26.5,0,48.9-23.7,54.5-48.9
	c19.5-85.2,40.5-175.9,60-258.3C801.2,478,773.2,455.6,736.9,455.6z M283.1,443.1h-48.9c-15.4,0-27.9,12.6-27.9,27.9v319.8
	c0,15.4,12.6,27.9,27.9,27.9h48.9c15.4,0,20.9-12.6,20.9-27.9V469.6C304,454.2,298.5,443.1,283.1,443.1z"/>
</svg>
