<?xml version="1.0" encoding="UTF-8"?>
<svg width="345px" height="35px" viewBox="0 0 345 35" version="1.1" xmlns="http://www.w3.org/2000/svg" xmlns:xlink="http://www.w3.org/1999/xlink">
    <!-- Generator: Sketch 49.2 (51160) - http://www.bohemiancoding.com/sketch -->
    <title>logo copy</title>
    <desc>Created with Sketch.</desc>
    <defs></defs>
    <g id="首页" stroke="none" stroke-width="1" fill="none" fill-rule="evenodd">
        <g id="标签页---未关注" transform="translate(-13.000000, -143.000000)" fill="#FFFFFF">
            <g id="logo-copy" transform="translate(13.000000, 143.000000)">
                <g id="Group" transform="translate(47.000000, 5.000000)">
                    <path d="M2.87501593,13.3802555 L20.4816746,13.3802555 L20.4816746,10.8862201 L2.87501593,10.8862201 L2.87501593,13.3802555 Z M1.6824159,4.79001566 L21.6458444,4.79001566 L21.6458444,2.24062254 L1.6824159,2.24062254 L1.6824159,4.79001566 Z M0.185416102,23.0511951 L23.1707843,23.0511951 L23.1707843,20.5022918 L0.185416102,20.5022918 L0.185416102,23.0511951 Z" id="Fill-1"></path>
                    <path d="M42.1812684,12.2972256 L45.9306189,16.8010241 L45.9306189,9.17485253 L42.5390923,9.17485253 C42.4840049,10.2802859 42.3738303,11.3026775 42.1812684,12.2972256 Z M36.4453617,6.88143237 L40.1956872,6.88143237 C40.1956872,5.91472768 40.1956872,4.64321059 40.2229871,3.56562063 L36.4731491,3.56562063 C36.4731491,4.64321059 36.4453617,5.88688424 36.4453617,6.88143237 Z M33.9079323,9.17485253 L30.6543677,9.17485253 L30.6543677,18.3485332 C32.8329982,15.4195987 33.6051958,13.181377 33.9079323,9.17485253 Z M34.0463818,6.88143237 C34.0736818,5.94208263 34.0463818,4.67105403 34.0736818,3.56562063 L27.0420042,3.56562063 L27.0420042,1.27268894 L49.5434699,1.27268894 L49.5434699,3.56562063 L42.621967,3.56562063 C42.621967,4.61585564 42.5946671,5.8590408 42.5946671,6.88143237 L48.3856611,6.88143237 L48.3856611,20.862747 C48.3856611,23.4600026 47.5305888,24.1507153 45.0487342,24.1507153 L42.0433063,24.1507153 L41.6021202,21.8572951 L44.3594114,21.8572951 C45.738057,21.8572951 45.9306189,21.4704178 45.9306189,20.2824311 L45.9306189,17.7403739 L44.5797607,18.9283606 C43.8075632,17.9338125 42.5390923,16.3032616 41.4914581,15.004878 C40.7197481,17.3261416 39.5063644,19.4813216 37.7416201,21.6638565 L35.728739,20.4206713 C38.5689049,16.9392644 39.9197631,13.8994446 40.1401124,9.17485253 L36.362487,9.17485253 C36.3073996,10.0590039 36.2245249,10.8879568 36.1143503,11.6895548 L38.9267288,15.0600764 L37.1346845,16.6627839 L35.4250275,14.507604 C34.7357046,16.5802305 33.6329832,18.5141284 32.0057134,20.5584231 L30.6543677,19.6190733 L30.6543677,24.2611121 L28.2826877,24.2611121 L28.2826877,6.88143237 L34.0463818,6.88143237 Z" id="Fill-2"></path>
                    <path d="M68.6504375,19.3012909 L73.549068,19.3012909 L73.549068,4.83800012 L68.6504375,4.83800012 L68.6504375,19.3012909 Z M75.9161555,2.38158292 L75.9161555,24.0482171 L73.549068,24.0482171 L73.549068,21.702568 L68.6504375,21.702568 L68.6504375,24.0482171 L66.2561029,24.020891 L66.2561029,2.38158292 L75.9161555,2.38158292 Z M58.9898983,13.201237 L54.1190015,13.201237 L54.1190015,10.7448198 L59.1003462,10.7448198 L59.1003462,5.83149742 L57.8620651,5.83149742 C57.3112854,7.26709126 56.7055251,8.61924304 56.1829656,9.64055436 L54.1190015,8.48114886 C55.3845297,5.96910363 56.6232974,2.71291134 57.2840383,0.0627719318 L59.6229057,0.587334603 C59.4029831,1.38759765 59.1003462,2.3537689 58.7699757,3.37508022 L64.9351075,3.37508022 L64.9351075,5.83149742 L61.4946808,5.83149742 C61.4946808,7.26709126 61.4669472,9.06085161 61.4669472,10.7448198 L65.3477057,10.7448198 L65.3477057,13.201237 L61.3574724,13.201237 C61.2470246,14.2498744 61.081596,15.2433717 60.8616734,16.2095429 L61.2747582,15.7684223 C62.5402864,17.2586682 64.604737,19.8253656 65.7607905,21.3434256 L63.7513205,22.9171136 C62.7884292,21.5917999 61.3574724,19.7702255 60.1736854,18.3346317 C59.2935083,20.5704886 57.9170457,22.6960653 55.8525951,24.9870623 L53.8985923,23.248442 C57.0641157,19.9083197 58.6050338,16.9824799 58.9898983,13.201237 Z" id="Fill-4"></path>
                </g>
                <g id="Group-23">
                    <path d="M10.994856,9.07317781 C10.4326287,9.07317781 9.97688386,8.60131245 9.97688386,8.02029152 C9.97688386,7.43829162 10.4326287,6.96642626 10.994856,6.96642626 C11.5570832,6.96642626 12.0128281,7.43829162 12.0128281,8.02029152 C12.0128281,8.60131245 11.5570832,9.07317781 10.994856,9.07317781 M10.994856,5.79655261 C9.80793173,5.79655261 8.84533049,6.79216893 8.84533049,8.02029152 C8.84533049,9.24743514 9.80793173,10.2435409 10.994856,10.2435409 C11.7530109,10.2435409 12.4174613,9.83726683 12.7998516,9.22442925 L25.9885298,9.22442925 L7.99394424,29.0320054 L11.1458244,29.0320054 L30.5294142,7.49262466 L30.5294142,6.88370298 L12.8400783,6.88370298 C12.4652601,6.2336644 11.7799865,5.79655261 10.994856,5.79655261" id="Fill-20"></path>
                    <path d="M17.8963377,28.89025 C17.3341104,28.89025 16.8783656,28.4183847 16.8783656,27.8368743 C16.8783656,27.2553639 17.3341104,26.7834985 17.8963377,26.7834985 C18.458565,26.7834985 18.9143098,27.2553639 18.9143098,27.8368743 C18.9143098,28.4183847 18.458565,28.89025 17.8963377,28.89025 M17.8963377,25.6136249 C16.7089402,25.6136249 15.7468122,26.6092412 15.7468122,27.8368743 C15.7468122,29.0645074 16.7089402,30.0606132 17.8963377,30.0606132 C18.6573322,30.0606132 19.3250954,29.6499337 19.7065392,29.0322012 L28.5308571,29.0322012 L28.5308571,32.5589542 L2.2628228,32.5589542 L2.2628228,29.3454728 L18.3014442,11.5927626 L15.1552431,11.5927626 L0.000189302112,28.4242585 L0.000189302112,34.899191 L30.7934906,34.899191 L30.7934906,26.6919645 L19.7363542,26.6919645 C19.3601163,26.0463313 18.6776822,25.6136249 17.8963377,25.6136249" id="Fill-21"></path>
                    <path d="M28.6439651,1.31598548 C29.2061924,1.31598548 29.6619372,1.78736135 29.6619372,2.36887177 C29.6619372,2.95087167 29.2061924,3.42224754 28.6439651,3.42224754 C28.0817379,3.42224754 27.625993,2.95087167 27.625993,2.36887177 C27.625993,1.78736135 28.0817379,1.31598548 28.6439651,1.31598548 Z M5.26278802,6.88389878 L3.01103939,6.88389878 L3.01103939,3.51867646 L26.8067881,3.51867646 C27.1834993,4.16137273 27.8645137,4.59212119 28.6439651,4.59212119 C29.8313626,4.59212119 30.7934906,3.59699436 30.7934906,2.36887177 C30.7934906,1.14123867 29.8313626,0.145622348 28.6439651,0.145622348 C27.8810776,0.145622348 27.2123679,0.55825979 26.8309242,1.17892916 L0.7484059,1.17892916 L0.7484059,9.22413556 L5.26278802,9.22413556 L5.26278802,6.88389878 Z" id="Fill-22"></path>
                </g>
                <path d="M137.148,12.71 L139.71,12.71 L139.71,11.576 L140.466,11.576 L140.466,12.71 L145.52,12.71 L145.52,11.576 L146.276,11.576 L146.276,12.71 L148.838,12.71 L148.838,13.368 L146.276,13.368 L146.276,18.212 L149.062,18.212 L149.062,18.884 L145.954,18.884 C146.654,19.836 147.76,20.592 149.258,21.124 L148.95,21.782 C147.186,21.04 145.94,20.074 145.226,18.884 L140.746,18.884 C140.032,20.074 138.842,21.054 137.162,21.838 L136.784,21.208 C138.268,20.592 139.346,19.822 140.018,18.884 L136.924,18.884 L136.924,18.212 L139.71,18.212 L139.71,13.368 L137.148,13.368 L137.148,12.71 Z M140.466,18.212 L145.52,18.212 L145.52,16.994 L140.466,16.994 L140.466,18.212 Z M140.466,16.364 L145.52,16.364 L145.52,15.202 L140.466,15.202 L140.466,16.364 Z M140.466,14.586 L145.52,14.586 L145.52,13.368 L140.466,13.368 L140.466,14.586 Z M142.622,19.486 L143.378,19.486 L143.378,20.704 L146.29,20.704 L146.29,21.39 L143.378,21.39 L143.378,23.168 L148.25,23.168 L148.25,23.882 L137.652,23.882 L137.652,23.168 L142.622,23.168 L142.622,21.39 L139.682,21.39 L139.682,20.704 L142.622,20.704 L142.622,19.486 Z M152.722,12.206 L163.18,12.206 L163.18,12.948 L158.504,12.948 L158.504,17.05 L164.146,17.05 L164.146,17.806 L158.504,17.806 L158.504,22.944 C158.504,23.798 158.056,24.232 157.188,24.232 L155.046,24.232 L154.878,23.49 C155.592,23.518 156.278,23.546 156.936,23.546 C157.468,23.546 157.748,23.28 157.748,22.748 L157.748,17.806 L151.854,17.806 L151.854,17.05 L157.748,17.05 L157.748,12.948 L152.722,12.948 L152.722,12.206 Z M170.466,14.474 C171.81,15.482 173.042,16.504 174.176,17.512 C175.044,16.434 175.772,15.202 176.374,13.802 L177.06,14.166 C176.402,15.65 175.632,16.938 174.75,18.03 C175.898,19.08 176.948,20.13 177.886,21.18 L177.312,21.754 C176.43,20.718 175.408,19.668 174.26,18.604 C173,19.99 171.544,21.04 169.878,21.754 L169.444,21.068 C171.068,20.396 172.482,19.402 173.686,18.086 C172.538,17.078 171.292,16.042 169.92,14.992 L170.466,14.474 Z M167.764,12.192 L178.782,12.192 L178.782,12.92 L168.506,12.92 L168.506,23.042 L179.174,23.042 L179.174,23.77 L167.764,23.77 L167.764,12.192 Z M189.568,18.982 C189.008,21.446 187.748,23.224 185.802,24.344 L185.34,23.728 C187.244,22.692 188.42,20.984 188.896,18.604 L185.928,18.604 L185.928,17.89 L189.022,17.89 C189.106,17.288 189.148,16.658 189.148,15.986 L189.148,14.53 L186.502,14.53 L186.502,13.816 L189.148,13.816 L189.148,11.604 L189.89,11.604 L189.89,13.816 L192.942,13.816 L192.942,17.89 L194.244,17.89 L194.244,18.604 L190.1,18.604 C190.968,20.732 192.396,22.44 194.356,23.714 L193.852,24.302 C191.85,22.916 190.422,21.138 189.568,18.982 Z M189.89,14.53 L189.89,15.832 C189.89,16.56 189.834,17.246 189.75,17.89 L192.186,17.89 L192.186,14.53 L189.89,14.53 Z M181.714,15.398 L183.408,15.398 L183.408,11.688 L184.15,11.688 L184.15,15.398 L185.83,15.398 L185.83,16.154 L184.15,16.154 L184.15,21.124 C184.836,20.872 185.508,20.592 186.166,20.284 L186.166,21.026 C184.794,21.67 183.296,22.216 181.7,22.636 L181.504,21.88 C182.148,21.74 182.792,21.572 183.408,21.376 L183.408,16.154 L181.714,16.154 L181.714,15.398 Z M203.756,19.598 L206.458,19.598 L206.458,17.638 L204.064,17.638 L203.938,16.98 C204.442,16.154 204.904,15.132 205.324,13.928 L203.826,13.928 L203.826,13.242 L205.548,13.242 C205.702,12.71 205.856,12.164 205.996,11.59 L206.682,11.744 C206.542,12.262 206.402,12.766 206.262,13.242 L209.062,13.242 L209.062,13.928 L206.052,13.928 C205.66,15.076 205.212,16.084 204.722,16.966 L206.458,16.966 L206.458,15.006 L207.158,15.006 L207.158,16.966 L208.936,16.966 L208.936,17.638 L207.158,17.638 L207.158,19.598 L209.314,19.598 L209.314,20.284 L207.158,20.284 L207.158,22.776 L206.458,22.776 L206.458,20.284 L203.756,20.284 L203.756,19.598 Z M201.698,11.926 C202.37,12.766 202.874,13.494 203.238,14.11 L202.664,14.516 C202.286,13.844 201.768,13.102 201.124,12.29 L201.698,11.926 Z M207.382,23.42 C208.082,23.42 208.754,23.406 209.384,23.392 L209.188,24.134 L207.312,24.134 C206.892,24.134 206.472,24.12 206.038,24.106 C205.366,24.092 204.792,23.994 204.316,23.826 C203.826,23.644 203.42,23.35 203.084,22.944 C202.902,22.72 202.748,22.622 202.608,22.622 C202.356,22.622 201.894,23.182 201.222,24.302 L200.774,23.742 C201.362,22.776 201.88,22.188 202.3,21.978 L202.3,17.064 L201.068,17.064 L201.068,16.364 L203,16.364 L203,21.992 C203.084,22.062 203.182,22.146 203.266,22.244 C203.56,22.622 203.924,22.916 204.358,23.126 C204.75,23.266 205.226,23.35 205.786,23.392 C206.318,23.406 206.85,23.42 207.382,23.42 Z M198.184,11.632 L198.898,11.786 C198.786,12.304 198.674,12.808 198.534,13.284 L200.816,13.284 L200.816,14.012 L198.324,14.012 C198.002,14.992 197.624,15.902 197.19,16.714 L196.602,16.336 C197.316,14.95 197.848,13.382 198.184,11.632 Z M197.764,16.056 L200.536,16.056 L200.536,16.742 L199.318,16.742 L199.318,18.744 L200.942,18.744 L200.942,19.458 L199.318,19.458 L199.318,23.056 C199.766,22.832 200.214,22.552 200.676,22.188 L200.816,22.874 C200.172,23.336 199.416,23.728 198.576,24.036 L198.282,23.406 C198.478,23.322 198.576,23.182 198.576,22.986 L198.576,19.458 L196.938,19.458 L196.938,18.744 L198.576,18.744 L198.576,16.742 L197.764,16.742 L197.764,16.056 Z M216.544,14.096 L216.544,23.504 L215.816,23.504 L215.816,22.65 L212.988,22.65 L212.988,23.896 L212.26,23.896 L212.26,14.096 L213.52,14.096 C213.814,13.298 214.024,12.458 214.15,11.59 L214.92,11.688 C214.766,12.556 214.542,13.354 214.248,14.096 L216.544,14.096 Z M212.988,21.95 L215.816,21.95 L215.816,18.632 L212.988,18.632 L212.988,21.95 Z M212.988,17.946 L215.816,17.946 L215.816,14.824 L212.988,14.824 L212.988,17.946 Z M218.924,17.26 C219.988,18.436 220.8,19.458 221.36,20.34 L220.758,20.774 C220.17,19.822 219.344,18.786 218.308,17.652 L218.924,17.26 Z M223.796,14.11 C223.796,18.632 223.726,21.432 223.6,22.496 C223.46,23.616 222.816,24.176 221.654,24.176 C221.388,24.176 220.926,24.162 220.282,24.148 L220.1,23.448 C220.66,23.476 221.15,23.49 221.57,23.49 C222.326,23.49 222.76,23.07 222.872,22.244 C222.984,21.404 223.04,18.94 223.068,14.866 L218.938,14.866 C218.546,15.776 218.084,16.588 217.524,17.316 L217.076,16.728 C218.084,15.328 218.77,13.606 219.134,11.576 L219.876,11.66 C219.708,12.528 219.498,13.354 219.232,14.11 L223.796,14.11 Z M232.916,17.05 C232.342,18.758 231.208,20.144 229.5,21.236 L228.996,20.634 C230.606,19.598 231.684,18.282 232.216,16.672 C232.398,16.07 232.538,15.412 232.636,14.698 L228.324,14.698 L228.324,24.358 L227.568,24.358 L227.568,13.956 L232.72,13.956 C232.79,13.2 232.832,12.402 232.832,11.562 L233.602,11.562 C233.602,12.43 233.56,13.228 233.504,13.956 L238.446,13.956 L238.446,22.93 C238.446,23.798 238.012,24.232 237.172,24.232 L234.988,24.232 L234.778,23.476 L236.92,23.504 C237.424,23.504 237.69,23.252 237.69,22.776 L237.69,14.698 L233.42,14.698 C233.336,15.258 233.238,15.79 233.126,16.28 C234.624,17.694 235.884,19.094 236.906,20.494 L236.332,21.068 C235.464,19.794 234.33,18.45 232.916,17.05 Z M248.028,11.534 C248.21,11.926 248.378,12.36 248.546,12.85 L253.614,12.85 L253.614,15.188 L252.858,15.188 L252.858,13.564 L243.142,13.564 L243.142,15.272 L242.386,15.272 L242.386,12.85 L247.776,12.85 C247.608,12.416 247.426,12.024 247.23,11.66 L248.028,11.534 Z M247.72,16.014 L248.322,16.014 C249.47,17.442 251.43,18.716 254.202,19.822 L253.796,20.438 C251.22,19.43 249.288,18.17 248.028,16.672 C246.488,18.296 244.528,19.556 242.176,20.452 L241.756,19.836 C244.332,18.856 246.32,17.582 247.72,16.014 Z M252.06,19.864 L252.06,24.372 L251.318,24.372 L251.318,23.728 L244.836,23.728 L244.836,24.372 L244.08,24.372 L244.08,19.864 L252.06,19.864 Z M244.836,23.042 L251.318,23.042 L251.318,20.564 L244.836,20.564 L244.836,23.042 Z M249.554,14.32 C251.248,15.188 252.662,16.07 253.796,16.938 L253.278,17.456 C252.242,16.616 250.828,15.734 249.05,14.796 L249.554,14.32 Z M246.404,14.292 L246.922,14.754 C245.732,15.79 244.262,16.686 242.526,17.456 L242.078,16.868 C243.786,16.14 245.228,15.272 246.404,14.292 Z M258.478,16.028 C257.974,16.784 257.428,17.498 256.812,18.17 L256.574,17.372 C258.002,15.678 259.038,13.76 259.668,11.632 L260.368,11.954 C260.06,12.934 259.682,13.858 259.234,14.712 L259.234,24.358 L258.478,24.358 L258.478,16.028 Z M266.08,16.476 L266.822,16.476 L266.822,24.232 L266.08,24.232 L266.08,16.476 Z M262.412,16.518 L263.154,16.518 L263.154,18.646 C263.126,21.25 262.426,23.168 261.068,24.386 L260.494,23.882 C261.754,22.79 262.384,21.04 262.412,18.646 L262.412,16.518 Z M264.218,11.646 L264.876,11.646 C265.772,13.564 267.312,15.244 269.468,16.7 L269.048,17.344 C267.032,16.014 265.534,14.362 264.54,12.402 C263.392,14.614 261.95,16.308 260.214,17.512 L259.794,16.868 C261.698,15.524 263.168,13.788 264.218,11.646 Z M279.736,11.548 L280.492,11.646 C280.45,12.122 280.408,12.57 280.366,12.99 L283.95,12.99 L283.95,13.69 L280.296,13.69 C280.24,14.18 280.17,14.656 280.086,15.104 L282.984,15.104 L282.984,23.21 L284.356,23.21 L284.356,23.924 L275.27,23.924 L275.27,23.21 L276.754,23.21 L276.754,15.104 L279.33,15.104 C279.414,14.628 279.484,14.166 279.54,13.69 L275.872,13.69 L275.872,12.99 L279.61,12.99 C279.666,12.5 279.708,12.024 279.736,11.548 Z M277.468,23.21 L282.256,23.21 L282.256,21.768 L277.468,21.768 L277.468,23.21 Z M277.468,21.124 L282.256,21.124 L282.256,19.752 L277.468,19.752 L277.468,21.124 Z M277.468,19.122 L282.256,19.122 L282.256,17.778 L277.468,17.778 L277.468,19.122 Z M277.468,17.134 L282.256,17.134 L282.256,15.804 L277.468,15.804 L277.468,17.134 Z M273.618,15.902 C273.1,16.728 272.512,17.498 271.868,18.212 L271.63,17.4 C273.086,15.678 274.122,13.732 274.766,11.562 L275.452,11.884 C275.144,12.822 274.794,13.718 274.374,14.558 L274.374,24.358 L273.618,24.358 L273.618,15.902 Z M292.706,21.222 C292.188,20.41 291.684,19.668 291.194,18.982 C290.662,20.438 290.004,21.67 289.248,22.692 L288.758,22.104 C289.542,21.012 290.186,19.738 290.69,18.268 C289.976,17.316 289.29,16.462 288.632,15.734 L289.108,15.258 C289.668,15.846 290.284,16.588 290.942,17.47 C291.25,16.406 291.488,15.258 291.684,14.026 L292.398,14.152 C292.16,15.636 291.852,16.98 291.474,18.184 C292.034,18.94 292.608,19.794 293.21,20.732 L292.706,21.222 Z M296.864,21.866 C296.318,20.942 295.786,20.088 295.282,19.304 C294.694,20.76 293.994,21.992 293.182,23.028 L292.706,22.44 C293.546,21.348 294.232,20.046 294.778,18.562 C294.078,17.54 293.406,16.644 292.748,15.86 L293.238,15.384 C293.798,16.028 294.414,16.812 295.058,17.75 C295.422,16.63 295.702,15.398 295.912,14.068 L296.626,14.194 C296.36,15.79 296.01,17.218 295.576,18.506 C296.136,19.346 296.738,20.298 297.368,21.362 L296.864,21.866 Z M297.354,24.274 L295.926,24.274 L295.73,23.532 L297.116,23.574 C297.522,23.574 297.732,23.364 297.732,22.944 L297.732,12.962 L288.268,12.962 L288.268,24.33 L287.512,24.33 L287.512,12.22 L298.488,12.22 L298.488,23.112 C298.488,23.882 298.11,24.274 297.354,24.274 Z M306.642,21.726 L306.642,22.454 C305.27,22.986 303.716,23.42 301.952,23.756 L301.854,23.028 C303.674,22.706 305.27,22.272 306.642,21.726 Z M304.276,11.59 L304.99,11.87 C304.262,13.774 303.52,15.258 302.778,16.336 C303.478,16.252 304.192,16.112 304.92,15.944 C305.158,15.468 305.41,14.964 305.676,14.446 L306.334,14.698 C305.06,17.218 304.01,18.954 303.198,19.934 C304.262,19.724 305.326,19.43 306.376,19.066 L306.376,19.752 C304.976,20.228 303.618,20.578 302.302,20.774 L302.092,20.06 C302.232,20.004 302.344,19.934 302.442,19.85 C303.03,19.22 303.73,18.156 304.542,16.672 C303.702,16.84 302.862,16.994 302.05,17.106 L301.868,16.406 C301.98,16.35 302.092,16.266 302.19,16.126 C302.988,14.838 303.688,13.326 304.276,11.59 Z M313.166,19.234 L313.166,24.288 L312.438,24.288 L312.438,23.63 L308.28,23.63 L308.28,24.288 L307.552,24.288 L307.552,19.234 L313.166,19.234 Z M308.28,22.93 L312.438,22.93 L312.438,19.92 L308.28,19.92 L308.28,22.93 Z M308.966,11.562 L309.694,11.688 C309.554,12.122 309.4,12.528 309.232,12.92 L313.152,12.92 L313.152,13.494 C312.606,14.698 311.822,15.748 310.814,16.658 C311.836,17.442 313.068,18.03 314.524,18.45 L314.09,19.066 C312.564,18.604 311.29,17.946 310.268,17.106 C309.232,17.904 308.014,18.59 306.6,19.15 L306.124,18.534 C307.524,18.002 308.714,17.358 309.708,16.616 C309.092,16.028 308.588,15.384 308.168,14.67 C307.762,15.16 307.314,15.622 306.824,16.042 L306.376,15.454 C307.65,14.39 308.518,13.102 308.966,11.562 Z M308.588,14.096 C309.036,14.88 309.582,15.58 310.24,16.182 C311.122,15.426 311.822,14.572 312.326,13.62 L308.882,13.62 C308.784,13.788 308.686,13.942 308.588,14.096 Z M317.4,12.29 L328.642,12.29 L328.642,13.046 L323.322,13.046 L323.322,18.576 L329.16,18.576 L329.16,19.318 L323.322,19.318 L323.322,24.358 L322.566,24.358 L322.566,19.318 L316.84,19.318 L316.84,18.576 L322.566,18.576 L322.566,13.046 L317.4,13.046 L317.4,12.29 Z M318.912,14.124 C319.458,15.104 319.976,16.182 320.452,17.358 L319.738,17.708 C319.262,16.49 318.744,15.412 318.212,14.46 L318.912,14.124 Z M327.144,14.026 L327.844,14.348 C327.396,15.496 326.808,16.602 326.108,17.666 L325.422,17.316 C326.15,16.21 326.724,15.118 327.144,14.026 Z M342.592,18.646 L342.592,24.386 L341.836,24.386 L341.836,23.588 L334.164,23.588 L334.164,24.386 L333.408,24.386 L333.408,18.646 L342.592,18.646 Z M334.164,22.846 L341.836,22.846 L341.836,19.374 L334.164,19.374 L334.164,22.846 Z M332.344,17.078 L332.204,16.364 C333.562,15.804 335.13,14.208 336.894,11.576 L337.664,11.842 C336.306,13.816 334.962,15.314 333.618,16.336 C336.586,16.21 339.316,16.028 341.836,15.776 C341.22,14.936 340.604,14.166 339.988,13.466 L340.688,13.13 C341.92,14.558 343.082,16.098 344.146,17.778 L343.418,18.142 C343.054,17.54 342.676,16.98 342.312,16.448 C339.344,16.728 336.026,16.938 332.344,17.078 Z" id="基于区块链的内容价值网络平台"></path>
            </g>
        </g>
    </g>
</svg>