<?xml version="1.0" encoding="utf-8"?>
<!-- Generator: Adobe Illustrator 22.0.0, SVG Export Plug-In . SVG Version: 6.00 Build 0)  -->
<svg version="1.1" id="图层_1" xmlns="http://www.w3.org/2000/svg" xmlns:xlink="http://www.w3.org/1999/xlink" x="0px" y="0px"
	 viewBox="0 0 200 200" style="enable-background:new 0 0 200 200;" xml:space="preserve">
<style type="text/css">
	.st0{fill:#3B84D1;}
</style>
<path class="st0" d="M183.1,141.5c2.5,0,4.5-2,4.5-4.4c0,0,0,0,0,0V49c0-3.5-1.1-6.8-3-9.5c-0.1-0.1-0.1-0.3-0.2-0.4
	c-0.2-0.2-0.4-0.3-0.5-0.5c-3.2-4.1-8.1-6.4-13.3-6.5h-141c-9.4,0-17,7.5-17,16.8v102c0,9.3,7.6,16.8,17,16.8h141
	c9.4,0,17-7.6,17-16.8v-14c0-2.4-2-4.4-4.5-4.4c-2.4,0-4.4,2-4.5,4.4v13.2c0,4.9-4,8.9-8.9,8.9c0,0,0,0,0,0H30.4
	c-4.9,0-8.9-3.9-9-8.8c0,0,0,0,0,0V49.9c0-0.5,0.1-1,0.1-1.4l78.3,63.2l0,0c0.7,0.5,1.5,0.8,2.3,0.8c0.2,0,0.5,0,0.7,0s0.5,0,0.7,0
	c0.8-0.1,1.6-0.3,2.3-0.8l0,0l72.6-62.4c0,0.2,0.1,0.4,0.1,0.6v87.2C178.6,139.5,180.6,141.5,183.1,141.5L183.1,141.5z M30.4,41
	h139.2c1.2,0,2.3,0.2,3.3,0.7l-70,60.5L27.8,41.4C28.7,41.2,29.5,41,30.4,41z"/>
</svg>
