<?xml version="1.0" encoding="UTF-8"?>
<svg width="17px" height="17px" viewBox="0 0 17 17" version="1.1" xmlns="http://www.w3.org/2000/svg" xmlns:xlink="http://www.w3.org/1999/xlink">
    <!-- Generator: Sketch 49.2 (51160) - http://www.bohemiancoding.com/sketch -->
    <title>标签</title>
    <desc>Created with Sketch.</desc>
    <defs></defs>
    <g id="首页" stroke="none" stroke-width="1" fill="none" fill-rule="evenodd">
        <g id="标签页---未关注" transform="translate(-426.000000, -107.000000)" fill="#3B84D1" fill-rule="nonzero">
            <g id="Group-2" transform="translate(420.000000, 101.000000)">
                <g id="list_icon_vote_def-copy-6">
                    <g id="标签" transform="translate(6.000000, 6.000000)">
                        <path d="M6.27894157,17 C5.61918412,17 5.01940463,16.7600882 4.59955899,16.2802646 L0.700992282,12.3816979 C-0.258654906,11.4220507 -0.198676957,9.86262404 0.760970232,8.90297685 L8.13825799,1.58566703 C8.49812569,1.22579934 9.03792723,0.985887541 9.51775083,0.865931643 L14.9757442,0.0262403528 C15.4555678,-0.0337375965 15.9353914,0.0862183021 16.2352811,0.446085998 C16.5951488,0.745975744 16.7151047,1.22579934 16.7151047,1.70562293 L16.1153252,7.46350606 C16.0553473,8.00330761 15.8154355,8.54310915 15.3955899,8.9629548 L8.07828004,16.2802646 C7.59845645,16.7600882 6.99867696,17 6.27894157,17 C6.33891951,17 6.33891951,17 6.27894157,17 Z M15.215656,1.22579934 C15.1556781,1.22579934 15.1556781,1.22579934 15.215656,1.22579934 L9.69768467,2.06549063 C9.39779493,2.12546858 9.15788313,2.24542448 8.97794928,2.42535832 L1.60066152,9.80264609 C1.12083793,10.2824697 1.06085998,11.122161 1.54068357,11.6019846 L5.43925028,15.5005513 C5.67916207,15.7404631 5.97905182,15.860419 6.33891951,15.860419 C6.69878721,15.860419 6.99867696,15.7404631 7.23858875,15.5005513 L14.5558986,8.18324146 C14.7958104,7.94332966 14.9157663,7.70341786 14.9157663,7.40352811 L15.5155458,1.64564498 C15.5155458,1.52568908 15.4555678,1.40573319 15.4555678,1.40573319 C15.3955899,1.28577729 15.3356119,1.22579934 15.215656,1.22579934 Z" id="Shape"></path>
                        <path d="M12.1567806,6.80374862 C11.676957,6.80374862 11.1371555,6.62381477 10.7772878,6.20396913 C9.99757442,5.42425579 9.99757442,4.16471885 10.7772878,3.44498346 C11.5570011,2.72524807 12.816538,2.66527012 13.5362734,3.44498346 C13.8961411,3.80485116 14.1360529,4.28467475 14.1360529,4.8244763 C14.1360529,5.36427784 13.9561191,5.84410143 13.5362734,6.20396913 C13.1764057,6.62381477 12.6965821,6.80374862 12.1567806,6.80374862 Z M12.1567806,4.1047409 C11.9768467,4.1047409 11.736935,4.16471885 11.6169791,4.3446527 C11.3170893,4.64454245 11.3170893,5.12436604 11.6169791,5.42425579 C11.9168688,5.72414553 12.3966924,5.72414553 12.6965821,5.42425579 C12.816538,5.30429989 12.9364939,5.06438809 12.9364939,4.88445424 C12.9364939,4.7045204 12.876516,4.4646086 12.6965821,4.3446527 C12.5766262,4.16471885 12.3966924,4.1047409 12.1567806,4.1047409 Z" id="Shape"></path>
                    </g>
                </g>
            </g>
        </g>
    </g>
</svg>