<?xml version="1.0" encoding="UTF-8"?>
<svg width="53px" height="53px" viewBox="0 0 53 53" version="1.1" xmlns="http://www.w3.org/2000/svg" xmlns:xlink="http://www.w3.org/1999/xlink">
    <!-- Generator: Sketch 49.2 (51160) - http://www.bohemiancoding.com/sketch -->
    <title>Group 9</title>
    <desc>Created with Sketch.</desc>
    <defs>
        <circle id="path-1" cx="26.1333333" cy="26.1333333" r="26.1333333"></circle>
    </defs>
    <g id="钱包" stroke="none" stroke-width="1" fill="none" fill-rule="evenodd">
        <g id="钱包---审查文章---文章详情页" transform="translate(-462.000000, -253.000000)">
            <g id="Group-23" transform="translate(408.000000, 90.000000)">
                <g id="Group-21" transform="translate(54.000000, 163.000000)">
                    <g id="Group-9">
                        <g id="Oval-Copy">
                            <use fill="#FFFFFF" fill-rule="evenodd" xlink:href="#path-1"></use>
                            <circle stroke="#3B84D1" stroke-width="1.06666667" cx="26.1333333" cy="26.1333333" r="25.6"></circle>
                        </g>
                        <g id="通过2" transform="translate(17.000000, 17.000000)" fill="#0686D8" fill-rule="nonzero">
                            <path d="M0.00234263085,8.47102007 C0.00234263085,5.90297667 0,4.93911032 0,2.37104498 C0,0.145006637 1.22181213,0 2.39648967,0 L11.98247,0 C13.8289837,0 14.4,0.635484455 14.4,2.42367295 L14.4,3.6355204 C14.4,4.5911602 13.197905,4.48164838 13.197905,3.6355204 L13.197905,2.42367295 C13.197905,1.5260358 12.9092191,1.21184745 11.9824483,1.21184745 L2.39646798,1.21184745 C1.40419028,1.21184745 1.19823399,1.34792553 1.19823399,2.42367295 L1.19823399,14.5420816 C1.19823399,15.2063041 1.55769768,15.753929 2.39646798,15.753929 C3.84985351,15.753929 3.33963719,15.7544994 4.79297934,15.753929 C5.5254853,15.753929 5.57932243,16.9657765 4.79297934,16.9657765 C4.00663625,16.9657765 3.41102236,16.975429 1.94481743,16.9695059 C1.08006128,16.96593 0.36391035,16.4479646 0.108823879,15.6461942 C0.0374170205,15.4219275 0.00700620152,15.1739902 0.00700620152,14.9367366 C-3.08248025e-16,12.3775559 0.00234263085,11.0302007 0.00234263085,8.47102007" id="通过23"></path>
                            <path d="M12.0489282,17.9999999 C8.77105863,17.9994137 6.11763328,15.3178557 6.11763328,12.0050428 C6.11763328,8.69220822 8.78381776,6.00711133 12.0674967,6.01182267 C15.3512187,6.01649059 18.0034822,8.7044968 17.9999966,12.0231934 C17.996554,15.3284291 15.3361358,18.0006078 12.0489282,17.9999999 Z M12.0651945,7.21236861 C9.45938456,7.20648486 7.31783048,9.3580492 7.31204262,11.9898232 C7.30623323,14.6286317 9.42805692,16.7865792 12.0361691,16.7942433 C14.6547812,16.8012777 16.8021231,14.6620236 16.8079325,12.0384565 C16.8149038,9.37678602 14.6942635,7.21877343 12.0651945,7.21236861 Z M10.8720116,3.60043965 C11.8191563,3.60102586 11.6891552,4.81581438 10.8720116,4.81581438 L3.74045489,4.81581438 C2.84901568,4.81581438 2.88617422,3.60043965 3.74045489,3.60043965 C6.08047474,3.59985345 9.96198234,3.59985345 10.8720116,3.60043965 Z M4.92903333,7.19845169 C5.87619959,7.19905961 5.74619848,8.41384813 4.92903333,8.41384813 L3.74043337,8.41384813 C2.84899416,8.41384813 2.88615271,7.19845169 3.74043337,7.19845169 C6.08047474,7.19786549 4.01902561,7.19786549 4.92903333,7.19845169 Z" id="通过22"></path>
                            <path d="M14.7145112,9.96449125 C14.4481665,9.70707434 14.0162943,9.70707434 13.7499496,9.96449125 L10.8064956,12.808806 L9.90721992,11.9398128 C9.64083261,11.6824371 9.20900296,11.6824371 8.94261565,11.9398128 C8.67627097,12.1972091 8.67627097,12.6145384 8.94261565,12.8719347 L10.3241721,14.2069682 C10.4573658,14.3356561 10.6319094,14.4 10.8064742,14.4 C10.9810391,14.4 11.1555827,14.3356561 11.2887764,14.2069682 C11.3068956,14.1893987 11.3239878,14.1708673 11.3399736,14.1514602 C11.3600138,14.1360465 11.3791483,14.1195641 11.397288,14.1020901 L14.7145112,10.896572 C14.9808772,10.6391962 14.9808772,10.221867 14.7145112,9.96449125 Z" id="通过21"></path>
                        </g>
                    </g>
                </g>
            </g>
        </g>
    </g>
</svg>