<?xml version="1.0" encoding="utf-8"?>
<!-- Generator: Adobe Illustrator 22.0.0, SVG Export Plug-In . SVG Version: 6.00 Build 0)  -->
<svg version="1.1" id="图层_1" xmlns="http://www.w3.org/2000/svg" xmlns:xlink="http://www.w3.org/1999/xlink" x="0px" y="0px"
	 viewBox="0 0 200 200" style="enable-background:new 0 0 200 200;" xml:space="preserve">
<style type="text/css">
	.st0{fill:#3B84D1;}
</style>
<path class="st0" d="M181.5,91.3c3,0,5.5-2.5,5.5-5.5V59.3c0-6-4.9-10.9-10.9-10.9H23.3c-6,0-10.9,4.9-10.9,10.9V86
	c0,3,2.4,5.4,5.3,5.5c8.6,0.2,15.4,7.2,15.4,15.8s-6.8,15.6-15.4,15.8c-3,0.1-5.3,2.5-5.3,5.5v26.7c0,6,4.9,10.9,10.9,10.9H176
	c6,0,10.9-4.9,10.9-10.9v-26.6c0-3-2.4-5.5-5.5-5.5c-8.7,0-15.8-7.1-15.8-15.8C165.7,98.4,172.8,91.3,181.5,91.3L181.5,91.3z
	 M176,133.4v21.7H62.9v-8.3c0-3-2.4-5.5-5.5-5.5c-3,0-5.5,2.5-5.5,5.5v8.3H23.3v-21.8c12-2.7,20.8-13.3,20.8-26.1
	s-8.8-23.4-20.8-26.1V59.3H52V68c0,3,2.4,5.5,5.5,5.5c3,0,5.5-2.5,5.5-5.5v-8.8h113v21.7c-12.2,2.5-21.3,13.3-21.3,26.2
	C154.7,120.1,163.9,130.9,176,133.4L176,133.4z"/>
<path class="st0" d="M57.5,88.8c-3,0-5.5,2.5-5.5,5.5v26.2c0,3,2.4,5.5,5.5,5.5c3,0,5.5-2.5,5.5-5.5V94.3
	C62.9,91.3,60.5,88.8,57.5,88.8z"/>
</svg>
