<?xml version="1.0" encoding="UTF-8"?>
<svg width="53px" height="53px" viewBox="0 0 53 53" version="1.1" xmlns="http://www.w3.org/2000/svg" xmlns:xlink="http://www.w3.org/1999/xlink">
    <!-- Generator: Sketch 49.2 (51160) - http://www.bohemiancoding.com/sketch -->
    <title>Group 5</title>
    <desc>Created with Sketch.</desc>
    <defs>
        <circle id="path-1" cx="26.1333333" cy="26.1333333" r="26.1333333"></circle>
    </defs>
    <g id="钱包" stroke="none" stroke-width="1" fill="none" fill-rule="evenodd">
        <g id="钱包---审查文章---文章详情页" transform="translate(-462.000000, -130.000000)">
            <g id="Group-23" transform="translate(408.000000, 90.000000)">
                <g id="Group-22" transform="translate(54.000000, 40.000000)">
                    <g id="Group-5">
                        <g id="Oval">
                            <use fill="#FFFFFF" fill-rule="evenodd" xlink:href="#path-1"></use>
                            <circle stroke="#FE8E20" stroke-width="1.06666667" cx="26.1333333" cy="26.1333333" r="25.6"></circle>
                        </g>
                        <g id="不通过3" transform="translate(17.000000, 17.000000)" fill="#FE8E20" fill-rule="nonzero">
                            <path d="M0.0190409639,8.38958313 C0.0190409639,5.85088916 0.0166987952,4.89803855 0.0166987952,2.35932289 C0.0166987952,0.158725301 1.23826988,0.0153759036 2.41271566,0.0153759036 L11.9968048,0.0153759036 C13.8429542,0.0153759036 14.4138578,0.64359759 14.4138578,2.4113494 L14.4138578,3.60934699 C14.4138578,4.55406506 13.212,4.44580482 13.212,3.60934699 L13.212,2.4113494 C13.212,1.52397108 12.9233711,1.21337349 11.9967831,1.21337349 L2.41269398,1.21337349 C1.42061205,1.21337349 1.21469639,1.34789639 1.21469639,2.4113494 L1.21469639,14.3912602 C1.21469639,15.0478916 1.57408916,15.5892578 2.41269398,15.5892578 C3.86579277,15.5892578 3.35567711,15.5898217 4.80873253,15.5892578 C5.54109398,15.5892578 5.59492048,16.7872554 4.80873253,16.7872554 C4.02254458,16.7872554 3.42704819,16.7967976 1.96113253,16.7909422 C1.09654699,16.7874072 0.380537349,16.2753614 0.125501205,15.4827542 C0.0541084337,15.2610506 0.0237036145,15.015947 0.0237036145,14.7814048 C0.0166987952,12.2514723 0.0190409639,10.9195157 0.0190409639,8.38958313" id="不通过37"></path>
                            <path d="M11.9850506,17.9846241 C8.68120482,17.9840386 6.00675181,15.3055084 6.00675181,11.9964361 C6.00675181,8.68734217 8.69406506,6.00527711 12.0037663,6.00998313 C15.3135108,6.01464578 17.9867928,8.69961687 17.9832795,12.0145663 C17.9798096,15.3160699 15.2983084,17.9852313 11.9850506,17.9846241 Z M12.0014458,7.20917349 C9.37498554,7.20329639 7.21646024,9.35243133 7.21062651,11.9812337 C7.20477108,14.6170627 9.34340964,16.7725735 11.9721904,16.7802289 C14.6115542,16.7872554 16.7759133,14.6504169 16.7817687,12.029812 C16.7887952,9.37114699 14.6513494,7.21557108 12.0014458,7.20917349 Z M10.7988072,3.60132289 C11.7534578,3.60190843 11.6224265,4.8153253 10.7988072,4.8153253 L3.61073494,4.8153253 C2.71223133,4.8153253 2.74968434,3.60132289 3.61073494,3.60132289 C5.9692988,3.60073735 9.88156627,3.60073735 10.7988072,3.60132289 Z M4.80873253,7.19527229 C5.76340482,7.19587952 5.63237349,8.40929639 4.80873253,8.40929639 L3.61071325,8.40929639 C2.71220964,8.40929639 2.74966265,7.19527229 3.61071325,7.19527229 C5.9692988,7.19468675 3.89151325,7.19468675 4.80873253,7.19527229 Z" id="不通过32"></path>
                            <path d="M12.9764602,11.9973036 L14.2907422,10.6830217 C14.5617614,10.4120024 14.5617614,9.97258554 14.2907639,9.70158795 C14.0197229,9.43054699 13.5803277,9.43056867 13.3093301,9.70156627 L11.9950265,11.0158699 L10.6807229,9.70156627 C10.4097253,9.43056867 9.97033012,9.43054699 9.69928916,9.70158795 C9.42829157,9.97258554 9.42829157,10.4120024 9.69931084,10.6830217 L11.0135928,11.9973036 L9.69931084,13.3115855 C9.42829157,13.5826048 9.42829157,14.0220217 9.69928916,14.2930193 C9.83483133,14.4285614 10.0124024,14.4962892 10.1900169,14.4962892 C10.367588,14.4962892 10.5452458,14.4285181 10.6807229,14.293041 L11.9950265,12.9787373 L13.3093301,14.293041 C13.4448289,14.4285398 13.6224434,14.4962892 13.8000361,14.4962892 C13.9776289,14.4962892 14.1552434,14.4285398 14.2907639,14.2930193 C14.5617614,14.0220217 14.5617614,13.5826048 14.2907422,13.3115855 L12.9764602,11.9973036 Z" id="不通过31"></path>
                        </g>
                    </g>
                </g>
            </g>
        </g>
    </g>
</svg>