<?xml version="1.0" encoding="utf-8"?>
<!-- Generator: Adobe Illustrator 22.0.0, SVG Export Plug-In . SVG Version: 6.00 Build 0)  -->
<svg version="1.1" id="图层_1" xmlns="http://www.w3.org/2000/svg" xmlns:xlink="http://www.w3.org/1999/xlink" x="0px" y="0px"
	 viewBox="0 0 1024 1024" style="enable-background:new 0 0 1024 1024;" xml:space="preserve">
<style type="text/css">
	.st0{fill:#848994;}
</style>
<path class="st0" d="M823,813.3c-10.9-129.8-99.7-237.1-219.9-276.2c50.3-32.6,83.7-88.9,83.7-153.2c0-100.9-82.1-182.8-183.3-182.8
	c-101.3,0-183.4,81.9-183.4,182.8c0,64.3,33.4,120.6,83.7,153.2c-120.1,39-209,146.3-219.9,276.1c-0.1,2.5-0.5,3.9,0,7.3
	c0.9,11.4,11,20.6,22.5,20.6c12.8,0,22.9-10.5,22.9-22.9C241.4,677,359.7,566.9,503.6,566.9c143.9,0,262.1,110.1,274.1,251.4
	c0,12.4,10.1,22.9,22.9,22.9c11.5,0,21.6-9.1,22.4-20.6C823.5,817.2,823.2,815.7,823,813.3z M503.6,521.1
	c-75.9,0-137.5-61.4-137.5-137.1c0-75.7,61.6-137.1,137.5-137.1S641.1,308.3,641.1,384C641.1,459.7,579.5,521.1,503.6,521.1z"/>
</svg>
