<?xml version="1.0" encoding="UTF-8"?>
<svg width="17px" height="17px" viewBox="0 0 17 17" version="1.1" xmlns="http://www.w3.org/2000/svg" xmlns:xlink="http://www.w3.org/1999/xlink">
    <!-- Generator: Sketch 49.2 (51160) - http://www.bohemiancoding.com/sketch -->
    <title>Shape</title>
    <desc>Created with Sketch.</desc>
    <defs></defs>
    <g id="个人中心" stroke="none" stroke-width="1" fill="none" fill-rule="evenodd">
        <g id="作者主页-已关注" transform="translate(-426.000000, -107.000000)" fill="#3B84D1" fill-rule="nonzero">
            <g id="Group-2" transform="translate(420.000000, 101.000000)">
                <g id="list_icon_vote_def-copy-6">
                    <g id="columnist-writer" transform="translate(6.000000, 6.000000)">
                        <path d="M10.6947573,11.4492213 C10.8820236,11.6238672 11.1283857,11.7212704 11.384451,11.7219028 C11.6551969,11.7219479 11.9148642,11.6144029 12.1062945,11.4229407 C12.2977248,11.2314785 12.4052267,10.9717932 12.4051365,10.7010473 C12.4051365,10.3440454 12.2211955,10.0310737 11.9439239,9.84849279 L11.9554841,9.83370269 C11.6924924,9.66361865 11.4194857,9.50954495 11.1379497,9.37232024 C12.2966759,8.39889497 13.0348199,6.94028718 13.0348199,5.30810844 C13.0349898,2.37644273 10.6588871,0 7.7268814,0 C4.79504569,0 2.41877296,2.37644273 2.41877296,5.30810844 C2.41877296,6.93807717 3.1550469,8.4519353 4.31088309,9.42604048 C1.91659027,10.6048268 0.219131174,12.7786284 0,15.8345648 L0.00187001002,15.8345648 C0.00187001002,15.8345648 0,15.7901946 0,15.7968246 C0,16.3603777 0.456962448,16.78912 1.02102547,16.78912 C1.58474849,16.78912 2.04171094,16.3744877 2.04171094,15.8109347 C2.04171094,15.8044747 2.03984093,15.8345648 2.03984093,15.8345648 L2.04443095,15.8345648 C2.35026259,12.7786284 4.77736559,10.6735072 7.72722142,10.6735072 C8.81454719,10.6735072 9.82724263,10.9536687 10.6925473,11.4810115 L10.6947573,11.4492213 Z M4.46031389,5.30844844 C4.46031389,3.50422878 5.92300173,2.04222094 7.72671138,2.04222094 C9.53042104,2.04222094 10.9927689,3.50439877 10.9927689,5.30844844 C10.9927689,7.1119881 9.53042104,8.57518597 7.72671138,8.57518597 C5.92300173,8.57518597 4.46031389,7.11181809 4.46031389,5.30844844 Z M13.443332,15.7204942 C13.4433624,16.0852108 13.6379644,16.4222065 13.9538334,16.6045385 C14.2697023,16.7868705 14.6588502,16.786838 14.9746888,16.6044535 C15.2905274,16.4220689 15.4850733,16.0850407 15.485043,15.7203242 C15.484996,15.1565213 15.0279054,14.6995068 14.4641025,14.6995537 C13.9002996,14.6996007 13.4432851,15.1566913 13.443332,15.7204942 Z M16.419028,10.0394038 L16.1305364,9.74989221 C15.8113088,9.43180573 15.2949478,9.43180573 14.9757202,9.74989221 L10.447066,14.2793965 C10.1279743,14.5978082 8.90311769,16.3398075 9.22186937,16.6588992 L9.51070098,16.9473908 C9.82911264,17.2666525 11.570942,16.0416259 11.8903737,15.7223643 L16.419028,11.1938799 C16.5722445,11.0408525 16.6583366,10.8331892 16.6583366,10.6166419 C16.6583366,10.4000946 16.5722445,10.1924313 16.419028,10.0394038 Z" id="Shape"></path>
                    </g>
                </g>
            </g>
        </g>
    </g>
</svg>