<?xml version="1.0" encoding="UTF-8"?>
<svg width="98px" height="98px" viewBox="0 0 98 98" version="1.1" xmlns="http://www.w3.org/2000/svg" xmlns:xlink="http://www.w3.org/1999/xlink">
    <!-- Generator: Sketch 49.2 (51160) - http://www.bohemiancoding.com/sketch -->
    <title>page_icon_vote_pre</title>
    <desc>Created with Sketch.</desc>
    <defs>
        <circle id="path-1" cx="49" cy="49" r="49"></circle>
    </defs>
    <g id="切图" stroke="none" stroke-width="1" fill="none" fill-rule="evenodd">
        <g id="iPhone-8" transform="translate(-817.000000, -218.000000)">
            <g id="page_icon_vote_pre" transform="translate(817.000000, 218.000000)">
                <g id="Oval">
                    <use fill="#FFFFFF" fill-rule="evenodd" xlink:href="#path-1"></use>
                    <circle stroke="#FB2C06" stroke-width="2" cx="49" cy="49" r="48"></circle>
                </g>
                <path d="M63.536,36.712 L59.648,36.712 L59.648,34.312 C59.648,32.488 58.136,31 56.336,31 L49.424,31 L42.512,31 C40.712,31 39.2,32.488 39.2,34.312 L39.2,36.712 L35.312,36.712 C33.512,36.712 32,38.2 32,40.024 L32,63.688 C32,65.488 33.488,67 35.312,67 L49.424,67 L63.512,67 C65.336,67 66.824,65.488 66.824,63.688 L66.824,40.024 C66.848,38.2 65.336,36.712 63.536,36.712 Z M45.248,39.064 C45.56,38.488 46.448,38.488 47.048,38.776 L48.536,40.288 L51.56,36.376 C52.16,35.776 53.288,35.776 53.576,36.376 C54.2,36.688 54.248,37.576 53.648,38.176 L48.848,43.888 L45.248,40.888 C44.648,40.6 44.648,39.688 45.248,39.064 Z M61.304,48.664 L50.576,48.664 L49.904,48.664 L37.544,48.664 C36.656,48.664 36.056,48.064 36.056,47.176 C36.056,46.288 36.632,45.688 37.544,45.688 L41.744,45.688 L56.528,45.688 L59,45.688 L59.672,45.688 L61.28,45.688 C62.168,45.688 62.768,46.288 62.768,47.176 C62.792,48.064 62.216,48.664 61.304,48.664 Z" id="Shape" fill="#F9361E" fill-rule="nonzero"></path>
            </g>
        </g>
    </g>
</svg>