<?xml version="1.0" encoding="UTF-8"?>
<svg width="98px" height="98px" viewBox="0 0 98 98" version="1.1" xmlns="http://www.w3.org/2000/svg" xmlns:xlink="http://www.w3.org/1999/xlink">
    <!-- Generator: Sketch 49.2 (51160) - http://www.bohemiancoding.com/sketch -->
    <title>page_icon_vote_def</title>
    <desc>Created with Sketch.</desc>
    <defs>
        <circle id="path-1" cx="49" cy="49" r="49"></circle>
    </defs>
    <g id="切图" stroke="none" stroke-width="1" fill="none" fill-rule="evenodd">
        <g id="iPhone-8" transform="translate(-817.000000, -72.000000)">
            <g id="page_icon_vote_def" transform="translate(817.000000, 72.000000)">
                <g id="Oval">
                    <use fill="#FFFFFF" fill-rule="evenodd" xlink:href="#path-1"></use>
                    <circle stroke="#4A505A" stroke-width="2" cx="49" cy="49" r="48"></circle>
                </g>
                <g id="Group" transform="translate(32.000000, 31.000000)" fill="#4A505A" fill-rule="nonzero">
                    <path d="M19.5019868,5.53112583 L16.4980132,9.41721854 L15.0198675,7.91523179 C14.4238411,7.62913907 13.5417219,7.62913907 13.2317881,8.2013245 C12.6357616,8.82119205 12.6357616,9.72715232 13.2317881,10.013245 L16.807947,12.9933775 L21.5761589,7.3192053 C22.1721854,6.72317881 22.1245033,5.8410596 21.5046358,5.53112583 C21.218543,4.93509934 20.0980132,4.93509934 19.5019868,5.53112583 Z" id="Shape"></path>
                    <path d="M31.4225166,5.86490066 L27.5602649,5.86490066 L27.5602649,3.4807947 C27.5602649,1.66887417 26.0582781,0.190728477 24.2701987,0.190728477 L17.4039735,0.190728477 L10.5377483,0.190728477 C8.74966887,0.190728477 7.24768212,1.66887417 7.24768212,3.4807947 L7.24768212,5.86490066 L3.38543046,5.86490066 C1.59735099,5.86490066 0.0953642384,7.34304636 0.0953642384,9.15496689 L0.0953642384,32.6622517 C0.0953642384,34.4503311 1.57350993,35.9523179 3.38543046,35.9523179 L17.4039735,35.9523179 L31.4225166,35.9523179 C33.2344371,35.9523179 34.7125828,34.4503311 34.7125828,32.6622517 L34.7125828,9.15496689 C34.7125828,7.34304636 33.210596,5.86490066 31.4225166,5.86490066 Z M9.77483444,3.45695364 C9.77483444,3.17086093 10.0609272,2.86092715 10.3708609,2.86092715 L17.4039735,2.86092715 L24.4370861,2.86092715 C24.7470199,2.86092715 25.0331126,3.17086093 25.0331126,3.45695364 L25.0331126,14.781457 L17.4039735,14.781457 L9.77483444,14.781457 L9.77483444,3.45695364 Z M32.4953642,33.2582781 C32.4953642,33.5443709 32.1854305,33.5443709 31.8993377,33.5443709 L17.4039735,33.5443709 L2.90860927,33.5443709 C2.62251656,33.5443709 2.31258278,33.5443709 2.31258278,33.2582781 L2.31258278,8.53509934 C2.31258278,8.53509934 2.5986755,8.24900662 2.90860927,8.24900662 L7.39072848,8.24900662 L7.39072848,14.781457 L5.60264901,14.781457 C4.69668874,14.781457 4.12450331,15.3774834 4.12450331,16.2596026 C4.12450331,17.1417219 4.7205298,17.7377483 5.60264901,17.7377483 L17.4039735,17.7377483 L29.205298,17.7377483 C30.0874172,17.7377483 30.6834437,17.1417219 30.6834437,16.2596026 C30.6834437,15.3774834 30.1112583,14.781457 29.205298,14.781457 L27.4172185,14.781457 L27.4172185,8.24900662 L31.8993377,8.24900662 C32.2092715,8.24900662 32.4953642,8.53509934 32.4953642,8.53509934 L32.4953642,33.2582781 Z" id="Shape"></path>
                </g>
            </g>
        </g>
    </g>
</svg>