<?xml version="1.0" encoding="utf-8"?>
<!-- Generator: Adobe Illustrator 22.0.0, SVG Export Plug-In . SVG Version: 6.00 Build 0)  -->
<svg version="1.1" id="图层_1" xmlns="http://www.w3.org/2000/svg" xmlns:xlink="http://www.w3.org/1999/xlink" x="0px" y="0px"
	 viewBox="0 0 1024 1024" style="enable-background:new 0 0 1024 1024;" xml:space="preserve">
<style type="text/css">
	.st0{fill:#4A505A;}
</style>
<title>Shape</title>
<desc>Created with Sketch.</desc>
<g>
	<title>Group</title>
	<desc>Created with Sketch.</desc>
	<path id="Shape" class="st0" d="M572.4,153.6l-86,111.3l-42.3-43c-17.1-8.2-42.3-8.2-51.2,8.2c-17.1,17.7-17.1,43.7,0,51.9
		l102.4,85.3l136.5-162.5c17.1-17.1,15.7-42.3-2-51.2C621.6,136.5,589.5,136.5,572.4,153.6z"/>
	<path id="Shape_1_" class="st0" d="M913.4,163.1H802.8V94.9c0-51.9-43-94.2-94.2-94.2H512H315.4c-51.2,0-94.2,42.3-94.2,94.2v68.3
		H110.6c-51.2,0-94.2,42.3-94.2,94.2v673.1c0,51.2,42.3,94.2,94.2,94.2H512h401.4c51.9,0,94.2-43,94.2-94.2V257.3
		C1007.6,205.5,964.6,163.1,913.4,163.1z M293.5,94.2c0-8.2,8.2-17.1,17.1-17.1H512h201.4c8.9,0,17.1,8.9,17.1,17.1v324.3H512H293.5
		V94.2z M944.1,947.5c0,8.2-8.9,8.2-17.1,8.2H512H96.9c-8.2,0-17.1,0-17.1-8.2V239.6c0,0,8.2-8.2,17.1-8.2h128.3v187.1h-51.2
		c-25.9,0-42.3,17.1-42.3,42.3c0,25.3,17.1,42.3,42.3,42.3H512h337.9c25.3,0,42.3-17.1,42.3-42.3c0-25.3-16.4-42.3-42.3-42.3h-51.2
		V231.4h128.3c8.9,0,17.1,8.2,17.1,8.2V947.5z"/>
</g>
</svg>
