<?xml version="1.0" encoding="utf-8"?>
<!-- Generator: Adobe Illustrator 22.0.0, SVG Export Plug-In . SVG Version: 6.00 Build 0)  -->
<svg version="1.1" id="图层_1" xmlns="http://www.w3.org/2000/svg" xmlns:xlink="http://www.w3.org/1999/xlink" x="0px" y="0px"
	 viewBox="0 0 1024 1024" style="enable-background:new 0 0 1024 1024;" xml:space="preserve">
<style type="text/css">
	.st0{fill:#4A505A;}
</style>
<path class="st0" d="M512,1024C229.7,1024,0,794.3,0,512S229.7,0,512,0c282.3,0,512,229.7,512,512S794.3,1024,512,1024z M512,20.9
	C241.2,20.9,20.9,241.2,20.9,512s220.3,491.1,491.1,491.1s491.1-220.3,491.1-491.1S782.8,20.9,512,20.9z"/>
<path class="st0" d="M378.8,700.1h-29.9c-9.4,0-17.1-7.7-17.1-17.1V487.2c0-9.4,7.7-17.1,17.1-17.1h29.9c8.5,0,12.8,5.5,12.8,16.2
	V683C391.6,697.9,383.5,700.1,378.8,700.1z M352.6,679.2h18.1V491h-18.1V679.2z M378.8,491L378.8,491l0-10.4L378.8,491z
	 M621.5,699.2h-177c-19,0-35.1-15.7-35.1-34.2V485.5c0-13,8.2-19.6,17.1-24.8c23.2-14.2,41.6-33.4,53-55.6c3.5-6.8,5.8-13.8,9-27.8
	l0.8-3.5c8.1-35.2,16.6-49.9,48.3-49.9c12,0,22.2,4.1,29.5,11.9c10.3,11,14.7,28.6,13.1,52.5c-2.2,34.2-17.3,72.6-35,89.4v0h111.1
	c13.1,0,23.8,4.3,30.2,12.2c4.8,6,6.6,13.5,4.9,21.2c-10.4,44-21.6,92.3-36.8,158.2C651.2,686,636.5,699.2,621.5,699.2z
	 M537.8,344.8c-16.3,0-20.5,1.2-27.9,33.7l-0.8,3.6c-3.2,13.7-5.8,23-10.8,32.6c-13.2,25.5-34.2,47.6-60.9,64
	c-6.9,4-6.9,5.3-6.9,6.8V665c0,7.1,6.6,13.3,14.2,13.3h177c4.6,0,11.2-6,13-13.6c15.2-66,26.4-114.4,36.8-158.2
	c0.3-1.3,0.1-2.4-0.8-3.4c-1.7-2.1-6.2-4.4-13.9-4.4H493.2l37.9-36c13.8-13.2,26.6-47.1,28.5-75.7c1.1-17.6-1.5-30.3-7.5-36.8
	C548.7,346.6,544,344.8,537.8,344.8z"/>
</svg>
