<?xml version="1.0" encoding="utf-8"?>
<!-- Generator: Adobe Illustrator 22.0.0, SVG Export Plug-In . SVG Version: 6.00 Build 0)  -->
<svg version="1.1" id="图层_1" xmlns="http://www.w3.org/2000/svg" xmlns:xlink="http://www.w3.org/1999/xlink" x="0px" y="0px"
	 viewBox="0 0 1024 1024" style="enable-background:new 0 0 1024 1024;" xml:space="preserve">
<style type="text/css">
	.st0{fill:#DB231A;}
</style>
<g id="微博" transform="translate(0.433333, 2.600000)">
	<path id="Shape" class="st0" d="M451.1,917.9c-106.7,0-213.4-27.2-292.8-74.6c-42.9-25.6-76.7-56.2-100.5-90.8
		c-26.1-38.1-39.4-80.1-39.4-124.8c0-90.5,53.7-194.3,151.2-292.3c45.3-45.5,94.9-83.7,143.3-110.2c49.7-27.3,96.9-41.7,136.7-41.7
		c34.3,0,63.3,10.9,83.9,31.6c16.2,16.2,32.9,45.2,30.4,94.8c107.7-40.2,174.8-29.7,215.6,32.7c19.5,29.8,23.5,66.1,11.7,107.9
		c35.8,13.7,66.5,33.1,89.5,57c29.3,30.3,44.8,66.2,44.9,103.8c0.1,53.9-27.2,110.9-76.9,160.7C757.7,863.4,609,917.9,451.1,917.9z
		 M449.6,222.1c-33.3,0-74.1,12.8-118.1,36.9c-45.2,24.8-91.7,60.7-134.5,103.6C106.8,453.4,57.1,547.5,57.1,627.7
		c0,91.1,65.8,149.5,121,182.4c73.6,43.9,173.1,69.1,273,69.1c147.9,0,286.4-50.3,370.4-134.5c42.4-42.5,65.7-89.8,65.6-133.3
		C887,556.1,837.9,505,761.9,481.2c-5.3-1.4-9.7-5.1-12.1-9.9c-2.4-4.8-2.7-10.4-0.8-15.5c14.4-38.2,13.8-68.3-1.7-92
		c-15.9-24.3-35.6-36.3-63.8-38.7c-33.1-2.8-77.3,7.9-135.1,32.8c-6.6,2.8-14.2,1.8-19.8-2.7s-8.2-11.7-6.8-18.7
		c8.4-42.9,3-75.4-15.5-94.1C493,229.2,473.4,222.1,449.6,222.1z M982,458.1c-4.3,0-8.4-1.7-11.4-4.7s-4.7-7.1-4.7-11.4v-0.1
		c0-1.7,0.3-3.4,0.8-5c25.3-78.8,6.8-166-48.4-227.4s-139.7-89-220.4-71.7c-8.7,1.7-17.3-3.7-19.1-12.5c-1.8-8.7,3.7-17.3,12.4-19.2
		c91.9-19.6,188.1,11.7,251.1,81.7c62.7,69.9,83.9,168.9,55.2,258.6C995.5,453.1,989.3,458.1,982,458.1z"/>
	<path id="Shape_1_" class="st0" d="M861,418.8c-1.6,0-3.3-0.2-5-0.8c-8.5-2.8-13.2-11.9-10.4-20.4c11.5-35.6,3.1-75-21.8-102.6
		c-24.8-27.7-63-40.1-99.5-32.2c-8.7,1.6-17.3-3.7-19.2-12.5c-1.8-8.8,3.7-17.4,12.4-19.3c47.7-10.3,97.6,6,130.2,42.3
		c32.6,36.2,43.5,87.7,28.4,134.4C874.2,414.3,868,418.8,861,418.8z"/>
</g>
</svg>
