<?xml version="1.0" encoding="utf-8"?>
<!-- Generator: Adobe Illustrator 22.0.0, SVG Export Plug-In . SVG Version: 6.00 Build 0)  -->
<svg version="1.1" id="图层_1" xmlns="http://www.w3.org/2000/svg" xmlns:xlink="http://www.w3.org/1999/xlink" x="0px" y="0px"
	 viewBox="0 0 1024 1024" style="enable-background:new 0 0 1024 1024;" xml:space="preserve">
<style type="text/css">
	.st0{fill:#2CC701;}
</style>
<g id="Shape" transform="translate(0.433333, 2.600000)">
	<path class="st0" d="M253.2,270.5c-23,0-47.9,16.3-47.9,42.6c0,26.4,24.9,42.7,47.9,42.7c23.4,0,39-17.2,39-42.7
		C292.3,287.2,276.9,270.5,253.2,270.5z M490.5,355.8c23.4,0,39.2-17.2,39.2-42.7c0-25.9-15.4-42.6-39.2-42.6
		c-23,0-47.8,16.3-47.8,42.6C442.7,339.5,467.5,355.8,490.5,355.8z"/>
	<path class="st0" d="M1007.5,621.6c0-134.5-121.3-249.5-276.2-261.7l-0.9-0.1l-2.6-9.8l0,0C696.2,207.2,543.6,99.8,371.6,99.8
		c-195.2,0-354,137.3-354,306c0,90.3,45.8,172,132.5,236.3l1.9,1.4l-31.3,95c-1.6,4.8-0.1,10,3.6,13.3c2.2,2,5.1,3,8.1,3
		c1.9,0,3.8-0.5,5.5-1.3L253.6,695l15.6,3.2c35,7.3,65.2,13.5,102.3,13.5c10.8,0,21.9-0.5,33-1.4l14.9-2.1
		C462.1,813.6,576.5,884.3,705,884.3c32.9,0,65.9-7.6,99.5-16.2l1.2-0.3l89.5,49.4c1.8,1,3.8,1.5,5.9,1.5c2.8,0,5.5-1,7.7-2.8
		c3.9-3.2,5.5-8.4,4-13.2l-23.2-78l1.7-1.4C966.3,764,1007.5,692.2,1007.5,621.6z M273.9,673.9l-19.6-4c-0.8-0.2-1.6-0.3-2.4-0.3
		c-1.9,0-3.7,0.5-5.4,1.3l-93,47l24.8-75.3c1.7-5.3-0.1-10.9-4.6-14.1C86.5,567.1,42.2,492.2,42.2,405.8
		c0-155,147.8-281.2,329.4-281.2c159.9,0,302.6,99,332,230.2l0.9,4l-4,0.1c-164.5,2.2-298.3,120-298.3,262.7
		c0,19.5,2.8,39.9,8.4,60.5l0.7,1.7l-8.4,1.8h-0.3c-10.3,0.9-20.6,1.3-30.9,1.3C336.6,687,307.6,680.9,273.9,673.9z M863.8,823.9
		l17,57.2l-67.5-37.3c-1.8-1-3.8-1.5-5.9-1.5c-1,0-2,0.1-3,0.4c-32.5,8.3-66.2,16.9-99.4,16.9c-153.5,0-278.4-106.8-278.4-238.1
		s124.9-238,278.4-238c150.6,0,277.8,109,277.8,238c0,65.6-40.7,132.7-114.7,188.9C864.1,813.6,862.4,818.9,863.8,823.9z"/>
	<path class="st0" d="M780.5,509.4c-15.1,0-30.4,17.3-30.4,34.2c0,16.9,15.3,34.1,30.4,34.1c24.2,0,39.2-17.7,39.2-34.1
		C819.8,527.2,804.8,509.4,780.5,509.4z M594.4,509.4c-15.2,0-30.6,17.3-30.6,34.2c0,16.9,15.5,34.1,30.6,34.1
		c24.1,0,39-17.7,39-34.1S618.5,509.4,594.4,509.4z"/>
</g>
</svg>
