<?xml version="1.0" encoding="UTF-8"?>
<svg width="50px" height="50px" viewBox="0 0 50 50" version="1.1" xmlns="http://www.w3.org/2000/svg" xmlns:xlink="http://www.w3.org/1999/xlink">
    <!-- Generator: Sketch 49.2 (51160) - http://www.bohemiancoding.com/sketch -->
    <title>YOYOW</title>
    <desc>Created with Sketch.</desc>
    <defs>
        <polygon id="path-1" points="0 0.000559701493 49.9994403 0.000559701493 49.9994403 50 0 50"></polygon>
    </defs>
    <g id="Symbols" stroke="none" stroke-width="1" fill="none" fill-rule="evenodd">
        <g id="YOYOW">
            <g>
                <g id="Group-3">
                    <mask id="mask-2" fill="white">
                        <use xlink:href="#path-1"></use>
                    </mask>
                    <g id="Clip-2"></g>
                    <path d="M49.9995149,25.0002052 C49.9995149,38.8071082 38.806791,50.0000187 24.9997015,50.0000187 C11.1927985,50.0000187 -0.000111940299,38.8071082 -0.000111940299,25.0002052 C-0.000111940299,11.1933022 11.1927985,0.000391791045 24.9997015,0.000391791045 C38.806791,0.000391791045 49.9995149,11.1933022 49.9995149,25.0002052" id="Fill-1" fill="#21A3DD" mask="url(#mask-2)"></path>
                </g>
                <path d="M48,25 C48,37.7026599 37.7024741,48 25,48 C12.2975259,48 2,37.7026599 2,25 C2,12.2975259 12.2975259,2 25,2 C37.7024741,2 48,12.2975259 48,25" id="Fill-4" fill="#FFFFFF"></path>
                <path d="M47,25 C47,37.1503256 37.1503256,47 25,47 C12.8496744,47 3,37.1503256 3,25 C3,12.8496744 12.8496744,3 25,3 C37.1503256,3 47,12.8496744 47,25" id="Fill-6" fill="#21A3DD"></path>
                <path d="M15,21 C15,23.2091257 13.2092759,25 10.9999032,25 C8.79072412,25 7,23.2091257 7,21 C7,18.7908743 8.79072412,17 10.9999032,17 C13.2092759,17 15,18.7908743 15,21" id="Fill-8" fill="#FFFFFF"></path>
                <path d="M29,21 C29,23.2091257 27.2090823,25 24.9999032,25 C22.7907241,25 21,23.2091257 21,21 C21,18.7908743 22.7907241,17 24.9999032,17 C27.2090823,17 29,18.7908743 29,21" id="Fill-10" fill="#FFFFFF"></path>
                <path d="M43,21 C43,23.2091257 41.2090823,25 38.9999032,25 C36.7907241,25 35,23.2091257 35,21 C35,18.7908743 36.7907241,17 38.9999032,17 C41.2090823,17 43,18.7908743 43,21" id="Fill-12" fill="#FFFFFF"></path>
                <path d="M36,28 C36,30.2091257 34.2092759,32 31.9999032,32 C29.7907241,32 28,30.2091257 28,28 C28,25.7908743 29.7907241,24 31.9999032,24 C34.2092759,24 36,25.7908743 36,28" id="Fill-14" fill="#FFFFFF"></path>
                <path d="M22,28 C22,30.2091257 20.2090823,32 17.9999032,32 C15.7907241,32 14,30.2091257 14,28 C14,25.7908743 15.7907241,24 17.9999032,24 C20.2090823,24 22,25.7908743 22,28" id="Fill-16" fill="#FFFFFF"></path>
                <path d="M16,24.4998964 C16,25.3284974 15.3284974,26 14.5001036,26 C13.6715026,26 13,25.3284974 13,24.4998964 C13,23.6715026 13.6715026,23 14.5001036,23 C15.3284974,23 16,23.6715026 16,24.4998964" id="Fill-18" fill="#FFFFFF"></path>
                <path d="M23,24.4998964 C23,25.3284974 22.3284974,26 21.5001036,26 C20.6715026,26 20,25.3284974 20,24.4998964 C20,23.6715026 20.6715026,23 21.5001036,23 C22.3284974,23 23,23.6715026 23,24.4998964" id="Fill-20" fill="#FFFFFF"></path>
                <path d="M30,24.4998964 C30,25.3284974 29.3284974,26 28.4998964,26 C27.6715026,26 27,25.3284974 27,24.4998964 C27,23.6715026 27.6715026,23 28.4998964,23 C29.3284974,23 30,23.6715026 30,24.4998964" id="Fill-22" fill="#FFFFFF"></path>
                <path d="M37,24.4998964 C37,25.3284974 36.3284974,26 35.4998964,26 C34.6715026,26 34,25.3284974 34,24.4998964 C34,23.6715026 34.6715026,23 35.4998964,23 C36.3284974,23 37,23.6715026 37,24.4998964" id="Fill-24" fill="#FFFFFF"></path>
                <polygon id="Fill-26" fill="#FFFFFF" points="17.3543153 35 18.5024537 37.0336379 19.6456847 35 20 35 18.6441798 37.3528892 18.6441798 39 18.3558202 39 18.3558202 37.3528892 17 35"></polygon>
                <path d="M20.5902637,35.7870189 C20.3772819,36.0999915 20.2708833,36.5042053 20.2708833,37.0001699 C20.2708833,37.5014018 20.372672,37.9057854 20.5858381,38.2129811 C20.8078554,38.536488 21.1137747,38.6980715 21.5000922,38.6980715 C21.8860409,38.6980715 22.1879034,38.536488 22.4099207,38.2182482 C22.6229025,37.9110526 22.7294855,37.5068388 22.7294855,37.0001699 C22.7294855,36.4933311 22.6229025,36.0838501 22.4099207,35.7817518 C22.1879034,35.4582448 21.8860409,35.3020984 21.5045178,35.3020984 C21.1183847,35.3020984 20.8120966,35.463512 20.5902637,35.7870189 M22.6138669,35.5824484 C22.8714734,35.9489423 23,36.4177215 23,37.0001699 C23,37.5822785 22.8714734,38.0566647 22.6138669,38.4233285 C22.3389268,38.8059638 21.970496,39 21.5000922,39 C21.0296884,39 20.6566476,38.8059638 20.3861331,38.4178914 C20.1288954,38.0510577 20,37.5770113 20,37.0001699 C20,36.4234984 20.1288954,35.9489423 20.3861331,35.5824484 C20.6612576,35.1940362 21.0339296,35 21.5045178,35 C21.970496,35 22.3389268,35.1940362 22.6138669,35.5824484" id="Fill-28" fill="#FFFFFF"></path>
                <polygon id="Fill-30" fill="#FFFFFF" points="23.3543153 35 24.5024537 37.0336379 25.6456847 35 26 35 24.6441798 37.3528892 24.6441798 39 24.3558202 39 24.3558202 37.3528892 23 35"></polygon>
                <path d="M26.5902637,35.7870189 C26.3772819,36.0999915 26.2708833,36.5042053 26.2708833,37.0001699 C26.2708833,37.5014018 26.372672,37.9057854 26.5858381,38.2129811 C26.8078554,38.536488 27.1137747,38.6980715 27.5000922,38.6980715 C27.8860409,38.6980715 28.1879034,38.536488 28.4099207,38.2182482 C28.6229025,37.9110526 28.7293011,37.5068388 28.7293011,37.0001699 C28.7293011,36.4933311 28.6229025,36.0838501 28.4099207,35.7817518 C28.1879034,35.4582448 27.8860409,35.3020984 27.5045178,35.3020984 C27.1183847,35.3020984 26.8120966,35.463512 26.5902637,35.7870189 M28.6138669,35.5824484 C28.8714734,35.9489423 29,36.4177215 29,37.0001699 C29,37.5822785 28.8714734,38.0566647 28.6138669,38.4233285 C28.3389268,38.8059638 27.970496,39 27.5000922,39 C27.0296884,39 26.6566476,38.8059638 26.3861331,38.4178914 C26.1288954,38.0510577 26,37.5770113 26,37.0001699 C26,36.4234984 26.1288954,35.9489423 26.3861331,35.5824484 C26.6612576,35.1940362 27.0339296,35 27.5045178,35 C27.970496,35 28.3389268,35.1940362 28.6138669,35.5824484" id="Fill-32" fill="#FFFFFF"></path>
                <polygon id="Fill-34" fill="#FFFFFF" points="29.3043658 35 30.0584085 38.5407231 30.0717852 38.5407231 30.8434193 35 31.1565807 35 31.9282148 38.5407231 31.9415915 38.5407231 32.6956342 35 33 35 32.0960649 39 31.7783224 39 31.0066884 35.4817022 30.9933116 35.4817022 30.2216776 39 29.9039351 39 29 35"></polygon>
            </g>
        </g>
    </g>
</svg>